<?xml version="1.0" encoding="utf-8"?>
<!-- Generator: Adobe Illustrator 19.2.0, SVG Export Plug-In . SVG Version: 6.00 Build 0)  -->
<svg version="1.1" id="Layer_1" xmlns="http://www.w3.org/2000/svg" xmlns:xlink="http://www.w3.org/1999/xlink" x="0px" y="0px"
	 viewBox="0 0 877.9 338.8" style="enable-background:new 0 0 877.9 338.8;" xml:space="preserve">
<style type="text/css">
	.st0{fill:#EBE1DC;}
</style>
<g>
	<path class="st0" d="M93.9,180.5v3.4v3.5v3.5c0,1.7,0.3,1.7,0.3,3.4v3.5c0,1-0.1,2.1-0.6,3c-0.5,1-1.4,1.7-2.1,2
		c-1.2,0.7-1.2,0.7-2.6,1.2c-1,0.6-2,0.9-3.1,1.4c-1,0.5-2,1-3,1.4c-1.1,0.5-2,1-3.2,1.4c-1,0.3-2.1,0.3-3.3,0.7l-3.3,0.7
		c-1.1,0.2-2.3,0.5-3.3,0.6c-1.1,0.2-2.3,0.6-3.4,0.7c-1,0.1-2.1,0.3-3.3,0.5c-1.1,0.1-2.3,0.3-3.4,0.3s-2.3-0.1-3.4-0.1
		c-1.1,0-2.3-0.3-3.4-0.3c-1.2-0.1-2.4,0.2-3.5,0.2c-1.1-0.1-2.3-0.5-3.4-0.6c-1.1-0.2-2.4-0.2-3.5-0.5c-1.1-0.2-2.1-0.8-3.3-1
		c-1.1-0.2-2.4-0.2-3.4-0.5c-1.1-0.3-2.3-0.6-3.4-0.9c-1.1-0.5-2.1-0.9-3.3-1.2l-3.2-1.4c-1-0.5-2-1-3.1-1.6c-1-0.5-2-1.1-3-1.7
		c-0.9-0.6-1.8-1.4-2.8-1.9c-0.9-0.7-1.9-1.2-2.7-2c-1-0.7-1.8-1.5-2.7-2.1c-0.8-0.8-1.9-1.4-2.6-2.3c-0.8-0.8-1.2-1.9-2-2.8
		c-0.7-0.9-1.2-1.9-1.9-2.8c-0.6-1-1.2-1.9-1.8-2.9c-0.5-1-0.9-2.1-1.2-3.2c-0.5-1.1-0.8-2.1-1-3.3c-0.2-1.1-0.5-2.3-0.6-3.4
		S0,173.1,0,171.9c0-1.1,0-2.4,0.1-3.5s0.6-2.3,0.8-3.4c0.3-1.1,0.2-2.4,0.7-3.5c0.3-1.1,0.8-2.1,1.4-3.2c0.5-1.1,1.2-1.9,1.9-2.9
		c0.6-1,1.1-2,1.8-2.9l2.1-2.7c0.8-0.8,1.2-2,2-2.8l2.7-2.4c0.9-0.7,2-1,3-1.7c0.9-0.7,1.8-1.5,2.8-2c1-0.6,1.9-1.2,3.1-1.8
		c1-0.5,2.1-0.6,3.3-1c1-0.5,2-1.1,3.2-1.5c1.1-0.5,2.1-0.8,3.3-1.1c1.1-0.3,2.3-0.7,3.4-0.9c1.1-0.3,2.3-0.3,3.5-0.6
		c1.1-0.2,2.3-0.3,3.4-0.5c1.1-0.2,2.3-0.3,3.5-0.5c1.1-0.1,2.3-0.2,3.4-0.2c1.2-0.1,2.4,0,3.5-0.1h3.5c1.2,0,2.5-0.1,3.7-0.1
		c1.2,0.1,2.5-0.2,3.7-0.1c1.2,0.1,2.4,0.7,3.6,0.9c1.2,0.1,2.6,0,3.7,0.2c1.2,0.2,2.4,0.8,3.6,1c1.2,0.3,2.5,0.5,3.6,0.8
		c1.2,0.3,2.5,0.6,3.6,1c1.1,0.3,2.1,1.1,3.3,1.7c1,0.3,1.7,1,2,2c0.3,0.9,0.2,1.9-0.2,2.8c-0.8,1.6-0.7,1.7-1.5,3.3
		c-0.7,1.6-0.8,1.5-1.6,3.1c-0.8,1.6-0.7,1.6-1.5,3.2c-0.5,1-1.4,1.7-2.3,2c-1,0.3-2,0.3-3.1-0.1c-1.1-0.3-2.1-0.9-3.3-1.4
		c-1.1-0.3-2.4-0.3-3.5-0.7c-1.1-0.2-2.3-0.7-3.5-0.9c-1.1-0.2-2.4,0.1-3.5,0l-3.6-0.3c-1.1-0.1-2.3-0.3-3.5-0.3
		c-1.1,0-2.3-0.1-3.4-0.1c-1.1,0.1-2.3,0.5-3.4,0.6c-1.1,0.1-2.3,0.1-3.4,0.2c-1.1,0.1-2.3,0.3-3.4,0.6l-3.3,0.7
		c-1.1,0.2-2.3,0.6-3.3,0.9c-1.1,0.5-2.3,0.7-3.3,1.1c-1.1,0.5-2,1-3.1,1.5c-1,0.6-2.1,0.9-3.2,1.5c-0.9,0.7-1.6,1.8-2.4,2.5
		c-0.9,0.8-1.8,1.4-2.5,2.3c-0.8,0.9-1.1,2-1.6,3c-0.6,1-1.2,1.9-1.5,3c-0.2,1.1-0.6,2.3-0.6,3.4c0,1.1,0.7,2.3,1,3.5
		c0.5,1,0.9,2,1.6,3.2c0.7,0.9,1.1,2,2,2.9c0.8,0.8,1.7,1.7,2.6,2.5c1,0.7,2.1,1,3.3,1.7c1,0.7,1.9,1.4,3.1,1.9l3.3,1.4
		c1.1,0.5,2.3,0.8,3.5,1.2c1.1,0.3,2.1,1,3.4,1.4c1.1,0.2,2.4,0.3,3.5,0.5c1.2,0.2,2.4,0.6,3.6,0.7l3.6,0.3c1.2,0.1,2.4,0.1,3.6,0.1
		c1.1,0,2.1,0.1,3.2,0c1.1,0,2.1-0.3,3.2-0.5c1-0.1,2-0.5,3-0.6c1.1-0.2,2.1-0.1,3.2-0.3c1-0.2,2-0.7,3.1-1c1-0.2,1.8-0.9,2.5-1.8
		c0.7-0.9,1.4-1.9,1.4-3.1c0-0.5,0.1-0.5,0.1-0.9c0-1.1-0.7-2-1.4-2.8c-0.7-0.7-1.7-1.1-2.7-1.1c-1.7,0-1.7-0.1-3.4-0.1h-3.4h-3.3
		c-1.7,0-1.7,0.3-3.4,0.3H55c-1,0-2-0.7-2.7-1.4c-0.8-0.7-1.4-1.7-1.4-2.8c0-1.7,0.1-1.7,0.1-3.5c0-1.7,0.2-1.7,0.2-3.5
		c0-1.7-0.1-1.7-0.1-3.5c0-1,0.5-2,1.1-2.7c0.7-0.7,1.7-1,2.7-1c1.8,0,1.8,0.1,3.5,0.1c1.8,0,1.8-0.3,3.5-0.3c1.8,0,1.8,0.2,3.5,0.2
		c1.8,0,1.8-0.1,3.6-0.1c1.7,0,1.7-0.2,3.5-0.2H76c1.7,0,1.7,0.2,3.5,0.2c1.7,0,1.7-0.3,3.5-0.3c1.7,0,1.7,0.6,3.5,0.6
		s1.8-0.5,3.5-0.5c1.1,0,2.1,0.6,2.8,1.2c0.8,0.8,1.4,1.8,1.4,2.8c0,1.8-0.2,1.8-0.2,3.5s0.1,1.7,0.1,3.5c0,1.7,0.1,1.7,0.1,3.4
		C94.3,178.7,93.9,178.7,93.9,180.5"/>
	<path class="st0" d="M186.5,196.3c0.5,1.1,0.9,2.3,0.9,3.4c0,1.1-0.7,2.3-1.1,3.3c-0.3,1.1-0.7,2.1-1.4,3s-1.5,1.8-2.4,2.5
		s-1.8,1.5-2.9,1.9c-1,0.5-2.1,0.6-3.4,0.8c-1,0.2-2.1,0.3-3.4,0.3c-1.1,0-2.4-0.1-3.6-0.3c-1.1-0.2-2.4-0.3-3.5-0.7
		c-1.1-0.5-2.3-1.1-3.4-1.6c-1-0.5-2.3-0.9-3.3-1.5c-1.1-0.6-2-1.4-3-2s-2-1.4-3.1-1.9l-3-2c-1-0.7-2.1-1.2-3.1-1.8
		c-1.1-0.7-2-1.5-3-2.1s-2.3-1-3.3-1.5c-1.1-0.7-2-1.6-3-1.9c-1.4-0.5-2.6-0.8-3.6-0.8c-2,0-2,0.2-4.1,0.2h-4c-1,0-2,0.5-2.7,1.1
		c-0.8,0.7-1.1,1.7-1.1,2.8c0,1.7-0.2,1.7-0.2,3.4c0,1.6,0.2,1.6,0.2,3.3v3.4c0,1.1-0.5,2.1-1.1,2.9c-0.7,0.7-1.8,0.8-2.8,0.8
		c-1.8,0-1.8,0.5-3.5,0.5H111c-1.8,0-1.8-0.5-3.5-0.5c-1.1,0-2.1-0.1-2.9-0.8c-0.7-0.8-1-1.8-1-2.9v-3.5c0-1.8,0.2-1.8,0.2-3.6
		s-0.3-1.8-0.3-3.5v-3.6v-3.5c0-1.8,0.3-1.8,0.3-3.6s-0.1-1.8-0.1-3.5c0-1.8,0.1-1.8,0.1-3.6s-0.5-1.8-0.5-3.5
		c0-1.8,0.3-1.8,0.3-3.6s-0.1-1.8-0.1-3.5c0-1.8-0.2-1.8-0.2-3.6s0.3-1.8,0.3-3.5c0-1.8-0.1-1.8-0.1-3.6v-3.5c0-1.8-0.1-1.8-0.1-3.6
		c0-1.7,0.3-1.7,0.3-3.5s-0.1-1.8-0.1-3.6v-3.5c0-1.8-0.3-1.8-0.3-3.5c0-1.1,0.6-2.3,1.2-2.9c0.7-0.8,1.8-1.1,2.9-1.1h3.4h3.3h3.4
		c1.7,0,1.7,0.2,3.4,0.2c1.7,0,1.7-0.3,3.4-0.3h3.4c1.7,0,1.7,0.1,3.3,0.1c1.7,0,1.7,0.2,3.4,0.2h3.4h3.4c1.1,0.1,2.3,0.1,3.4,0.2
		c1.1,0.1,2.4,0,3.4,0.2c1.2,0.1,2.3,0.6,3.4,0.8c1.1,0.2,2.1,0.6,3.3,0.9c1.1,0.2,2.1,0.6,3.3,0.9c1,0.5,2.1,0.7,3.2,1.1
		c1,0.6,2.1,1,3.1,1.5c1,0.6,1.9,1.4,2.8,1.9c1,0.7,1.9,1.4,2.7,2c0.9,0.8,1.9,1.5,2.6,2.3c0.9,0.8,1.5,1.8,2.1,2.7
		c0.7,0.9,1.4,1.8,1.9,2.7c0.6,1,1.1,2,1.6,3c0.5,1.1,0.8,2.1,1.1,3.3c0.2,1.1,0.3,2.3,0.5,3.4c0.2,1,0.1,2.1,0.1,3.3
		s0.5,2.5,0.3,3.6l-0.7,3.6c-0.3,1.1-1.1,2.1-1.6,3.3c-0.5,1.1-0.9,2.1-1.5,3.2c-0.6,1.1-1.1,2.1-1.8,3.1c-0.8,1-1.5,1.9-2.3,2.8
		c-0.9,0.9-1.9,1.6-2.7,2.3c-1,0.9-1.8,1.8-2.7,2.4c-0.9,0.6-1.7,1.1-1.8,1.9c-0.2,0.8,0.1,1.8,1.1,2.4c1,0.6,2.4,1.1,3.7,1.5
		c1.2,0.3,2.7,0.6,4,0.6c1.5,0.1,2.8-0.2,4-0.5c1.1-0.2,2.4-0.1,3.6-0.2c1.2,0,2.5-0.1,3.3,0.7C185.5,194.4,186.2,195.3,186.5,196.3
		 M161.5,163c0-1.2-0.5-2.4-0.8-3.5c-0.5-1.1-0.9-2.4-1.8-3.3c-0.8-0.8-1.9-1.4-3-2c-1-0.6-2.1-1.1-3.4-1.5
		c-1.1-0.3-2.4-0.6-3.6-0.8c-1.1-0.2-2.4-0.7-3.6-0.9c-1.2-0.1-2.5-0.1-3.7-0.2h-3.7c-2,0-2,0.3-4,0.3h-4.1c-1.9,0-1.9-0.2-4-0.2
		c-1,0-2,0.5-2.7,1.2s-1.1,1.6-1.1,2.7v3.3c0,1.7-0.2,1.7-0.2,3.3c0,1.7,0.3,1.7,0.3,3.3v3.3v3.3c0,1.1,0.2,2.1,0.9,2.9
		c0.7,0.7,1.8,1.1,2.8,1.1c2,0,2-0.1,4-0.1s2,0.2,4.1,0.2c1.9,0,1.9-0.3,4-0.3c1.2,0,2.5,0.1,3.7,0c1.2,0,2.5-0.2,3.6-0.3
		c1.4-0.2,2.6,0,3.7-0.2c1.4-0.2,2.5-0.7,3.6-1c1.2-0.5,2.5-0.8,3.5-1.4c1.1-0.7,1.9-1.7,2.7-2.5c0.9-0.9,1.9-1.8,2.3-2.9
		C161.4,165.6,161.5,164.4,161.5,163"/>
	<path class="st0" d="M263.5,139.8c0,1.8,0.1,1.8,0.1,3.5c0,1.8-0.2,1.8-0.2,3.5c0,1.1-0.2,2.3-0.9,2.9c-0.7,0.8-1.8,0.9-2.9,0.9
		c-1.7,0-1.7,0.3-3.4,0.3c-1.7,0-1.7-0.1-3.4-0.1s-1.7-0.1-3.4-0.1s-1.7-0.1-3.4-0.1s-1.7-0.1-3.4-0.1s-1.7,0.3-3.4,0.3
		s-1.7-0.2-3.4-0.2s-1.7-0.1-3.4-0.1s-1.7,0.5-3.4,0.5s-1.7-0.3-3.4-0.3h-3.4c-1.7,0-1.7-0.1-3.4-0.1c-1,0-2.1,0.6-2.8,1.2
		c-0.8,0.8-0.9,1.8-0.9,2.9v4.1c0,1.1,0.2,2.1,0.9,2.8c0.8,0.7,1.8,1.1,2.8,1.1c1.8,0,1.8,0.1,3.6,0.1s1.8-0.1,3.6-0.1
		c1.7,0,1.7,0.1,3.5,0.1s1.8-0.2,3.6-0.2s1.8-0.1,3.5-0.1c1.8,0,1.8,0.3,3.6,0.3s1.8-0.3,3.6-0.3c1,0,2,0.7,2.7,1.4
		c0.8,0.7,1,1.7,1,2.8v3.5c0,1.7,0.2,1.7,0.2,3.5v3.5c0,1-0.6,2-1.2,2.7c-0.7,0.7-1.7,1.4-2.7,1.4c-1.8,0-1.8-0.3-3.6-0.3
		s-1.8,0.3-3.6,0.3c-1.7,0-1.7-0.2-3.5-0.2s-1.8,0.2-3.6,0.2s-1.8-0.2-3.6-0.2c-1.7,0-1.7,0.1-3.5,0.1s-1.8-0.1-3.6-0.1
		c-1,0-2,0.6-2.7,1.2c-0.7,0.7-1.2,1.7-1.2,2.7c0,2,0.2,2,0.2,4.1c0,1,0.1,2.1,0.9,2.8c0.7,0.8,1.8,1.1,2.8,1.1h3.4
		c1.7,0,1.7,0.1,3.4,0.1s1.7-0.3,3.4-0.3h3.4c1.7,0,1.7,0.5,3.4,0.5s1.7-0.3,3.3-0.3c1.7,0,1.7,0.1,3.4,0.1s1.7,0.1,3.4,0.1
		s1.7-0.3,3.4-0.3s1.7,0.1,3.4,0.1s1.7,0.2,3.4,0.2h3.3c1.1,0,2,0.3,2.7,1.1c0.7,0.7,1.2,1.6,1.2,2.6v3.5c0,1.8-0.1,1.8-0.1,3.5v3.5
		c0,1.1-0.3,2.1-1,2.8s-1.7,1-2.8,1c-1.7,0-1.7-0.1-3.4-0.1c-1.8,0-1.8,0.1-3.5,0.1s-1.7,0.3-3.5,0.3c-1.7,0-1.7-0.1-3.4-0.1h-3.5
		c-1.7,0-1.7-0.1-3.5-0.1h-3.4h-3.5h-3.4h-3.5c-1.7,0-1.7-0.2-3.5-0.2c-1.7,0-1.7,0.3-3.4,0.3c-1.8,0-1.8-0.3-3.5-0.3
		s-1.7,0.3-3.4,0.3c-1.8,0-1.8-0.2-3.5-0.2s-1.7,0.1-3.5,0.1h-3.4c-1.1,0-2-0.5-2.8-1.1c-0.7-0.8-1.2-1.7-1.2-2.8
		c0-1.8,0.2-1.8,0.2-3.5c0-1.8,0.1-1.8,0.1-3.6s-0.1-1.8-0.1-3.5c0-1.8-0.2-1.8-0.2-3.6v-3.5v-3.6c0-1.7,0.3-1.7,0.3-3.5
		s-0.3-1.8-0.3-3.6v-3.5V172c0-1.8,0.3-1.8,0.3-3.6s-0.5-1.8-0.5-3.5c0-1.8,0.3-1.8,0.3-3.6c0-1.7-0.3-1.7-0.3-3.5v-3.6
		c0-1.7,0.3-1.7,0.3-3.5s0.1-1.8,0.1-3.5c0-1.8-0.2-1.8-0.2-3.6c0-1.7-0.1-1.7-0.1-3.5s0.1-1.8,0.1-3.6c0-1,0.6-1.9,1.2-2.6
		c0.8-0.7,1.6-1.5,2.7-1.5c1.7,0,1.7,0.2,3.5,0.2c1.7,0,1.7,0.2,3.4,0.2c1.8,0,1.8-0.5,3.5-0.5c1.8,0,1.8,0.1,3.5,0.1
		s1.7,0.1,3.5,0.1h3.4h3.5c1.7,0,1.7,0.1,3.5,0.1c1.7,0,1.7-0.1,3.4-0.1c1.8,0,1.8-0.1,3.5-0.1h3.5c1.7,0,1.7,0.1,3.5,0.1
		c1.7,0,1.7,0.2,3.4,0.2c1.8,0,1.8-0.1,3.5-0.1h3.5c1.7,0,1.7-0.2,3.4-0.2c1.8,0,1.8-0.1,3.5-0.1c1.1,0,2.1,0.6,2.8,1.2
		c0.8,0.7,0.9,1.8,0.9,2.8C263.3,138.1,263.5,138.1,263.5,139.8"/>
	<path class="st0" d="M367.9,207.6c0.5,1,0.1,2-0.2,2.6c-0.5,0.7-1.1,1.2-2.3,1.2h-3.2h-3c-1.6,0-1.6,0.1-3.2,0.1s-1.6-0.5-3.1-0.5
		c-1.1,0-2.1-0.3-3.2-1c-1-0.7-2.3-1.2-2.7-2.1c-0.7-1.4-0.6-1.5-1.1-2.8c-0.7-1.4-0.8-1.2-1.4-2.6c-0.7-1.4-0.2-1.5-0.9-2.8
		c-0.5-1-1.6-1.7-2.6-2.4c-1-0.6-2.1-0.9-3.3-0.9c-1.6,0-1.6-0.3-3.2-0.3s-1.6,0.2-3.2,0.2s-1.6-0.1-3.2-0.1s-1.6-0.1-3.2-0.1H322
		c-1.6,0-1.6-0.1-3.2-0.1s-1.6,0.2-3.2,0.2h-3.2h-3.2c-1.6,0-1.6,0.3-3.2,0.3h-3.2c-1.1,0-2.4,0-3.4,0.7c-1,0.6-1.9,1.6-2.4,2.5
		c-0.7,1.4-0.7,1.4-1.2,2.7c-0.7,1.4-0.6,1.4-1.1,2.7c-0.7,1.4-0.8,1.4-1.4,2.7c-0.6,0.9-1.4,1.9-2.4,2.6c-1,0.7-2.3,1-3.4,1
		c-1.5,0-1.5-0.1-3-0.1c-1.6,0-1.6,0.2-3.2,0.2s-1.6-0.1-3.2-0.1s-1.6-0.2-3-0.2c-1.1,0-2.1-0.2-2.5-0.8c-0.5-0.7-0.2-1.7,0.2-2.6
		c0.7-1.5,0.9-1.4,1.6-2.8l1.4-2.9c0.7-1.5,0.6-1.5,1.2-2.9c0.7-1.5,0.5-1.6,1.1-2.9c0.7-1.5,1-1.4,1.7-2.8l1.4-2.8
		c0.7-1.5,0.5-1.6,1.1-3.1c0.7-1.5,0.8-1.4,1.6-2.8c0.7-1.4,0.9-1.2,1.7-2.7c0.7-1.5,0.6-1.5,1.2-2.9c0.7-1.4,0.8-1.4,1.5-2.8
		c0.7-1.5,0.7-1.4,1.5-2.8c0.7-1.5,0.5-1.6,1.1-2.9c0.8-1.5,0.9-1.4,1.6-2.8c0.8-1.5,0.8-1.4,1.5-2.8c0.7-1.5,0.3-1.6,1-3.1
		c0.8-1.5,0.7-1.5,1.4-2.9c0.7-1.5,1.1-1.2,1.8-2.6l1.4-2.9c0.7-1.5,0.6-1.5,1.2-2.9c0.7-1.5,0.5-1.6,1.1-3c0.7-1.4,1.1-1.1,1.8-2.6
		c0.7-1.5,0.3-1.6,1-3l1.6-2.8c0.7-1.5,0.8-1.4,1.5-2.8c0.5-1,1.2-2,2.3-2.6c0.6-0.5,1.2-0.7,1.9-0.9c1-0.3,2.1-0.2,2.4-0.2
		c0.9,0,1.2,0.1,2.6,0.1c1.8,0,1.8-0.1,3.5-0.1h3.5h2.1h1.5c0.2,0,0.8-0.1,1.1,0.2c0.7,0.2,1.5,0.7,2,1.1c1,0.6,1.8,1.5,2.3,2.5
		l1.4,3c0.8,1.5,1,1.4,1.7,2.8c0.8,1.5,0.9,1.5,1.7,2.9c0.7,1.5,0.6,1.6,1.2,3c0.7,1.5,0.6,1.6,1.4,3c0.7,1.5,0.9,1.4,1.6,2.8
		c0.7,1.6,0.6,1.6,1.2,3.2c0.8,1.5,1,1.4,1.7,2.8l1.4,3c0.8,1.5,0.7,1.5,1.4,3c0.7,1.5,0.5,1.6,1.1,3c0.7,1.6,0.7,1.6,1.5,3.1
		l1.4,2.9c0.8,1.6,0.7,1.6,1.5,3c0.7,1.5,0.8,1.4,1.6,2.9c0.7,1.5,0.8,1.5,1.5,2.9c0.7,1.5,0.8,1.5,1.5,2.9c0.7,1.5,0.8,1.5,1.5,2.9
		c0.8,1.6,0.8,1.5,1.5,2.9c0.8,1.6,0.7,1.6,1.4,3.1c0.7,1.6,0.8,1.5,1.6,2.9c0.7,1.6,0.7,1.5,1.5,3c0.7,1.5,0.6,1.5,1.4,2.9
		C367.1,206.3,367.1,206.2,367.9,207.6 M331.5,174.3c-0.7-1.6-0.9-1.6-1.7-3.2c-0.7-1.6-0.6-1.6-1.2-3.2c-0.8-1.6-0.7-1.7-1.5-3.3
		s-1.1-1.4-1.9-2.9c-0.7-1.6-0.8-1.6-1.6-3.2c-0.7-1.6-0.2-1.7-1-3.3c-0.9-2-2.9-2-3.8,0c-0.8,1.6-0.7,1.6-1.5,3.2
		c-0.7,1.6-0.5,1.8-1.2,3.4c-0.7,1.6-1.1,1.4-1.9,2.9c-0.8,1.6-0.5,1.7-1.2,3.3s-0.8,1.6-1.6,3.2c-0.8,1.6-0.9,1.5-1.6,3.1
		c-0.6,1-0.2,1.8,0.2,2.4c0.3,0.7,0.9,1.2,2,1.2h3.4c1.7,0,1.7-0.3,3.5-0.3c1.7,0,1.7,0.2,3.4,0.2c1.7,0,1.7,0.3,3.4,0.3
		c1.8,0,1.8-0.1,3.5-0.1c1.1,0,2-0.5,2.4-1.1C332,176.3,332,175.2,331.5,174.3"/>
	<path class="st0" d="M441.3,136.3c0,1.8,0.1,1.8,0.1,3.5v3.5c0,1.8-0.1,1.8-0.1,3.5c0,1.1-0.5,2.1-1.1,2.8
		c-0.8,0.7-1.7,1.4-2.8,1.4h-3.6c-1.8,0-1.8-0.2-3.6-0.2c-1.8,0-1.8,0.2-3.5,0.2c-1.8,0-1.8-0.1-3.6-0.1h-3.6
		c-1.8,0-1.8,0.1-3.6,0.1c-1,0-1.9,0.3-2.7,1c-0.7,0.7-1.1,1.6-1.1,2.7c0,1.8,0.1,1.8,0.1,3.5c0,1.8-0.1,1.8-0.1,3.5
		c0,1.8-0.1,1.8-0.1,3.6c0,1.7,0.2,1.7,0.2,3.5v3.5c0,1.8-0.1,1.8-0.1,3.5v3.5v3.5c0,1.8-0.1,1.8-0.1,3.6c0,1.7-0.1,1.7-0.1,3.5v3.5
		c0,1.8,0.2,1.8,0.2,3.5v3.5c0,1.8-0.2,1.8-0.2,3.5c0,1.8,0.1,1.8,0.1,3.6c0,1-0.5,2-1.1,2.7s-1.7,1.1-2.7,1.1
		c-1.8,0-1.8,0.2-3.5,0.2c-1.8,0-1.8-0.1-3.5-0.1c-1.8,0-1.8,0.1-3.5,0.1c-1.1,0-1.9-0.8-2.6-1.5c-0.8-0.7-1.2-1.6-1.2-2.6v-3.6
		c0-1.7-0.2-1.7-0.2-3.5s0.3-1.8,0.3-3.5c0-1.8-0.2-1.8-0.2-3.5c0-1.8-0.1-1.8-0.1-3.6c0-1.7,0.2-1.7,0.2-3.5c0-1.7,0.1-1.7,0.1-3.5
		c0-1.7-0.5-1.7-0.5-3.5s0.2-1.8,0.2-3.5c0-1.8,0.1-1.8,0.1-3.5c0-1.8-0.2-1.8-0.2-3.6c0-1.7,0.1-1.7,0.1-3.5v-3.5
		c0-1.7-0.2-1.7-0.2-3.5s0.5-1.8,0.5-3.5c0-1.1-0.6-2.1-1.4-2.8c-0.7-0.8-1.7-1-2.8-1c-1.8,0-1.8-0.3-3.6-0.3h-3.7
		c-1.8,0-1.8,0.3-3.6,0.3c-1.8,0-1.8,0.1-3.6,0.1c-1.8,0-1.8-0.1-3.7-0.1c-1.8,0-1.8,0.1-3.6,0.1c-1,0-2-0.7-2.8-1.4
		c-0.7-0.7-0.9-1.7-0.9-2.8c0-1.7-0.2-1.7-0.2-3.5c0-1.7-0.1-1.7-0.1-3.5c0-1.7,0.2-1.7,0.2-3.5c0-1,0.3-2,1.1-2.7
		c0.7-0.7,1.7-1.4,2.7-1.4c1.8,0,1.8,0.2,3.5,0.2c1.8,0,1.8-0.1,3.5-0.1s1.7,0.1,3.5,0.1c1.7,0,1.7-0.2,3.5-0.2
		c1.7,0,1.7,0.3,3.5,0.3c1.7,0,1.7-0.3,3.5-0.3h3.4c1.8,0,1.8,0.1,3.5,0.1h3.5c1.7,0,1.7,0.1,3.5,0.1h3.5h3.5c1.7,0,1.7-0.1,3.4-0.1
		c1.8,0,1.8-0.1,3.5-0.1c1.8,0,1.8,0.2,3.5,0.2s1.7-0.2,3.5-0.2c1.7,0,1.7,0.3,3.5,0.3c1.7,0,1.7-0.2,3.4-0.2c1.8,0,1.8-0.1,3.5-0.1
		c1.8,0,1.8,0.3,3.5,0.3c1.1,0,2.3,0.1,2.9,0.9C441,134.2,441.3,135.3,441.3,136.3"/>
	<path class="st0" d="M572.3,159.6c0.1,1.1,0.3,2.3,0.3,3.4c0,1.2,0,2.4-0.2,3.5c-0.1,1.2-0.5,2.3-0.8,3.4s-0.6,2.4-1,3.4
		c-0.5,1-0.9,2.1-1.6,3.2c-0.6,1-1.1,2-1.8,2.9c-0.8,0.9-1.6,1.8-2.4,2.6c-0.8,0.8-1.7,1.7-2.6,2.4c-0.8,0.8-1.9,1.2-2.9,1.9
		c-0.9,0.7-1.9,1.2-2.9,1.8c-1,0.5-2,1.1-3,1.6l-3.3,1.2c-1.1,0.3-2.3,0.7-3.4,1c-1.1,0.2-2.3,0.6-3.4,0.8c-1.1,0.2-2.3,0.2-3.5,0.3
		c-1.1,0.1-2.3,0.3-3.4,0.3c-1.2,0.1-2.4,0.3-3.5,0.3c-1.8,0-1.8-0.1-3.6-0.1s-1.8-0.2-3.5-0.2h-3.6c-1.8,0-1.8,0.5-3.6,0.5
		c-1,0-2.3,0-2.9,0.8c-0.7,0.7-0.8,1.8-0.8,2.9c0,1.6-0.2,1.6-0.2,3.3s-0.1,1.7-0.1,3.4s0.3,1.7,0.3,3.4c0,1-0.7,2-1.4,2.7
		s-1.7,1.4-2.7,1.4c-1.8,0-1.8-0.3-3.5-0.3c-1.8,0-1.8,0.3-3.5,0.3c-1.8,0-1.8-0.2-3.5-0.2c-1.1,0-2-0.5-2.8-1.1
		c-0.7-0.7-1.2-1.7-1.2-2.7c0-1.8,0.3-1.8,0.3-3.6v-3.5c0-1.8-0.1-1.8-0.1-3.6c0-1.7,0.1-1.7,0.1-3.5s-0.1-1.8-0.1-3.6
		c0-1.7-0.2-1.7-0.2-3.5v-3.5c0-1.8,0.2-1.8,0.2-3.6v-3.6c0-1.8-0.1-1.8-0.1-3.6c0-1.7-0.2-1.7-0.2-3.5s0.5-1.8,0.5-3.6
		c0-1.7-0.5-1.7-0.5-3.5s0.5-1.8,0.5-3.6c0-1.7-0.5-1.7-0.5-3.5s0.1-1.8,0.1-3.5c0-1.8-0.1-1.8-0.1-3.6s0.1-1.8,0.1-3.5
		c0-1.8,0.2-1.8,0.2-3.6v-3.6c0-1,0.5-1.8,1.2-2.6c0.7-0.7,1.5-1.1,2.6-1.1c1.7,0,1.7-0.2,3.4-0.2c1.6,0,1.6-0.1,3.3-0.1
		c1.7,0,1.7,0.3,3.4,0.3c1.7,0,1.7-0.1,3.4-0.1s1.7-0.1,3.4-0.1s1.7,0.3,3.4,0.3c1.6,0,1.6-0.2,3.3-0.2h3.4h3.4c1.1,0,2.3-0.1,3.4,0
		c1.2,0,2.4,0.2,3.4,0.2c1.2,0.1,2.3,0.5,3.4,0.6c1.1,0.2,2.4,0.1,3.5,0.3s2.1,0.5,3.3,0.8s2.1,0.9,3.2,1.2c1.1,0.3,2.3,0.6,3.3,1
		c1,0.5,1.9,1.2,2.9,1.8s1.9,1.2,2.8,1.8c1,0.7,2,1.1,2.9,1.8c0.9,0.8,1.7,1.6,2.4,2.4c0.8,0.9,1.7,1.7,2.4,2.6
		c0.7,0.9,1.2,1.8,1.8,2.8s1.2,1.9,1.7,3c0.3,1,0.5,2.3,0.7,3.3C571.8,157.5,572,158.5,572.3,159.6 M554.1,163c0-1.2,0-2.5-0.6-3.6
		c-0.5-1-1.2-2-2.1-2.9c-0.8-0.8-1.9-1.4-3-2c-1-0.6-2.1-0.9-3.4-1.4c-1.1-0.3-2.1-1-3.4-1.4c-1.1-0.2-2.5,0-3.7-0.2
		c-1.1-0.1-2.4-0.6-3.6-0.7c-1.2-0.1-2.5,0.3-3.7,0.3c-2,0-2-0.1-4-0.1s-2,0.1-4,0.1s-2-0.1-4.1-0.1c-1,0-2,0.3-2.8,1
		c-0.7,0.7-1.2,1.7-1.2,2.8c0,1.6-0.1,1.6-0.1,3.3s0.2,1.7,0.2,3.3c0,1.7,0.1,1.7,0.1,3.3c0,1.7,0.1,1.7,0.1,3.3
		c0,1.7-0.3,1.7-0.3,3.3c0,1.1,0.6,2.1,1.4,2.8c0.7,0.7,1.7,1,2.7,1c1.8,0,1.8,0.3,3.6,0.3s1.8-0.5,3.5-0.5c1.8,0,1.8,0.2,3.6,0.2
		s1.8,0.1,3.6,0.1c1.1,0,2.3-0.2,3.4-0.2c1.1-0.1,2.4,0,3.4-0.1l3.4-0.7c1.1-0.3,2.1-0.8,3.2-1.2c1.1-0.5,2.3-0.9,3.2-1.5
		c1-0.7,1.8-1.5,2.6-2.3c0.8-0.9,1.1-2,1.5-3.1C553.8,165.3,554.1,164.2,554.1,163"/>
	<path class="st0" d="M597.8,179v3.6c0,1.7,0.2,1.7,0.2,3.5s0.1,1.8,0.1,3.6c0,1.7-0.2,1.7-0.2,3.5s0.2,1.8,0.2,3.6v3.5
		c0,1.8-0.1,1.8-0.1,3.6s-0.2,1.8-0.2,3.5c0,1.1-0.2,2.3-0.9,2.9c-0.7,0.7-1.8,1-2.8,1c-1.8,0-1.8,0.2-3.5,0.2
		c-1.8,0-1.8-0.3-3.5-0.3c-1.8,0-1.8,0.1-3.5,0.1c-1.1,0-2-0.5-2.7-1.2s-1.5-1.6-1.5-2.7c0-1.7,0.5-1.7,0.5-3.5s-0.1-1.8-0.1-3.5
		c0-1.8,0.1-1.8,0.1-3.6s-0.1-1.8-0.1-3.5c0-1.8-0.3-1.8-0.3-3.6s0.1-1.8,0.1-3.5v-3.5c0-1.7-0.1-1.7-0.1-3.5s0.2-1.8,0.2-3.6
		c0-1.7,0.2-1.7,0.2-3.5s-0.2-1.8-0.2-3.6c0-1.7,0.1-1.7,0.1-3.5s-0.2-1.8-0.2-3.6s0.3-1.8,0.3-3.5c0-1.8-0.1-1.8-0.1-3.6v-3.6
		c0-1.8-0.3-1.8-0.3-3.6s0.2-1.8,0.2-3.5c0-1.8,0.2-1.8,0.2-3.6s-0.1-1.8-0.1-3.6c0-1,0.3-2,1-2.7c0.7-0.8,1.7-1.1,2.8-1.1
		c1.7,0,1.7-0.1,3.5-0.1h3.5h3.5c1,0,2.1,0.5,2.8,1.1c0.7,0.8,1.2,1.8,1.2,2.9v3.5v3.5v3.6c0,1.8-0.2,1.8-0.2,3.5
		c0,1.8-0.1,1.8-0.1,3.6s0.2,1.8,0.2,3.5c0,1.8-0.1,1.8-0.1,3.6v3.5c0,1.8,0.1,1.8,0.1,3.6c0,1.7-0.2,1.7-0.2,3.5s0.5,1.8,0.5,3.6
		C598.2,177.2,597.9,177.2,597.8,179"/>
	<path class="st0" d="M682.5,208.1c0,1-0.5,2-1.1,2.7c-0.7,0.8-1.7,1.2-2.8,1.2c-1.5,0-1.5,0.1-3,0.1s-1.5-0.1-2.9-0.1
		c-1.6,0-1.6,0.1-3,0.1h-3h-3h-2.9c-1.6,0-1.6-0.2-3-0.2c-1.5,0-1.5,0.1-2.9,0.1c-1.6,0-1.6,0.1-3,0.1c-1.5,0-1.5-0.1-3.1-0.1
		c-1.5,0-1.5,0.1-2.9,0.1c-1.6,0-1.6-0.3-3.1-0.3h-3c-1.5,0-1.5,0.3-2.9,0.3c-1.6,0-1.6-0.1-3-0.1c-1.5,0-1.5,0.1-3,0.1
		s-1.5-0.5-2.9-0.5c-1.6,0-1.6,0.3-3.1,0.3s-1.5,0.1-3.1,0.1c-1.5,0-1.5-0.3-2.9-0.3c-1.5,0-1.5,0.2-3.1,0.2c-1.5,0-1.5-0.1-2.9-0.1
		c-1.1,0-2-0.5-2.7-1.2s-1.1-1.6-1.1-2.6c0-1.5,0.1-1.5,0.1-2.8c0-1.5-0.1-1.5-0.1-2.8c0-1.5-0.1-1.5-0.1-2.8c0-1.1,0.3-2.4,0.8-3.6
		c0.5-1.2,0.9-2.6,1.7-3.4l2-2.3c1.1-1.1,1.4-0.9,2.4-2l2-2.3c1.1-1.1,1.1-1.1,2.1-2.3c1-1.1,0.9-1.2,1.9-2.4
		c1.1-1.1,1.1-1.1,2.1-2.3c1-1.1,1-1.2,2-2.4l2-2.3c1-1.1,1.1-1,2.3-2.1c1-1.1,0.9-1.2,1.9-2.4c1-1.1,1.1-1,2.1-2.1s1.1-1.1,2.1-2.3
		c1-1.1,0.9-1.2,1.9-2.4c1-1.1,1.2-1,2.3-2.1c1-1.1,1.1-1,2.1-2.1c1.1-1.1,1-1.1,2-2.3c1.1-1.1,1-1.2,2-2.4c0.7-0.8,0.7-1.5,0.5-1.9
		c-0.2-0.6-0.7-1-1.7-1c-1.6,0-1.6,0.1-3.2,0.1c-1.5,0-1.5,0.1-3,0.1s-1.5-0.1-3-0.1s-1.5-0.2-3-0.2s-1.5,0.1-3.1,0.1
		s-1.6-0.1-3-0.1h-3c-1.6,0-1.6,0.1-3,0.1c-1.6,0-1.6-0.1-3.1-0.1c-1.1,0-1.9-0.5-2.6-1.1c-0.8-0.8-1.5-1.6-1.5-2.6
		c0-1.8-0.1-1.8-0.1-3.5c0-1.8,0.5-1.8,0.5-3.5v-3.5c0-1.1,0.2-2,1-2.7c0.7-0.8,1.6-1,2.7-1c1.6,0,1.6-0.2,3.1-0.2
		c1.6,0,1.6-0.2,3.2-0.2c1.6,0,1.6,0.1,3.2,0.1c1.5,0,1.5,0.2,3,0.2h3.2h3c1.6,0,1.6-0.1,3.2-0.1c1.6,0,1.6-0.1,3-0.1
		c1.6,0,1.6,0.1,3.2,0.1c1.6,0,1.6,0.1,3.2,0.1c1.5,0,1.5-0.3,3-0.3c1.6,0,1.6,0.2,3.2,0.2c1.5,0,1.5-0.1,3-0.1h3.2
		c1.6,0,1.6,0.3,3,0.3c1.6,0,1.6-0.3,3.2-0.3c1.6,0,1.6,0.2,3,0.2h3.2c1,0,2.1,0.2,2.8,1c0.7,0.7,1.2,1.7,1.2,2.8
		c0,1.6-0.3,1.6-0.3,3.3s0.1,1.7,0.1,3.3c0,1.1-0.5,2.4-0.9,3.6c-0.5,1.2-0.9,2.5-1.7,3.3l-2,2.3c-1,1.1-1.1,1-2.1,2.1
		c-1.1,1.1-1,1.1-2,2.3c-1,1.1-0.9,1.2-1.9,2.4l-2,2.3c-1,1.1-1.1,1-2.3,2.1c-1,1.1-0.9,1.2-1.9,2.3l-2,2.3c-1,1.1-1.1,1-2.3,2.1
		c-1,1.1-0.8,1.2-1.8,2.4c-1,1.1-1.2,0.9-2.3,2c-1,1.1-0.9,1.4-1.9,2.5c-1,1-1,1-2,2.1s-1.2,1-2.3,2c-1,1.1-0.9,1.4-1.9,2.5
		c-1,1-0.9,1.1-2,2.3c-1,1.1-1.1,0.9-2.1,2s-0.9,1.2-1.9,2.4c-0.8,0.8-1.1,1.5-0.9,2c0.2,0.5,1,0.6,2,0.6c1.6,0,1.6,0.3,3.1,0.3
		c1.6,0,1.6,0.1,3,0.1h3c1.5,0,1.5-0.2,3-0.2s1.5-0.2,3-0.2s1.5,0.1,2.9,0.1c1.6,0,1.6,0.1,3,0.1c1.6,0,1.6-0.1,3.1-0.1
		s1.5,0.1,3,0.1s1.5-0.2,3-0.2h2.9c1.6,0,1.6,0.1,3,0.1c1.6,0,1.6,0.3,3,0.3c1.1,0,1.9,0.3,2.7,1c0.7,0.7,1,1.6,1,2.7v3.5
		c0,1.7,0.2,1.7,0.1,3.5C682.4,206.3,682.5,206.3,682.5,208.1"/>
	<path class="st0" d="M767.9,208.1c0,1-0.5,2-1.1,2.7c-0.7,0.8-1.7,1.2-2.8,1.2c-1.5,0-1.5,0.1-3,0.1s-1.5-0.1-2.9-0.1
		c-1.6,0-1.6,0.1-3.1,0.1h-3.1h-3.1h-2.9c-1.6,0-1.6-0.2-3-0.2c-1.5,0-1.5,0.1-2.9,0.1c-1.6,0-1.6,0.1-3,0.1c-1.5,0-1.5-0.1-3.1-0.1
		c-1.5,0-1.5,0.1-2.9,0.1c-1.6,0-1.6-0.3-3.1-0.3h-3c-1.5,0-1.5,0.3-2.9,0.3c-1.6,0-1.6-0.1-3-0.1s-1.5,0.1-3,0.1s-1.5-0.5-2.9-0.5
		c-1.6,0-1.6,0.3-3.1,0.3s-1.5,0.1-3.1,0.1c-1.5,0-1.5-0.3-2.9-0.3s-1.5,0.2-3,0.2s-1.5-0.1-2.9-0.1c-1.1,0-2-0.5-2.7-1.2
		s-1.1-1.6-1.1-2.6c0-1.5,0.1-1.5,0.1-2.8c0-1.5-0.1-1.5-0.1-2.8c0-1.5-0.1-1.5-0.1-2.8c0-1.1,0.3-2.4,0.8-3.6
		c0.5-1.2,0.9-2.6,1.7-3.4l2-2.3c1.1-1.1,1.4-0.9,2.4-2l2-2.3c1.1-1.1,1.1-1.1,2.1-2.3c1-1.1,0.9-1.2,1.9-2.4
		c1.1-1.1,1.1-1.1,2.1-2.3c1-1.1,1-1.2,2-2.4l2-2.3c1-1.1,1.1-1,2.3-2.1c1-1.1,0.9-1.2,1.9-2.4c1-1.1,1.1-1,2.1-2.1s1.1-1.1,2.1-2.3
		c1-1.1,0.9-1.2,1.9-2.4c1-1.1,1.2-1,2.3-2.1c1-1.1,1.1-1,2.1-2.1c1.1-1.1,1-1.1,2-2.3c1.1-1.1,1-1.2,2-2.4c0.7-0.8,0.7-1.5,0.5-1.9
		c-0.2-0.6-0.7-1-1.7-1c-1.6,0-1.6,0.1-3.2,0.1c-1.5,0-1.5,0.1-3,0.1s-1.5-0.1-3-0.1s-1.5-0.2-3-0.2s-1.5,0.1-3.1,0.1
		s-1.6-0.1-3-0.1h-3c-1.6,0-1.6,0.1-3,0.1c-1.6,0-1.6-0.1-3-0.1c-1.1,0-1.9-0.5-2.6-1.1c-0.8-0.8-1.5-1.6-1.5-2.6
		c0-1.8-0.1-1.8-0.1-3.5c0-1.8,0.5-1.8,0.5-3.5v-3.5c0-1.1,0.2-2,1-2.7c0.7-0.8,1.6-1,2.7-1c1.6,0,1.6-0.2,3-0.2
		c1.6,0,1.6-0.2,3.2-0.2c1.6,0,1.6,0.1,3.2,0.1c1.5,0,1.5,0.2,3,0.2h3.2h3c1.6,0,1.6-0.1,3.2-0.1c1.6,0,1.6-0.1,3-0.1
		c1.6,0,1.6,0.1,3.2,0.1s1.6,0.1,3.2,0.1c1.5,0,1.5-0.3,3-0.3c1.6,0,1.6,0.2,3.2,0.2c1.5,0,1.5-0.1,3-0.1h3.2c1.6,0,1.6,0.3,3.1,0.3
		c1.6,0,1.6-0.3,3.2-0.3c1.6,0,1.6,0.2,3,0.2h3.2c1,0,2.1,0.2,2.8,1c0.7,0.7,1.2,1.7,1.2,2.8c0,1.6-0.3,1.6-0.3,3.3s0.1,1.7,0.1,3.3
		c0,1.1-0.5,2.4-0.9,3.6c-0.5,1.2-0.9,2.5-1.7,3.3l-2,2.3c-1,1.1-1.1,1-2.1,2.1c-1.1,1.1-1,1.1-2,2.3c-1,1.1-0.9,1.2-1.9,2.4l-2,2.3
		c-1,1.1-1.1,1-2.3,2.1c-1,1.1-0.9,1.2-1.9,2.3l-2,2.3c-1,1.1-1.1,1-2.3,2.1c-1,1.1-0.8,1.2-1.8,2.4c-1,1.1-1.2,0.9-2.3,2
		c-1,1.1-0.9,1.4-1.9,2.5c-1,1-1,1-2,2.1s-1.2,1-2.3,2c-1,1.1-0.9,1.4-1.9,2.5c-1,1-0.9,1.1-2,2.3c-1,1.1-1.1,0.9-2.1,2
		s-0.9,1.2-1.9,2.4c-0.8,0.8-1.1,1.5-0.9,2c0.2,0.5,1,0.6,2,0.6c1.6,0,1.6,0.3,3.1,0.3c1.6,0,1.6,0.1,3,0.1h3c1.5,0,1.5-0.2,3-0.2
		s1.5-0.2,3-0.2s1.5,0.1,2.9,0.1c1.6,0,1.6,0.1,3,0.1c1.6,0,1.6-0.1,3.1-0.1s1.5,0.1,3.1,0.1c1.5,0,1.5-0.2,3.1-0.2h2.9
		c1.6,0,1.6,0.1,3.1,0.1c1.6,0,1.6,0.3,3,0.3c1.1,0,1.9,0.3,2.7,1c0.7,0.7,1,1.6,1,2.7v3.5c0,1.7,0.2,1.7,0.1,3.5
		C767.8,206.3,767.9,206.3,767.9,208.1"/>
	<path class="st0" d="M873.3,207.6c0.5,1,0.1,2-0.2,2.6c-0.5,0.7-1.1,1.2-2.3,1.2h-3.2h-3.1c-1.6,0-1.6,0.1-3.2,0.1
		c-1.6,0-1.6-0.5-3-0.5c-1.1,0-2.1-0.3-3.2-1c-1-0.7-2.3-1.2-2.7-2.1c-0.7-1.4-0.6-1.5-1.1-2.8c-0.7-1.4-0.8-1.2-1.4-2.6
		c-0.7-1.4-0.2-1.5-0.9-2.8c-0.5-1-1.6-1.7-2.6-2.4c-1-0.6-2.1-0.9-3.3-0.9c-1.6,0-1.6-0.3-3.2-0.3c-1.6,0-1.6,0.2-3.2,0.2
		c-1.6,0-1.6-0.1-3.2-0.1c-1.6,0-1.6-0.1-3.2-0.1h-3.2c-1.6,0-1.6-0.1-3.2-0.1c-1.6,0-1.6,0.2-3.2,0.2h-3.2h-3.2
		c-1.6,0-1.6,0.3-3.2,0.3h-3.2c-1.1,0-2.4,0-3.4,0.7c-1,0.6-1.9,1.6-2.4,2.5c-0.7,1.4-0.7,1.4-1.2,2.7c-0.7,1.4-0.6,1.4-1.1,2.7
		c-0.7,1.4-0.8,1.4-1.4,2.7c-0.6,0.9-1.4,1.9-2.4,2.6c-1,0.7-2.3,1-3.4,1c-1.5,0-1.5-0.1-3.1-0.1s-1.6,0.2-3.2,0.2
		c-1.6,0-1.6-0.1-3.2-0.1c-1.6,0-1.6-0.2-3.1-0.2c-1.1,0-2.1-0.2-2.5-0.8c-0.5-0.7-0.2-1.7,0.2-2.6c0.7-1.5,0.9-1.4,1.6-2.8l1.4-2.9
		c0.7-1.5,0.6-1.5,1.2-2.9c0.7-1.5,0.5-1.6,1.1-2.9c0.7-1.5,1-1.4,1.7-2.8l1.4-2.8c0.7-1.5,0.5-1.6,1.1-3.1c0.7-1.5,0.8-1.4,1.6-2.8
		c0.7-1.4,0.9-1.2,1.7-2.7c0.7-1.5,0.6-1.5,1.2-2.9c0.7-1.4,0.8-1.4,1.5-2.8s0.7-1.4,1.5-2.8c0.7-1.5,0.5-1.6,1.1-2.9
		c0.8-1.5,0.9-1.4,1.6-2.8c0.8-1.5,0.8-1.4,1.5-2.8c0.7-1.5,0.3-1.6,1-3.1c0.8-1.5,0.7-1.5,1.4-2.9c0.7-1.5,1.1-1.2,1.8-2.6l1.4-2.9
		c0.7-1.5,0.6-1.5,1.2-2.9c0.7-1.5,0.5-1.6,1.1-3c0.7-1.4,1.1-1.1,1.8-2.6s0.3-1.6,1-3l1.6-2.8c0.7-1.5,0.8-1.4,1.5-2.8
		c0.5-1,1.2-2,2.3-2.6c0.6-0.5,1.2-0.7,1.9-0.9c1-0.3,2.1-0.2,2.4-0.2c0.9,0,1.2,0.1,2.6,0.1c1.8,0,1.8-0.1,3.5-0.1h3.5h2.1h1.5
		c0.2,0,0.8-0.1,1.1,0.2c0.7,0.2,1.5,0.7,2,1.1c1,0.6,1.8,1.5,2.3,2.5l1.4,3c0.8,1.5,1,1.4,1.7,2.8c0.8,1.5,0.9,1.5,1.7,2.9
		c0.7,1.5,0.6,1.6,1.2,3c0.7,1.5,0.6,1.6,1.4,3c0.7,1.5,0.9,1.4,1.6,2.8c0.7,1.6,0.6,1.6,1.2,3.2c0.8,1.5,1,1.4,1.7,2.8l1.4,3
		c0.8,1.5,0.7,1.5,1.4,3s0.5,1.6,1.1,3c0.7,1.6,0.7,1.6,1.5,3.1l1.4,2.9c0.8,1.6,0.7,1.6,1.5,3c0.7,1.5,0.8,1.4,1.6,2.9
		c0.7,1.5,0.8,1.5,1.5,2.9c0.7,1.5,0.8,1.5,1.5,2.9c0.7,1.5,0.8,1.5,1.5,2.9c0.8,1.6,0.8,1.5,1.5,2.9c0.8,1.6,0.7,1.6,1.4,3.1
		c0.7,1.6,0.8,1.5,1.6,2.9c0.7,1.6,0.7,1.5,1.5,3c0.7,1.5,0.6,1.5,1.4,2.9C872.5,206.3,872.5,206.2,873.3,207.6 M836.9,174.3
		c-0.7-1.6-0.9-1.6-1.7-3.2c-0.7-1.6-0.6-1.6-1.2-3.2c-0.8-1.6-0.7-1.7-1.5-3.3s-1.1-1.4-1.9-2.9c-0.7-1.6-0.8-1.6-1.6-3.2
		c-0.7-1.6-0.2-1.7-1-3.3c-0.9-2-2.9-2-3.8,0c-0.8,1.6-0.7,1.6-1.5,3.2c-0.7,1.6-0.5,1.8-1.2,3.4c-0.7,1.6-1.1,1.4-1.9,2.9
		c-0.8,1.6-0.5,1.7-1.2,3.3s-0.8,1.6-1.6,3.2c-0.8,1.6-0.9,1.5-1.6,3.1c-0.6,1-0.2,1.8,0.2,2.4c0.3,0.7,0.9,1.2,2,1.2h3.4
		c1.7,0,1.7-0.3,3.5-0.3c1.7,0,1.7,0.2,3.4,0.2s1.7,0.3,3.4,0.3c1.8,0,1.8-0.1,3.5-0.1c1.1,0,2-0.5,2.4-1.1
		C837.4,176.3,837.4,175.2,836.9,174.3"/>
	<path class="st0" d="M213.7,19.8c0.6,0.4,1.1,1,1.2,1.8c0.1,0.8-0.1,1.5-0.4,2.1c-0.4,0.6-1.1,1-1.8,1.2l-2.2,0.4
		c-1.1,0.2-1.1,0-2.3,0.2c-1.1,0.2-1.1,0.4-2.2,0.5c-0.7,0.1-1.2,0.5-1.6,1c-0.4,0.5-0.7,1.2-0.6,1.9c0.2,1.2,0.2,1.2,0.4,2.3
		c0.2,1.2,0.2,1.2,0.4,2.3s0.1,1.2,0.3,2.3s0.4,1.1,0.6,2.3c0.2,1.2,0.2,1.2,0.4,2.4l0.4,2.3l0.4,2.3c0.2,1.1,0.2,1.1,0.4,2.3
		c0.1,0.8-0.1,1.4-0.5,2s-1,1-1.8,1.1s-1.4-0.1-2-0.5s-1.1-1-1.2-1.7c-0.2-1.2-0.1-1.2-0.3-2.4s-0.1-1.2-0.3-2.4s-0.2-1.2-0.4-2.4
		s-0.3-1.2-0.5-2.3c-0.2-1.2-0.1-1.2-0.4-2.4c-0.2-1.2-0.2-1.2-0.4-2.3l-0.4-2.4c-0.2-1.2-0.2-1.2-0.4-2.4c-0.2-1.2-1.4-1.9-2.6-1.7
		c-1.1,0.2-1.2,0.1-2.3,0.3c-1.2,0.2-1.2,0.1-2.4,0.3s-1.1,0.4-2.3,0.6c-0.8,0.1-1.6,0-2.1-0.4c-0.6-0.4-1-1.1-1.2-1.8
		c-0.1-0.7,0.2-1.4,0.6-2c0.4-0.6,1-1.1,1.8-1.2c1.2-0.2,1.2-0.2,2.3-0.4c1.2-0.2,1.2-0.1,2.4-0.3c1.2-0.2,1.2-0.3,2.4-0.5
		s1.2-0.2,2.3-0.4c1.2-0.2,1.2-0.2,2.4-0.5c1.2-0.2,1.2,0,2.4-0.2s1.2-0.3,2.4-0.5s1.2-0.3,2.3-0.5c1.2-0.2,1.2-0.2,2.4-0.4
		c1.2-0.2,1.2,0,2.4-0.2C212.4,19.2,213.1,19.4,213.7,19.8"/>
	<path class="st0" d="M252.5,14.2c0.5,0.4,0.9,0.9,1.1,1.7c0,0,0.2,0.9,0.4,2.4c0.1,0.7,0.2,1.5,0.3,2.4l0.3,2.4
		c0.1,0.8,0.3,1.6,0.4,2.4c0.1,0.8,0.1,1.6,0.3,2.4c0.1,0.8,0.3,1.6,0.4,2.4c0.1,0.8,0.1,1.6,0.3,2.4c0.1,0.8,0.3,1.6,0.4,2.4
		c0.1,0.9,0.3,1.7,0.4,2.4c0.2,1.5,0.1,1.2,0.3,2.4c0.1,0.8-0.1,1.5-0.5,2c-0.4,0.6-1.1,1-1.8,1.1c-0.8,0.1-1.5-0.1-2.1-0.5
		s-0.9-1.1-1-1.9c-0.2-1-0.1-1.1-0.2-2.1c-0.2-1-0.3-1-0.5-2.1c-0.2-1,0.1-1.1-0.1-2.1c-0.1-0.6-0.5-1.1-1-1.5s-1.1-0.6-1.7-0.5
		c-1.2,0.2-1.2,0.1-2.4,0.3s-1.1,0.4-2.4,0.5l-2.4,0.4c-1.2,0.2-1.2,0.2-2.4,0.4s-1.2,0.1-2.4,0.3s-1.2,0.1-2.4,0.3
		c-1.1,0.2-1.8,1.2-1.7,2.4l0.3,2.1c0.2,1.1,0,1.1,0.2,2.2c0.2,1.1,0.2,1.1,0.4,2.2c0.1,0.8-0.1,1.5-0.5,2c-0.4,0.6-1.1,0.8-1.9,0.9
		c-0.7,0.1-1.4,0.1-2-0.3c-0.5-0.4-1-1-1.1-1.8c0,0,0-0.9-0.2-2.4c-0.1-0.7-0.2-1.5-0.3-2.4c-0.1-0.7-0.3-1.5-0.4-2.3l-0.4-2.4
		c-0.1-0.8-0.3-1.6-0.4-2.4c-0.1-0.8-0.1-1.6-0.2-2.4c-0.1-0.8-0.5-1.6-0.6-2.4s-0.1-1.6-0.2-2.4c-0.1-0.9-0.3-1.7-0.4-2.3
		c-0.2-1.5,0-1.2-0.1-2.4c-0.1-0.8,0-1.5,0.4-2c0.4-0.6,1.1-1,1.8-1.1s1.5,0.1,2.1,0.4c0.5,0.4,1,1,1.1,1.9c0,0,0.1,1.2,0.3,2.6
		c0.1,0.8,0.3,1.7,0.4,2.6c0.2,1.4,0.1,1.3,0.3,2.6c0,0.1,0,0.1,0,0.3c0.1,1,1.1,1.7,2.1,1.5c1.2-0.2,1.2,0,2.4-0.2s1.2-0.2,2.3-0.4
		l2.4-0.4c1.2-0.2,1.2-0.2,2.4-0.4c1.2-0.2,1.2-0.2,2.3-0.4c1.2-0.2,1.2-0.2,2.4-0.4c0.7-0.1,1.2-0.4,1.6-1c0.4-0.5,0.5-1.2,0.4-1.9
		l-0.4-2.5c-0.2-1.2-0.1-1.2-0.3-2.5c-0.2-1.2-0.1-1.2-0.3-2.4c-0.1-0.8,0-1.5,0.5-2c0.4-0.6,1.1-1,1.8-1.1
		C251.2,13.6,251.9,13.8,252.5,14.2"/>
	<path class="st0" d="M294.5,33.1c0.5,0.6,0.9,1.2,0.9,1.8c0.1,0.7-0.1,1.5-0.6,2c-0.4,0.5-1.1,0.7-1.8,0.8c0,0,0,0-0.1,0
		c-0.7,0.1-1.3,0.4-2,0.4c-0.7,0.1-1.4,0-2,0.1c-0.7,0.1-1.4,0.3-2,0.4c-0.7,0.1-1.4,0.1-2,0.1c-0.7,0.1-1.5,0.1-2.2,0.2
		c-0.7,0.1-1.4,0.4-2.1,0.5s-1.5,0-2.2,0.1s-1.4,0.3-2.2,0.4c-0.7,0.1-1.5,0-2.2,0.1s-1.5,0.2-2.2,0.3c-0.8,0.1-1.7,0.3-2.5,0.2
		c-0.6-0.1-1.1-0.3-1.6-0.8c-0.4-0.4-0.8-0.9-0.9-1.6c0,0-0.2-0.9-0.3-2.4c-0.1-0.7,0-1.5-0.1-2.4c-0.1-0.8-0.2-1.6-0.3-2.4
		c-0.1-0.8-0.3-1.6-0.4-2.4s-0.2-1.6-0.3-2.4c-0.1-0.8-0.3-1.6-0.4-2.4s0-1.6-0.1-2.4s-0.4-1.6-0.4-2.3c-0.1-0.9-0.1-1.7-0.2-2.4
		c-0.2-1.5-0.2-1.2-0.3-2.4c-0.1-0.7,0.3-1.4,0.7-1.9c0.5-0.7,1.1-0.9,2-1.1c0.7-0.1,1.3-0.2,2-0.3s1.3-0.3,2-0.3
		c0.7-0.1,1.3-0.1,2-0.2c0.7-0.1,1.5-0.1,2.2-0.2c0.7-0.1,1.5-0.2,2.2-0.3s1.5,0,2.3-0.1c0.7-0.1,1.4-0.4,2.2-0.5
		c0.8-0.1,1.5-0.1,2.2-0.2c0.7-0.1,1.3-0.1,2-0.2c0.7-0.1,1.3-0.2,2-0.3s1.3-0.1,2-0.2c0.7-0.1,1.4,0.2,2,0.6c0.5,0.4,0.9,1,1,1.7
		c0.1,0.6,0,1.3-0.4,2c-0.3,0.6-0.9,0.9-1.5,1c-1.1,0.1-1.1,0.2-2.2,0.3s-1.1,0-2.2,0.2c-1.1,0.1-1.1,0.3-2.2,0.4
		c-1.1,0.1-1.1,0.1-2.2,0.2c-1.1,0.1-1.1,0.1-2.2,0.2c-1.1,0.1-1.1,0-2.2,0.2c-1.1,0.1-1.1,0.3-2.2,0.4s-1.1,0-2.2,0.1
		c-1,0.1-1.7,0.7-2.3,1.4c-0.5,0.7-0.9,1.6-0.8,2.6c0.1,0.4,0,0.5,0.1,0.9c0.1,0.8,0.5,1.5,1.1,2c0.6,0.4,1.4,0.7,2.2,0.6l2.1-0.3
		c1.1-0.1,1.1-0.2,2.1-0.3c1.1-0.1,1.1-0.1,2.1-0.2c0.7-0.1,1.5,0,2,0.4s0.9,1.1,1.1,1.8c0.1,0.6-0.2,1.3-0.5,2
		c-0.3,0.6-0.8,1.1-1.5,1.2c-1.2,0.1-1.1-0.1-2.4,0.1l-2.4,0.3c-1.3,0.2-2.4,0.5-2.4,0.5c-0.8,0.1-1.4,0.4-1.8,0.9
		c-0.4,0.6-0.4,1.3-0.4,2.1c0.1,0.7,0.2,1.4,0.7,2c0.6,0.6,1.4,0.9,2.2,0.8c0,0,0.9-0.2,2.3-0.4c0.7-0.1,1.5,0,2.3-0.1
		c0.7-0.1,1.4-0.4,2.2-0.5c0.8-0.1,1.5-0.1,2.3-0.2c0.8-0.1,1.6,0,2.3-0.1c0.8-0.1,1.6-0.3,2.3-0.4l2.3-0.3c1.4-0.2,1.2-0.1,2.3-0.2
		C293.5,32.4,294.1,32.6,294.5,33.1"/>
	<path class="st0" d="M353.2,3.7c0.5,0.5,1,1.1,1,1.9c0.1,0.8-0.2,1.5-0.7,2s-1.2,0.9-1.9,1l-2.2,0.2c-1.1,0.1-1.1-0.1-2.3,0
		C346,8.9,346,9,344.9,9.1c-0.7,0.1-1.3,0.4-1.7,0.8c-0.4,0.5-0.8,1.1-0.8,1.8c0.1,1.2,0.1,1.2,0.2,2.3c0.1,1.2,0.1,1.2,0.2,2.4
		s0,1.2,0.1,2.3c0.1,1.2,0.2,1.2,0.3,2.3c0.1,1.2,0.1,1.2,0.1,2.4l0.2,2.3c0.1,1.2,0.1,1.2,0.2,2.4c0.1,1.2,0.1,1.2,0.1,2.3
		c0.1,0.8-0.2,1.4-0.7,2c-0.5,0.5-1.1,0.9-1.9,0.9c-0.8,0.1-1.4-0.2-1.9-0.7s-1-1.1-1.1-1.8c-0.1-1.2,0-1.2-0.1-2.4
		c-0.1-1.2,0-1.2-0.1-2.4c-0.1-1.2-0.1-1.2-0.2-2.4c-0.1-1.2-0.2-1.2-0.3-2.4c-0.1-1.2,0-1.2-0.1-2.4c-0.1-1.2-0.1-1.2-0.1-2.4
		l-0.2-2.4c-0.1-1.2-0.1-1.2-0.1-2.4c-0.1-1.2-1.2-2-2.4-1.9c-1.2,0.1-1.2,0-2.3,0.1c-1.2,0.1-1.2,0-2.4,0.1
		c-1.2,0.1-1.2,0.2-2.3,0.3c-0.8,0.1-1.6-0.1-2.1-0.6c-0.5-0.4-0.9-1.2-1-2c-0.1-0.7,0.4-1.4,0.8-2c0.5-0.5,1.1-1,1.9-1
		c1.2-0.1,1.2-0.1,2.4-0.2c1.2-0.1,1.2,0,2.4-0.1c1.2-0.1,1.2-0.2,2.4-0.3c1.2-0.1,1.2-0.1,2.4-0.1c1.2-0.1,1.2-0.1,2.4-0.2
		c1.2-0.1,1.2,0.1,2.4,0c1.2-0.1,1.2-0.2,2.4-0.2c1.2-0.1,1.2-0.2,2.4-0.3c1.2-0.1,1.2-0.1,2.4-0.2c1.2-0.1,1.2,0.1,2.4,0
		C351.9,3,352.6,3.2,353.2,3.7"/>
	<path class="st0" d="M394.1,28.3c-0.1,0.7-0.5,1.2-1.1,1.7c-0.4,0.3-0.9,0.4-1.4,0.5c-0.9,0-1.9-0.2-2.4-1c-0.7-1-0.6-0.8-1.4-2
		c-0.4-0.6-0.9-1.3-1.4-2s-0.9-1.3-1.3-2c-0.5-0.7-0.8-1.5-1.2-2.1c-0.4-0.6-0.9-1.1-1.3-1.3c-0.9-0.6-0.9-0.5-1.8-0.4
		c-1.1,0.1-1.1,0-2.3,0c-1.1,0-1.1,0.1-2.3,0.1c-1.1,0.1-1.1,0.1-2.2,0.1c-1.1,0.1-1.1-0.1-2.3,0c-1.2,0.1-2.1,1.2-2,2.4
		c0.1,1.1-0.1,1.1-0.1,2.2l0.1,2.2c0.1,1.1,0.2,1.1,0.3,2.1c0,0.7-0.3,1.4-0.7,1.9c-0.5,0.5-1.1,1-1.8,1.1c-0.8,0.1-1.5-0.3-2.1-0.8
		s-0.9-1.2-0.9-2c-0.1-1.2,0-1.2,0-2.4c-0.1-1.2-0.2-1.2-0.2-2.4c-0.1-1.2,0-1.2,0-2.4c-0.1-1.2-0.2-1.2-0.2-2.4
		c-0.1-1.2,0.1-1.2,0-2.4c-0.1-1.2-0.1-1.2-0.1-2.4c-0.1-1.2-0.2-1.2-0.2-2.4c-0.1-1.2-0.1-1.2-0.1-2.4c-0.1-1.2,0-1.2,0-2.4
		L363.6,5c0-0.6,0.1-1.2,0.5-1.7c0.3-0.4,0.6-0.6,1.1-0.8c0.5-0.2,1-0.3,1.5-0.3c0.7,0,1.4-0.1,2.1-0.2c0.7,0,1.4,0,2.1,0
		c0.8,0,1.5-0.2,2.3-0.2c0.7,0,1.5,0,2.3,0s1.5,0,2.3,0c0.7,0,1.4-0.1,2.2-0.2c0.7,0,1.4-0.2,2.1-0.2s1.5,0.1,2.2,0.2
		c0.7,0.1,1.5,0.1,2.2,0.2c0.7,0.2,1.3,0.4,1.9,0.7s1.3,0.6,1.8,0.9c0.6,0.5,1.1,1.1,1.6,1.7s0.8,1.3,1.1,2c0.3,0.7,0.6,1.4,0.7,2.2
		s0.2,1.6,0.1,2.4c-0.1,0.8-0.3,1.6-0.6,2.3c-0.3,0.7-0.9,1.3-1.4,1.9c-0.6,0.7-1.3,1.3-2.1,1.8c-0.6,0.4-0.8,1.3-0.4,1.8
		c0.6,0.9,0.7,0.8,1.3,1.6c0.6,0.8,0.5,0.9,1.1,1.8c0.6,0.8,0.6,0.8,1.2,1.7c0.6,0.9,0.7,0.8,1.3,1.7
		C394.2,26.8,394.2,27.6,394.1,28.3 M369.2,10.9c0,0.7,0.3,1.3,0.7,1.8c0.3,0.5,0.8,1.1,1.4,1.4c0.6,0.3,1.2,0.5,1.9,0.5
		c1.1,0,1.1-0.1,2.2-0.1c1.1-0.1,1.1-0.1,2.2-0.2c1.1,0,1.1,0.1,2.2,0s1.1-0.1,2.1-0.2c0.7,0,1.3-0.1,2-0.2c0.7-0.1,1.3-0.4,1.8-0.6
		c0.7-0.3,1.3-0.5,1.7-0.9c0.8-0.9,0.7-2.1,0.7-2.5c-0.1-0.5-0.4-1.4-1.3-2c-0.6-0.5-1.3-0.6-2.1-0.7C384,7.1,383.3,7,382.5,7
		c-0.7,0-1.5-0.1-2.2-0.1s-1.4,0-2,0.1c-0.7,0-1.4,0-2,0.1c-0.7,0-1.3,0.2-2,0.3c-0.7,0-1.4-0.1-2-0.1c-0.8,0-1.6,0.5-2.1,1.1
		c-0.5,0.5-0.7,1.4-0.7,2.2C369.2,10.7,369.2,10.7,369.2,10.9"/>
	<path class="st0" d="M432.4,27.6c-0.2,0.7-0.7,1.3-1.4,1.7c-0.4,0.2-0.8,0.2-1.2,0.2c-1,0-1.9-0.5-2.4-1.5l-1.1-2.1
		c-0.4-0.8-1-1-2.3-1.1c-1.1-0.1-1.1,0.1-2.1,0.1c-1.1,0-1.1-0.1-2.2-0.1h-2.2c-1.1,0-1.1,0.1-2.2,0.1s-1.1,0-2.1,0
		c-1.1,0-1.1-0.3-2.2,0c-1.1,0.4-1.1,0.6-1.9,1.5s-0.5,1-1,2c-0.5,0.9-1.5,1.5-2.5,1.6c-0.4,0-0.8-0.2-1.2-0.4
		c-0.7-0.3-1.3-0.8-1.5-1.4s-0.2-1.5,0.1-2.2l1-2c0.5-1,0.5-1,1-2s0.6-1,1.1-2s0.5-1,0.9-2c0.5-1,0.5-1,1-2s0.6-1,1.1-2s0.5-1,0.9-2
		c0.5-1,0.4-1,0.9-2s0.5-1,1-2s0.5-1,1-2s0.4-1,0.9-2.1c0.5-1,0.5-1,0.9-2c0.4-0.7,1.1-1.3,1.8-1.5c0.6-0.2,1.3-0.2,1.9,0.1
		c0.6,0.2,1.1,0.7,1.4,1.3s0.6,1.3,0.9,2c0.3,0.6,0.8,1.2,1.1,1.9c0.3,0.6,0.5,1.3,0.9,2c0.3,0.6,0.8,1.2,1.1,1.8
		c0.4,0.7,0.7,1.4,1,2c0.4,0.7,0.7,1.3,1,2c0.4,0.7,0.8,1.3,1.1,2l1,2c0.4,0.7,0.5,1.4,0.8,2.1c0.4,0.7,0.9,1.2,1.3,1.9
		c0.3,0.7,0.5,1.4,0.9,2.1c0.3,0.7,0.7,1.3,1.1,2C432.4,26.2,432.6,26.9,432.4,27.6 M416.2,19.3h2.4c1.2,0,1.2,0,2.4,0
		c0.8,0,1.4-0.8,1-1.6c-0.2-0.3-0.3-0.3-0.4-0.5c-0.6-1.1-0.4-1.1-1-2.3c-0.6-1.1-0.7-1-1.3-2.1c-0.6-1.1-0.3-1.3-1.1-2.2
		c-0.5-0.6-1.1-0.6-1.4,0c-0.1,0.2,0,0.2-0.1,0.4c-0.5,1.1-0.5,1.1-1.1,2.2c-0.5,1.1-0.8,1-1.3,2.2c-0.6,1.1-0.3,1.2-0.9,2.4
		c-0.2,0.3-0.3,0.2-0.5,0.6c-0.3,0.6,0.2,1.2,0.8,1.2C414.9,19.5,414.9,19.4,416.2,19.3"/>
	<path class="st0" d="M470.6,15.3c0,0.6,0.1,1.2,0,1.8c-0.1,0.7-0.3,1.4-0.5,2.1s-0.5,1.3-0.9,2c-0.3,0.7-0.8,1.3-1.2,2
		c-0.5,0.6-1,1.2-1.6,1.8c-0.6,0.5-1.2,1.1-1.9,1.5c-0.6,0.4-1.4,0.9-2.1,1.2c-0.1,0.1-0.2,0.1-0.3,0.2c-0.7,0.3-1.5,0.5-2.3,0.7
		c-0.7,0.2-1.5,0.4-2.3,0.6s-1.5,0.4-2.3,0.4c-0.8,0.1-1.7,0.1-2.5,0.1s-1.6,0-2.5,0c-0.8,0-1.7-0.1-2.5-0.1c-1,0-2-0.1-3-0.1
		c-0.9,0-1.8,0.1-2.6-0.5c-0.7-0.5-1.1-1.3-1-2.2c0,0,0.1-0.9,0.1-2.4c0-0.7-0.1-1.5,0-2.4c0-0.7-0.1-1.5-0.1-2.4
		c0-0.8,0.1-1.6,0.1-2.4v-2.4c0-0.8,0-1.6,0-2.4c0-0.8-0.1-1.6,0-2.4c0-0.8,0.2-1.6,0.2-2.4c0-0.9-0.1-1.7,0-2.4c0-1.5,0-2.4,0-2.4
		c0-0.9,0.5-1.6,1.2-2.1c0.9-0.6,1.9-0.7,3-0.7c0.8,0,1.7,0,2.5,0s1.7,0.2,2.5,0.2s1.7,0,2.5,0.1c0.8,0,1.6,0.1,2.4,0.2
		s1.7,0.2,2.5,0.4s1.6,0.5,2.3,0.8c0.8,0.3,1.5,0.7,2.2,1c0.7,0.4,1.4,0.8,2.1,1.3s1.3,1,1.9,1.6s1.2,1.2,1.6,1.8
		c0.5,0.7,0.8,1.5,1.1,2.2c0.2,0.4,0.5,1.1,0.7,2c0.2,0.6,0.3,1.3,0.5,2.1C470.6,14.1,470.6,14.7,470.6,15.3 M465.1,16.6
		c0.1-0.8,0-1.6-0.1-2.4c-0.2-1.3-0.5-2.3-0.7-2.7c-0.3-0.6-0.6-1.4-1.1-1.9c-0.5-0.6-1.1-1-1.7-1.5s-1.3-0.7-2-1.1
		c-0.6-0.4-1.3-0.7-2.1-0.9c-0.7-0.2-1.4-0.4-2.1-0.5s-1.5-0.2-2.2-0.2c-1.5,0-1.5,0-3.1,0c-0.9,0-1.7,0.1-2.3,0.7
		c-0.6,0.5-0.9,1.4-0.9,2.3c0,1.2,0,1.2,0,2.3c0,1.2-0.1,1.2-0.1,2.3c0,1.2,0.2,1.2,0.2,2.4s0,1.2,0,2.3c0,1.2-0.2,1.2-0.2,2.3
		c0,0.7,0.2,1.4,0.5,1.9c0.4,0.6,0.8,1.1,1.4,1.5c0.5,0.3,1.2,0.4,1.9,0.4c1.2,0,1.2,0,2.5,0h0.2l0,0c0.8,0,1.6-0.1,2.4-0.1
		c0.8-0.1,1.6-0.3,2.4-0.6c0.8-0.2,1.6-0.4,2.3-0.7c1-0.5,1.8-1,2.4-1.5c1-0.8,1.5-1.6,1.8-2.2C464.7,18.1,465,17.4,465.1,16.6"/>
	<path class="st0" d="M485.9,1.4c0.5,0.5,0.8,1.1,0.8,1.9c0,1.2,0,1.2,0,2.4s-0.2,1.2-0.2,2.4s0.1,1.2,0.1,2.4
		c-0.1,1.2-0.1,1.2-0.1,2.4s-0.2,1.2-0.2,2.4s0.1,1.2,0,2.4c0,1.2,0,1.2,0,2.4c0,1.2-0.2,1.2-0.2,2.4c0,1.2,0,1.2,0,2.4
		c0,1.2,0,1.2,0,2.4c0,0.7-0.4,1.4-0.9,1.9s-1.2,0.9-1.9,0.9c-0.8,0-1.4-0.5-1.9-1s-0.9-1.2-0.9-1.9c0-1.2,0.2-1.2,0.2-2.4l0.1-2.4
		c0-1.2,0.1-1.2,0.1-2.4c0-1.2-0.1-1.2-0.1-2.4c0-1.2,0.1-1.2,0.1-2.4s0.1-1.2,0.1-2.4s0-1.2,0-2.4s-0.1-1.2,0-2.4
		c0-1.2,0.2-1.2,0.3-2.4c0-1.2-0.1-1.2-0.1-2.4c0-0.7,0.4-1.4,0.9-1.9s1.2-0.7,2-0.7C484.8,0.5,485.4,0.9,485.9,1.4"/>
	<path class="st0" d="M526.1,3c0.5,0.5,0.8,1.2,0.7,2c0,0.8-0.4,1.5-0.9,2s-1.3,0.8-2,0.7l-2.2-0.1c-1.1-0.1-1.1-0.2-2.2-0.3
		c-1.1-0.1-1.1,0.1-2.3,0.1c-0.7,0-1.3,0.2-1.8,0.6c-0.5,0.4-1,1-1,1.7c-0.1,1.2,0,1.2-0.1,2.3c-0.1,1.2,0,1.2-0.1,2.4
		s-0.1,1.2-0.2,2.3c-0.1,1.2,0.1,1.2,0,2.4c-0.1,1.2-0.1,1.2-0.1,2.4l-0.1,2.3c-0.1,1.2-0.1,1.2-0.1,2.4c-0.1,1.2-0.1,1.2-0.1,2.3
		c0,0.8-0.4,1.4-0.9,1.9s-1.2,0.8-2,0.7c-0.8,0-1.4-0.4-1.8-1c-0.5-0.5-0.9-1.2-0.8-1.9c0.1-1.2,0.2-1.2,0.2-2.4
		c0.1-1.2,0.1-1.2,0.2-2.4c0.1-1.2,0-1.2,0.1-2.4c0.1-1.2-0.1-1.2,0-2.4c0.1-1.2,0.1-1.2,0.2-2.4s0.1-1.2,0.1-2.4l0.1-2.4
		c0.1-1.2,0.1-1.2,0.1-2.4c0.1-1.2-1-2.1-2.2-2.2s-1.2-0.2-2.3-0.2c-1.2-0.1-1.2-0.2-2.4-0.2c-1.2-0.1-1.2,0.1-2.4,0
		c-0.8,0-1.5-0.3-2-0.9c-0.5-0.5-0.8-1.3-0.7-2.1c0-0.7,0.5-1.4,1.1-1.8c0.5-0.5,1.2-0.8,2-0.8c1.2,0.1,1.2,0,2.4,0.1
		c1.2,0.1,1.2,0.2,2.4,0.2c1.2,0.1,1.2,0,2.4,0c1.2,0.1,1.2,0.1,2.4,0.1c1.2,0.1,1.2,0,2.4,0.1c1.2,0.1,1.2,0.3,2.4,0.3
		c1.2,0.1,1.2,0,2.4,0.1s1.2-0.1,2.4,0c1.2,0.1,1.2,0,2.4,0.1s1.2,0.3,2.4,0.3C524.9,2.2,525.6,2.4,526.1,3"/>
	<path class="st0" d="M542.1,4.2c0.4,0.5,0.8,1.2,0.7,1.9c-0.1,1.2,0,1.2-0.1,2.4s-0.2,1.2-0.3,2.4s0.1,1.2,0,2.4s-0.1,1.2-0.2,2.4
		s-0.2,1.2-0.3,2.4c-0.1,1.2,0,1.2-0.1,2.4c-0.1,1.2-0.1,1.2-0.1,2.4c-0.1,1.2-0.2,1.2-0.3,2.4c-0.1,1.2,0,1.2-0.1,2.4
		c-0.1,1.2-0.1,1.2-0.1,2.4c-0.1,0.7-0.5,1.4-1,1.8c-0.5,0.4-1.2,0.8-2,0.8c-0.8-0.1-1.3-0.5-1.8-1.1c-0.4-0.5-0.8-1.2-0.8-2
		c0.1-1.2,0.2-1.2,0.3-2.4l0.2-2.4c0.1-1.2,0.1-1.2,0.2-2.4c0.1-1.2,0-1.2,0-2.4c0.1-1.2,0.1-1.2,0.2-2.4c0.1-1.2,0.1-1.2,0.2-2.4
		c0.1-1.2,0.1-1.2,0.1-2.4c0.1-1.2,0-1.2,0.1-2.4s0.3-1.2,0.4-2.4c0.1-1.2-0.1-1.2,0-2.4c0.1-0.7,0.5-1.4,1-1.9
		c0.5-0.4,1.2-0.7,2-0.6C541,3.3,541.6,3.7,542.1,4.2"/>
	<path class="st0" d="M581.1,17.8c0.1,0.7,0.3,1.3,0.3,1.9c0,0.7,0.1,1.3,0,1.9c-0.1,0.7-0.2,1.3-0.4,1.9s-0.3,1.3-0.6,1.9
		c-0.2,0.6-0.5,1.2-0.8,1.8c-0.5,0.8-1,1.6-1.7,2.3c-0.6,0.8-1.2,1.4-2,2c-0.7,0.6-1.4,1.3-2.3,1.7c-0.8,0.4-1.7,0.7-2.6,1
		c-0.6,0.2-1.2,0.4-1.9,0.5c-0.6,0.1-1.3,0.2-1.9,0.2c-0.6,0-1.3,0-2-0.1c-0.6-0.1-1.3-0.2-1.9-0.4c-0.6-0.2-1.3-0.2-1.9-0.4
		c-0.6-0.2-1.2-0.5-1.8-0.8c-0.8-0.4-1.6-1-2.3-1.6s-1.3-1.3-1.9-2.1c-0.6-0.7-1.2-1.5-1.6-2.3c-0.4-0.8-0.9-1.7-1.2-2.6
		c-0.2-0.6-0.4-1.3-0.5-1.9s-0.1-1.3-0.2-1.9c0-0.7,0-1.3,0.1-2c0.1-0.6,0-1.3,0.1-2c0.2-0.6,0.5-1.2,0.7-1.8s0.5-1.2,0.8-1.8
		c0.4-0.8,0.9-1.6,1.5-2.3s1.2-1.4,2-2c0.7-0.6,1.5-1.2,2.3-1.6s1.7-0.9,2.6-1.2c0.6-0.2,1.3-0.2,1.9-0.3c0.7-0.1,1.3-0.2,2-0.2
		s1.3-0.1,1.9,0c0.7,0.1,1.3,0.2,1.9,0.3c0.6,0.2,1.3,0.4,1.9,0.6c0.6,0.2,1.2,0.5,1.8,0.8c0.8,0.5,1.5,1.1,2.3,1.7
		c0.7,0.6,1.5,1.1,2.2,1.8c0.6,0.7,1,1.6,1.4,2.4c0.4,0.8,1,1.6,1.3,2.5C581,16.5,581,17.1,581.1,17.8 M574.2,25.6
		c0.4-0.6,0.9-1.3,1.2-2.1c0.3-0.8,0.4-1.5,0.5-2.4c0.1-0.8,0-1.6-0.1-2.4c-0.2-0.8-0.4-1.6-0.7-2.3c-0.3-0.7-0.7-1.4-1.2-2.1
		c-0.5-0.6-1.2-1.2-1.8-1.6c-0.7-0.5-1.4-0.7-2.2-1c-0.7-0.3-1.5-0.6-2.3-0.7c-0.8-0.1-1.6,0-2.4,0.1c-0.8,0.1-1.6,0.4-2.3,0.7
		s-1.4,0.8-2,1.3s-1.2,1.1-1.6,1.8c-0.4,0.6-0.7,1.4-1,2.1c-0.3,0.8-0.6,1.5-0.6,2.3c-0.1,0.8,0,1.6,0.1,2.4s0.4,1.5,0.8,2.2
		c0.3,0.7,0.7,1.4,1.2,2.1c0.5,0.6,1.1,1.2,1.7,1.6c0.6,0.5,1.3,0.8,2.1,1.1c0.7,0.3,1.5,0.6,2.3,0.7s1.6-0.2,2.4-0.3
		c0.8-0.1,1.6-0.2,2.3-0.5s1.3-0.9,1.9-1.4C573.2,26.8,573.8,26.2,574.2,25.6"/>
	<path class="st0" d="M620.7,12.1c0.4,0.6,0.7,1.3,0.6,2c-0.1,1.2-0.1,1.2-0.2,2.4c-0.1,1.2-0.3,1.2-0.5,2.4c-0.1,1.2,0,1.2-0.2,2.4
		c-0.1,1.2-0.2,1.2-0.3,2.4c-0.1,1.2-0.1,1.2-0.2,2.4c-0.1,1.2-0.2,1.2-0.4,2.4c-0.1,1.2-0.1,1.2-0.2,2.4c-0.1,1.2-0.2,1.2-0.4,2.4
		c-0.1,1.2,0,1.2-0.1,2.4s-0.1,1.2-0.3,2.4c-0.1,0.7-0.7,1.3-1.2,1.7s-1.2,0.7-1.9,0.6c-0.7-0.1-1.3-0.3-1.7-0.8
		c-0.1-0.1-0.1-0.3-0.2-0.4c-0.7-1-0.7-0.9-1.4-1.9c-0.7-0.9-0.9-0.8-1.6-1.8c-0.7-1-0.6-1-1.3-2c-0.7-0.9-0.8-0.9-1.5-1.8
		c-0.7-0.9-0.8-0.9-1.5-1.8c-0.7-1-0.7-1-1.4-1.9s-0.7-1-1.4-1.9c-0.7-1-0.8-0.9-1.5-1.9c-0.7-0.9-0.8-0.9-1.5-1.9
		c-0.7-0.9-0.8-0.9-1.5-1.9c-0.4-0.6-1.1-0.8-1.7-0.6c-0.6,0.2-1,0.7-1.1,1.4c-0.1,1.1,0,1.2-0.2,2.3c-0.1,1.1-0.2,1.1-0.3,2.3
		c-0.1,1.1-0.3,1.1-0.4,2.3c-0.1,1.2-0.1,1.2-0.3,2.3c-0.1,1.1-0.1,1.2-0.2,2.3c-0.1,1.2-0.1,1.2-0.3,2.3c-0.1,0.7-0.5,1.4-1.1,1.8
		c-0.5,0.5-1.3,0.6-2,0.5s-1.4-0.4-1.9-1c-0.4-0.6-0.6-1.3-0.5-2.1c0.1-1.2,0.1-1.2,0.3-2.4c0.1-1.2,0.2-1.2,0.4-2.4
		c0.1-1.2,0-1.2,0.2-2.4l0.3-2.4c0.1-1.2,0.1-1.2,0.3-2.4c0.1-1.2,0.2-1.2,0.4-2.4c0.1-1.2,0.1-1.2,0.2-2.4c0.1-1.2,0.2-1.2,0.3-2.4
		s0.2-1.2,0.4-2.4c0.1-1.2,0-1.2,0.2-2.4c0.1-0.8,0.5-1.5,1.1-1.9c0.5-0.4,1.3-0.6,2.1-0.6c0.4,0,0.7,0.3,1,0.5
		c0.5,0.2,1,0.5,1.4,0.9c0.7,0.9,0.7,0.8,1.4,1.7s0.5,1,1.2,1.9s0.7,0.8,1.4,1.7s0.8,0.8,1.4,1.7l1.3,1.8c0.7,0.9,0.7,0.9,1.4,1.8
		s0.7,0.9,1.3,1.8l1.3,1.8c0.7,0.9,0.6,0.9,1.3,1.8s0.7,0.8,1.4,1.7c0.5,0.6,1.3,0.9,2,0.7c0.7-0.2,1.2-0.8,1.3-1.7
		c0.1-1.1,0.2-1,0.3-2.1s0-1.1,0.2-2.2l0.3-2.1c0.1-1.1,0.2-1,0.4-2.1c0.1-1.1,0.2-1.1,0.3-2.1c0.1-1.1,0-1.1,0.1-2.1
		c0.1-0.8,0.5-1.3,1.1-1.8c0.6-0.4,1.2-0.8,2-0.7C619.6,11.1,620.2,11.5,620.7,12.1"/>
	<path class="st0" d="M656,44.5c-0.3,0.6-0.9,1.2-1.6,1.4c-0.4,0.1-0.9,0.1-1.3,0c-1-0.2-1.8-0.9-2.1-1.9l-0.7-2.2
		c-0.3-0.8-0.8-1.2-2-1.5c-1-0.3-1.1-0.1-2.1-0.3c-1.1-0.2-1.1-0.3-2.1-0.4l-2.1-0.3c-1-0.2-1.1-0.1-2.1-0.3s-1-0.2-2.1-0.4
		s-1.1-0.5-2.1-0.4c-1.2,0.2-1.2,0.4-2.1,1.1c-0.9,0.7-0.7,0.9-1.3,1.8c-0.6,0.8-1.7,1.3-2.7,1.1c-0.4-0.1-0.8-0.3-1.1-0.6
		c-0.6-0.5-1.1-1-1.3-1.7c-0.1-0.7,0.1-1.5,0.5-2.1L629,36c0.6-0.9,0.6-0.9,1.3-1.9c0.6-0.9,0.7-0.9,1.4-1.8
		c0.7-0.9,0.6-0.9,1.3-1.9c0.7-0.9,0.7-0.9,1.3-1.8c0.7-0.9,0.8-0.9,1.4-1.8c0.7-0.9,0.6-0.9,1.3-1.9c0.7-0.9,0.6-0.9,1.3-1.9
		c0.7-0.9,0.6-0.9,1.3-1.8s0.7-0.9,1.3-1.8c0.7-0.9,0.6-0.9,1.3-1.9c0.7-0.9,0.6-0.9,1.3-1.8c0.5-0.7,1.3-1.1,2-1.2
		c0.6-0.1,1.4,0.1,1.9,0.4c0.5,0.3,1,0.9,1.2,1.5c0.2,0.7,0.3,1.4,0.6,2.1c0.2,0.7,0.5,1.4,0.8,2c0.2,0.7,0.3,1.4,0.5,2.1
		s0.6,1.3,0.8,2s0.4,1.5,0.6,2.2c0.2,0.7,0.5,1.4,0.7,2.2c0.2,0.7,0.5,1.4,0.7,2.2l0.7,2.2c0.2,0.7,0.3,1.5,0.5,2.2s0.7,1.4,0.9,2.1
		c0.2,0.7,0.3,1.5,0.5,2.2s0.5,1.4,0.7,2.2C656.3,43.1,656.3,43.9,656,44.5 M641.5,33.6l2.4,0.4c1.2,0.2,1.2,0.2,2.4,0.4
		c0.8,0.1,1.5-0.6,1.3-1.4c-0.1-0.3-0.2-0.3-0.3-0.6c-0.4-1.2-0.2-1.2-0.6-2.4c-0.4-1.2-0.5-1.2-0.9-2.3c-0.4-1.2-0.1-1.3-0.7-2.4
		c-0.4-0.7-1-0.8-1.4-0.2c-0.1,0.1-0.1,0.2-0.2,0.4c-0.7,1-0.7,1-1.4,2s-0.9,0.9-1.6,1.9c-0.7,1-0.5,1.2-1.3,2.2
		c-0.2,0.3-0.4,0.2-0.6,0.5c-0.4,0.5,0,1.3,0.6,1.4C640.3,33.5,640.3,33.4,641.5,33.6"/>
	<path class="st0" d="M685.7,46.3c0.7,0.1,1.3,0.5,1.7,1.1s0.7,1.3,0.5,2c-0.2,1-0.7,1.6-1.4,1.9c-0.7,0.3-1.5,0.4-2.4,0.3
		c-0.8-0.1-1.7-0.4-2.4-0.5c-0.8-0.2-1.6-0.4-2.5-0.5c-0.8-0.2-1.7-0.2-2.5-0.3l-2.8-0.5c-0.9-0.2-1.9-0.3-2.8-0.5
		c-0.8-0.1-1.5-0.4-2.3-0.5c-0.6-0.1-1.2,0-1.7-0.1c-0.6-0.1-1.1-0.5-1.5-0.8c-0.7-0.7-1.1-1.6-0.9-2.5c0,0,0.2-0.8,0.5-2.2
		c0.1-0.6,0.2-1.4,0.3-2.2l0.4-2.2c0.1-0.7,0.4-1.4,0.5-2.2c0.1-0.7,0.1-1.5,0.3-2.2c0.1-0.7,0.2-1.5,0.3-2.2
		c0.2-0.8,0.5-1.4,0.6-2.2c0.2-0.8,0.2-1.5,0.3-2.2c0.1-0.8,0.2-1.5,0.3-2.2c0.2-0.8,0.4-1.5,0.5-2.2c0.2-1.4,0.2-1.1,0.4-2.2
		c0.1-0.8,0.6-1.4,1.2-1.8c0.6-0.4,1.4-0.4,2.1-0.3c0.7,0.2,1.3,0.5,1.7,1.1s0.6,1.3,0.5,2c0,0-0.2,0.9-0.5,2.3
		c-0.1,0.7-0.2,1.4-0.4,2.3c-0.2,0.7-0.3,1.5-0.5,2.3c-0.1,0.8-0.1,1.5-0.3,2.3c-0.1,0.8-0.4,1.5-0.6,2.2c-0.1,0.8-0.2,1.6-0.3,2.3
		c-0.2,0.9-0.4,1.6-0.5,2.3c-0.3,1.4,0,1.2-0.2,2.3c-0.2,0.9-0.1,1.8,0.4,2.6c0.5,0.7,1.3,1.2,2.2,1.3c1.2,0.2,1.2,0.3,2.3,0.5
		c1.2,0.2,1.2,0.2,2.3,0.4c1.2,0.2,1.2,0.2,2.3,0.4c1.2,0.2,1.1,0.4,2.3,0.6L685.7,46.3z"/>
	<path class="st0" d="M873.9,94.5c0-0.4-0.6-0.8-1.2-1c-0.8-0.3-1.7-0.5-2.7-0.5h-3.5c-1.9,0-1.9,0-3.6,0h-3.5h-3.5h-3.6H849
		c-1.7,0-1.7,0.1-3.5,0.1c-1.7,0-1.7-0.1-3.6-0.1c-1.7,0-1.7,0-3.3,0c-1.8,0-1.8-0.1-3.4-0.1h-3.5h-3.6c-0.4,0-0.8,0-1.2,0.1
		c-0.6,0-1,0-2,0h-3.4H818h-3.6H811c-1.7,0-1.7,0.1-3.4,0.1S805.9,93,804,93c-1.7,0-1.7,0-3.3,0c-1.8,0-1.8-0.1-3.4-0.1h-3.5h-3.6
		c-0.3,0-0.6,0-0.9,0h-2.6h-3.5h-3.6h-3.4c-1.7,0-1.7,0.1-3.5,0.1c-1.7,0-1.7-0.1-3.6-0.1c-1.7,0-1.7,0-3.3,0
		c-1.8,0-1.8-0.1-3.4-0.1H759h-3.6c-0.4,0-0.8,0-1.2,0.1c-0.6,0-1,0-2,0H749h-3.4H742h-3.4c-1.7,0-1.7,0.1-3.5,0.1
		c-1.7,0-1.7-0.1-3.6-0.1c-1.7,0-1.7,0-3.3,0c-1.8,0-1.8-0.1-3.4-0.1h-3.5h-3.6c-0.4,0-0.7,0-1,0.1c-0.3,0-0.7,0-1.3,0H712h-3.5
		h-3.6h-3.4c-1.7,0-1.7,0.1-3.5,0.1c-1.7,0-1.7-0.1-3.6-0.1c-1.7,0-1.7,0-3.3,0c-1.8,0-1.8-0.1-3.4-0.1h-3.5h-3.6
		c-0.4,0-0.8,0-1.2,0.1c-0.6,0-1,0-2,0h-3.5h-3.5h-3.6h-3.5c-1.7,0-1.7,0.1-3.4,0.1s-1.7-0.1-3.6-0.1c-1.7,0-1.7,0-3.3,0
		c-1.8,0-1.8-0.1-3.5-0.1H646h-3.6c-0.3,0-0.6,0-0.9,0h-2.3H636h-3.5c-1.7,0-1.7,0.1-3.5,0.1c-1.7,0-1.7-0.1-3.6-0.1
		c-1.7,0-1.7,0-3.3,0c-1.8,0-1.8-0.1-3.4-0.1h-3.5h-3.6c-0.4,0-0.8,0-1.2,0.1c-0.6,0-1,0-2,0h-3.5h-3.4h-3.6h-3.5
		c-1.7,0-1.7,0.1-3.5,0.1c-1.7,0-1.7-0.1-3.6-0.1c-1.7,0-1.7,0-3.3,0c-1.8,0-1.8-0.1-3.5-0.1H577h-3.6c-0.5,0-0.9,0-1.2,0.1
		c-1.5,0-1.6,0-3.2,0h-3.5h-3.4H559h-3.5c-1.7,0-1.7,0.1-3.5,0.1c-1.7,0-1.7-0.1-3.6-0.1c-1.7,0-1.7,0-3.3,0c-1.8,0-1.8-0.1-3.5-0.1
		h-3.5h-3.6c-0.4,0-0.8,0-1.2,0.1c-0.6,0-1,0-2,0h-3.5h-3.5h-3.6h-3.4c-1.7,0-1.7,0.1-3.5,0.1c-1.7,0-1.7-0.1-3.6-0.1
		c-1.7,0-1.7,0-3.3,0c-1.8,0-1.8-0.1-3.5-0.1h-3.5h-3.6c-0.3,0-0.6,0-0.9,0h-2.6h-3.5h-3.6h-3.5c-1.7,0-1.7,0.1-3.4,0.1
		c-1.7,0-1.7-0.1-3.6-0.1c-1.7,0-1.7,0-3.3,0c-1.8,0-1.8-0.1-3.4-0.1H465h-3.6c-0.4,0-0.8,0-1.2,0.1c-0.6,0-1,0-2,0h-3.4h-3.5h-3.6
		h-3.5c-1.7,0-1.7,0.1-3.5,0.1c-1.7,0-1.7-0.1-3.6-0.1c-1.7,0-1.7,0-3.3,0c-1.8,0-1.8-0.1-3.4-0.1h-3.5h-3.6c-0.4,0-0.7,0-1,0.1
		c-0.3,0-0.7,0-1.3,0h-3.5H414h-3.6h-3.5c-1.7,0-1.7,0.1-3.5,0.1c-1.7,0-1.7-0.1-3.6-0.1c-1.7,0-1.7,0-3.3,0c-1.8,0-1.8-0.1-3.5-0.1
		h-3.5h-3.6c-0.4,0-0.8,0-1.2,0.1c-0.6,0-1,0-2,0h-3.5h-3.5h-3.6h-3.4c-1.7,0-1.7,0.1-3.5,0.1c-1.7,0-1.7-0.1-3.6-0.1
		c-1.7,0-1.7,0-3.3,0c-1.8,0-1.8-0.1-3.5-0.1h-3.5h-3.6c-0.3,0-0.6,0-0.9,0h-2.3h-3.6h-3.5c-1.7,0-1.7,0.1-3.5,0.1
		c-1.7,0-1.7-0.1-3.6-0.1c-1.7,0-1.7,0-3.3,0c-1.8,0-1.8-0.1-3.4-0.1h-3.5h-3.6c-0.4,0-0.8,0-1.2,0.1c-0.6,0-1,0-2,0h-3.5h-3.5h-3.6
		h-3.5c-0.8,0-1.3,0-1.7,0h-2.7c-0.3,0-0.6,0-0.8,0c-0.4,0-0.9,0-1.8,0c-0.2,0-0.3,0-0.5,0c-0.1,0-0.3,0-0.5,0h-3.5H287
		c-0.4,0-0.8,0-1.7,0H284h-3.6c-0.3,0-0.6,0-0.9,0h-0.2c-1.7,0-1.7,0.1-3.5,0.1c-1.7,0-1.7-0.1-3.6-0.1c-1.7,0-1.7,0-3.3,0
		c-1.8,0-1.8-0.1-3.5-0.1H262h-3.6c-0.4,0-0.8,0-1.2,0.1c-0.6,0-1,0-2,0H252h-3.5H245h-3.5c-1.7,0-1.7,0.1-3.5,0.1
		c-1.7,0-1.7-0.1-3.6-0.1c-1.7,0-1.7,0-3.3,0c-1.8,0-1.8-0.1-3.4-0.1h-3.5h-3.6c-0.3,0-0.6,0-0.9,0h-2.6h-3.4h-3.6h-3.5
		c-1.7,0-1.7,0.1-3.5,0.1c-1.7,0-1.7-0.1-3.6-0.1c-1.7,0-1.7,0-3.3,0c-1.8,0-1.8-0.1-3.4-0.1h-3.5h-3.6c-0.4,0-0.8,0-1.2,0.1
		c-0.6,0-1,0-2,0H179h-3.5h-3.6h-3.5c-1.7,0-1.7,0.1-3.5,0.1c-1.7,0-1.7-0.1-3.6-0.1c-1.7,0-1.7,0-3.3,0c-1.8,0-1.8-0.1-3.5-0.1H151
		h-3c-0.4,0-0.7,0-1,0.1c-0.3,0-0.7,0-1.3,0h-3.5h-3.5h-3.6h-3.5c-1.7,0-1.7,0.1-3.5,0.1c-1.7,0-1.7-0.1-3.6-0.1c-1.7,0-1.7,0-3.3,0
		c-1.8,0-1.8-0.1-3.5-0.1h-3.5H111c-0.4,0-0.8,0-1.2,0.1c-0.6,0-1,0-2,0h-3.5H101h-3.6H94c-1.7,0-1.7,0.1-3.5,0.1
		c-1.7,0-1.7-0.1-3.6-0.1c-1.7,0-1.7,0-3.3,0c-1.8,0-1.8-0.1-3.4-0.1h-3.5h-3.6c-0.3,0-0.6,0-0.9,0h-2.3h-3.6h-3.5
		c-1.7,0-1.7,0.1-3.5,0.1c-1.7,0-1.7-0.1-3.6-0.1c-1.7,0-1.7,0-3.3,0c-1.8,0-1.8-0.1-3.5-0.1h-3.5h-3.6c-0.4,0-0.8,0-1.2,0.1
		c-0.6,0-1,0-2,0h-3.5h-3.5H28h-3.5c-1.7,0-1.7,0.1-3.4,0.1c-1.7,0-1.7-0.1-3.6-0.1c-1.7,0-1.7,0-3.3,0c-1.8,0-1.8-0.1-3.5-0.1H7.8
		H4.2c-1.1,0-2,0.2-2.8,0.4c-0.9,0.3-1,0.7-1,1c0,0.7,0.1,0.7,0.1,1.3c0,0.7-0.4,0.7-0.4,1.3c0,0.7,0.2,0.7,0.2,1.3
		c0,0.4,0.4,0.8,1.1,1C2.1,98.9,3.1,99,4.2,99C6,99,6,99,7.8,99h3.5c1.7,0,1.7,0.1,3.5,0.1c1.7,0,1.7-0.1,3.6-0.1c1.7,0,1.7,0,3.3,0
		c1.8,0,1.8,0,3.4,0c1.8,0,1.8,0.1,3.5,0.1c1.9,0,1.9,0,3.6,0h3.5H39c1.7,0,1.7,0,3.6,0c1.7,0,1.7,0,3.5,0c0.5,0,1.1-0.1,1.5-0.2
		h1.6c1.7,0,1.7,0.1,3.5,0.1c1.7,0,1.7-0.1,3.6-0.1c1.7,0,1.7,0,3.3,0c1.8,0,1.8,0,3.5,0c1.8,0,1.8,0.1,3.5,0.1c1.9,0,1.9,0,3.6,0
		h3.5h3.5c1.7,0,1.7,0,3.6,0c1.7,0,1.7,0,3.5,0c0.2,0,0.5,0,0.7,0c0.8,0,1.2-0.1,2.6-0.1c1.7,0,1.7,0,3.3,0c1.8,0,1.8,0,3.5,0
		c1.8,0,1.8,0.1,3.5,0.1c1.9,0,1.9,0,3.6,0h3.4h3.5c1.7,0,1.7,0,3.6,0c1.7,0,1.7,0,3.5,0c0.5,0,1.1-0.1,1.5-0.2h1.6
		c1.7,0,1.7,0.1,3.5,0.1c1.7,0,1.7-0.1,3.6-0.1c1.7,0,1.7,0,3.3,0c1.8,0,1.8,0,3.5,0c1.8,0,1.8,0.1,3.5,0.1c1.9,0,1.9,0,3.6,0h3.5
		h3.5c1.7,0,1.7,0,3.6,0c1.7,0,1.7,0,3.5,0c0.5,0,1.1-0.1,1.5-0.2h0.7c1.7,0,1.7,0.1,3.5,0.1c1.7,0,1.7-0.1,3.6-0.1
		c1.7,0,1.7,0,3.3,0c1.8,0,1.8,0,3.5,0c1.8,0,1.8,0.1,3.5,0.1c1.9,0,1.9,0,3.6,0h3.5h3.5c1.7,0,1.7,0,3.6,0c1.7,0,1.7,0,3.5,0
		c0.5,0,1.1-0.1,1.5-0.2h1.6c1.7,0,1.7,0.1,3.4,0.1s1.7-0.1,3.6-0.1c1.7,0,1.7,0,3.3,0c1.8,0,1.8,0,3.5,0c1.8,0,1.8,0.1,3.5,0.1
		c1.9,0,1.9,0,3.6,0h3.4h3.5c1.7,0,1.7,0,3.6,0c1.7,0,1.7,0,3.5,0c0.5,0,1-0.1,1.4-0.1c0.6,0,1,0.1,2.1,0.1c1.7,0,1.7-0.1,3.6-0.1
		c1.7,0,1.7,0,3.3,0c1.8,0,1.8,0,3.5,0c1.8,0,1.8,0.1,3.5,0.1c1.9,0,1.9,0,3.6,0h3.5h3.5c1.7,0,1.7,0,3.6,0c1.7,0,1.7,0,3.5,0
		c0.5,0,1.1-0.1,1.5-0.2h1.6c1.7,0,1.7,0.1,3.5,0.1c1.7,0,1.7-0.1,3.6-0.1c1.7,0,1.7,0,3.3,0c1.8,0,1.8,0,3.5,0
		c1.8,0,1.8,0.1,3.5,0.1c1.9,0,1.9,0,3.6,0h3.4c0.3,0,0.6,0,1.1,0c1,0,1.4,0,2,0h0.4c1.7,0,1.7,0,3.6,0c1.7,0,1.7,0,3.5,0
		c0.5,0,0.9,0,1.3-0.1c1.4,0,1.6,0.1,3.1,0.1c1.9,0,1.9,0,3.6,0h3.5h3.5c1.7,0,1.7,0,3.6,0c1.7,0,1.7,0,3.5,0c0.5,0,1.1-0.1,1.5-0.2
		h1.6c1.7,0,1.7,0.1,3.4,0.1c1.7,0,1.7-0.1,3.6-0.1c1.7,0,1.7,0,3.3,0c1.8,0,1.8,0,3.5,0c1.8,0,1.8,0.1,3.5,0.1c1.9,0,1.9,0,3.6,0
		h3.4h3.5c1.7,0,1.7,0,3.6,0c1.7,0,1.7,0,3.5,0c0.2,0,0.5,0,0.7,0c0.8,0,1.2-0.1,2.6-0.1c1.7,0,1.7,0,3.3,0c1.8,0,1.8,0,3.5,0
		c1.8,0,1.8,0.1,3.4,0.1c1.9,0,1.9,0,3.6,0h3.5h3.5c1.7,0,1.7,0,3.6,0c1.7,0,1.7,0,3.5,0c0.5,0,1.1-0.1,1.5-0.2h1.6
		c1.7,0,1.7,0.1,3.5,0.1c1.7,0,1.7-0.1,3.6-0.1c1.7,0,1.7,0,3.3,0c1.8,0,1.8,0,3.5,0c1.8,0,1.8,0.1,3.5,0.1c1.9,0,1.9,0,3.6,0h3.5
		h3.5c1.7,0,1.7,0,3.6,0c1.7,0,1.7,0,3.5,0c0.5,0,1.1-0.1,1.5-0.2h0.7c1.7,0,1.7,0.1,3.4,0.1c1.7,0,1.7-0.1,3.6-0.1
		c1.7,0,1.7,0,3.3,0c1.8,0,1.8,0,3.5,0c1.8,0,1.8,0.1,3.5,0.1c1.9,0,1.9,0,3.6,0h3.5h3.4c1.7,0,1.7,0,3.6,0c1.7,0,1.7,0,3.5,0
		c0.5,0,1.1-0.1,1.5-0.2h1.6c1.7,0,1.7,0.1,3.4,0.1c1.7,0,1.7-0.1,3.6-0.1c1.7,0,1.7,0,3.3,0c1.8,0,1.8,0,3.4,0
		c1.8,0,1.8,0.1,3.5,0.1c1.9,0,1.9,0,3.6,0h3.5h3.5c1.7,0,1.7,0,3.6,0c1.7,0,1.7,0,3.5,0c0.5,0,1-0.1,1.4-0.1c0.6,0,1,0.1,2.1,0.1
		c1.7,0,1.7-0.1,3.6-0.1c1.7,0,1.7,0,3.3,0c1.8,0,1.8,0,3.5,0c1.8,0,1.8,0.1,3.4,0.1c1.9,0,1.9,0,3.6,0h3.5h3.5c1.7,0,1.7,0,3.6,0
		c1.7,0,1.7,0,3.5,0c0.5,0,1.1-0.1,1.5-0.2h1.6c1.7,0,1.7,0.1,3.5,0.1c1.7,0,1.7-0.1,3.6-0.1c1.7,0,1.7,0,3.3,0c1.8,0,1.8,0,3.5,0
		c1.8,0,1.8,0.1,3.5,0.1c1.9,0,1.9,0,3.6,0h3.4h3.5c1.7,0,1.7,0,3.6,0c1.7,0,1.7,0,3.5,0c0.5,0,1-0.1,1.5-0.2h2.9
		c1.7,0,1.7,0.1,3.5,0.1c1.7,0,1.7-0.1,3.6-0.1c1.7,0,1.7,0,3.3,0c1.8,0,1.8,0,3.5,0c1.8,0,1.8,0.1,3.5,0.1c1.9,0,1.9,0,3.6,0h3.4
		h3.5c1.7,0,1.7,0,3.6,0c1.7,0,1.7,0,3.5,0c0.5,0,1.1-0.1,1.5-0.2h1.6c1.7,0,1.7,0.1,3.4,0.1s1.7-0.1,3.6-0.1c1.7,0,1.7,0,3.3,0
		c1.8,0,1.8,0,3.5,0c1.8,0,1.8,0.1,3.5,0.1c1.9,0,1.9,0,3.6,0h3.5h3.4c1.7,0,1.7,0,3.6,0c1.7,0,1.7,0,3.5,0c0.2,0,0.5,0,0.7,0
		c0.8,0,1.2-0.1,2.6-0.1c1.7,0,1.7,0,3.3,0c1.8,0,1.8,0,3.4,0c1.8,0,1.8,0.1,3.5,0.1c1.9,0,1.9,0,3.6,0h3.5h3.5c1.7,0,1.7,0,3.6,0
		c1.7,0,1.7,0,3.5,0c0.5,0,1.1-0.1,1.5-0.2h1.6c1.7,0,1.7,0.1,3.4,0.1s1.7-0.1,3.6-0.1c1.7,0,1.7,0,3.3,0c1.8,0,1.8,0,3.5,0
		c1.8,0,1.8,0.1,3.4,0.1c1.9,0,1.9,0,3.6,0h3.5h3.5c1.7,0,1.7,0,3.6,0c1.7,0,1.7,0,3.5,0c0.5,0,1.1-0.1,1.5-0.2h0.7
		c1.7,0,1.7,0.1,3.4,0.1s1.7-0.1,3.6-0.1c1.7,0,1.7,0,3.3,0c1.8,0,1.8,0,3.5,0c1.8,0,1.8,0.1,3.4,0.1c1.9,0,1.9,0,3.6,0h3.4h3.5
		c1.7,0,1.7,0,3.6,0c1.7,0,1.7,0,3.4,0c0.5,0,1.1-0.1,1.5-0.2h1.6c1.7,0,1.7,0.1,3.4,0.1s1.7-0.1,3.6-0.1c1.7,0,1.7,0,3.3,0
		c1.8,0,1.8,0,3.5,0c1.8,0,1.8,0.1,3.4,0.1c1.9,0,1.9,0,3.6,0h3.5h3.4c1.7,0,1.7,0,3.6,0c1.7,0,1.7,0,3.4,0c0.5,0,1-0.1,1.4-0.1
		c0.6,0,1,0.1,2.1,0.1c1.7,0,1.7-0.1,3.6-0.1c1.7,0,1.7,0,3.3,0c1.8,0,1.8,0,3.4,0c1.8,0,1.8,0.1,3.4,0.1c1.9,0,1.9,0,3.6,0h3.5h3.4
		c1.7,0,1.7,0,3.6,0c1.7,0,1.7,0,3.4,0c0.5,0,1.1-0.1,1.5-0.2h1.6c1.7,0,1.7,0.1,3.4,0.1s1.7-0.1,3.6-0.1c1.7,0,1.7,0,3.3,0
		c1.8,0,1.8,0,3.5,0c1.8,0,1.8,0.1,3.4,0.1c1.9,0,1.9,0,3.6,0h3.5h3.5c1.7,0,1.7,0,3.6,0c1.7,0,1.7,0,3.5,0c1,0,1.9-0.2,2.7-0.5
		c0.7-0.3,1.1-0.6,1.1-1v-1.3c0-0.6,0.2-0.6,0.2-1.3C874,95.2,873.9,95.2,873.9,94.5"/>
	<path class="st0" d="M873.9,245.5c0-0.4-0.6-0.8-1.2-1c-0.8-0.3-1.7-0.5-2.7-0.5h-3.5c-1.9,0-1.9,0-3.6,0h-3.5h-3.5h-3.6H849
		c-1.7,0-1.7,0.1-3.5,0.1c-1.7,0-1.7-0.1-3.6-0.1c-1.7,0-1.7,0-3.3,0c-1.8,0-1.8-0.1-3.4-0.1h-3.5h-3.6c-0.4,0-0.8,0-1.2,0.1
		c-0.6,0-1,0-2,0h-3.4H818h-3.6H811c-1.7,0-1.7,0.1-3.4,0.1s-1.7-0.1-3.6-0.1c-1.7,0-1.7,0-3.3,0c-1.8,0-1.8-0.1-3.4-0.1h-3.5h-3.6
		c-0.3,0-0.6,0-0.9,0h-2.6h-3.5h-3.6h-3.4c-1.7,0-1.7,0.1-3.5,0.1c-1.7,0-1.7-0.1-3.6-0.1c-1.7,0-1.7,0-3.3,0
		c-1.8,0-1.8-0.1-3.4-0.1H759h-3.6c-0.4,0-0.8,0-1.2,0.1c-0.6,0-1,0-2,0H749h-3.4H742h-3.4c-1.7,0-1.7,0.1-3.5,0.1
		c-1.7,0-1.7-0.1-3.6-0.1c-1.7,0-1.7,0-3.3,0c-1.8,0-1.8-0.1-3.4-0.1h-3.5h-3.6c-0.4,0-0.7,0-1,0.1c-0.3,0-0.7,0-1.3,0H712h-3.5
		h-3.6h-3.4c-1.7,0-1.7,0.1-3.5,0.1c-1.7,0-1.7-0.1-3.6-0.1c-1.7,0-1.7,0-3.3,0c-1.8,0-1.8-0.1-3.4-0.1h-3.5h-3.6
		c-0.4,0-0.8,0-1.2,0.1c-0.6,0-1,0-2,0h-3.5h-3.5h-3.6h-3.5c-1.7,0-1.7,0.1-3.4,0.1s-1.7-0.1-3.6-0.1c-1.7,0-1.7,0-3.3,0
		c-1.8,0-1.8-0.1-3.5-0.1H646h-3.6c-0.3,0-0.6,0-0.9,0h-2.3H636h-3.5c-1.7,0-1.7,0.1-3.5,0.1c-1.7,0-1.7-0.1-3.6-0.1
		c-1.7,0-1.7,0-3.3,0c-1.8,0-1.8-0.1-3.4-0.1h-3.5h-3.6c-0.4,0-0.8,0-1.2,0.1c-0.6,0-1,0-2,0h-3.5h-3.4h-3.6h-3.5
		c-1.7,0-1.7,0.1-3.5,0.1c-1.7,0-1.7-0.1-3.6-0.1c-1.7,0-1.7,0-3.3,0c-1.8,0-1.8-0.1-3.5-0.1H577h-3.6c-0.5,0-0.9,0-1.2,0.1
		c-1.5,0-1.6,0-3.2,0h-3.5h-3.4H559h-3.5c-1.7,0-1.7,0.1-3.5,0.1c-1.7,0-1.7-0.1-3.6-0.1c-1.7,0-1.7,0-3.3,0c-1.8,0-1.8-0.1-3.5-0.1
		h-3.5h-3.6c-0.4,0-0.8,0-1.2,0.1c-0.6,0-1,0-2,0h-3.5h-3.5h-3.6h-3.4c-1.7,0-1.7,0.1-3.5,0.1c-1.7,0-1.7-0.1-3.6-0.1
		c-1.7,0-1.7,0-3.3,0c-1.8,0-1.8-0.1-3.5-0.1h-3.5h-3.6c-0.3,0-0.6,0-0.9,0h-2.6h-3.5h-3.6h-3.5c-1.7,0-1.7,0.1-3.4,0.1
		c-1.7,0-1.7-0.1-3.6-0.1c-1.7,0-1.7,0-3.3,0c-1.8,0-1.8-0.1-3.4-0.1H465h-3.6c-0.4,0-0.8,0-1.2,0.1c-0.6,0-1,0-2,0h-3.4h-3.5h-3.6
		h-3.5c-1.7,0-1.7,0.1-3.5,0.1c-1.7,0-1.7-0.1-3.6-0.1c-1.7,0-1.7,0-3.3,0c-1.8,0-1.8-0.1-3.4-0.1h-3.5h-3.6c-0.4,0-0.7,0-1,0.1
		c-0.3,0-0.7,0-1.3,0h-3.5H414h-3.6h-3.5c-1.7,0-1.7,0.1-3.5,0.1c-1.7,0-1.7-0.1-3.6-0.1c-1.7,0-1.7,0-3.3,0c-1.8,0-1.8-0.1-3.5-0.1
		h-3.5h-3.6c-0.4,0-0.8,0-1.2,0.1c-0.6,0-1,0-2,0h-3.5h-3.5h-3.6h-3.4c-1.7,0-1.7,0.1-3.5,0.1c-1.7,0-1.7-0.1-3.6-0.1
		c-1.7,0-1.7,0-3.3,0c-1.8,0-1.8-0.1-3.5-0.1h-3.5h-3.6c-0.3,0-0.6,0-0.9,0h-2.3h-3.6h-3.5c-1.7,0-1.7,0.1-3.5,0.1
		c-1.7,0-1.7-0.1-3.6-0.1c-1.7,0-1.7,0-3.3,0c-1.8,0-1.8-0.1-3.4-0.1h-3.5h-3.6c-0.4,0-0.8,0-1.2,0.1c-0.6,0-1,0-2,0h-3.5h-3.5h-3.6
		h-3.5c-0.8,0-1.3,0-1.7,0h-2.7c-0.3,0-0.6,0-0.8,0c-0.4,0-0.9,0-1.8,0c-0.2,0-0.3,0-0.5,0c-0.1,0-0.3,0-0.5,0h-3.5H287
		c-0.4,0-0.8,0-1.7,0H284h-3.6c-0.3,0-0.6,0-0.9,0h-0.2c-1.7,0-1.7,0.1-3.5,0.1c-1.7,0-1.7-0.1-3.6-0.1c-1.7,0-1.7,0-3.3,0
		c-1.8,0-1.8-0.1-3.5-0.1H262h-3.6c-0.4,0-0.8,0-1.2,0.1c-0.6,0-1,0-2,0H252h-3.5H245h-3.5c-1.7,0-1.7,0.1-3.5,0.1
		c-1.7,0-1.7-0.1-3.6-0.1c-1.7,0-1.7,0-3.3,0c-1.8,0-1.8-0.1-3.4-0.1h-3.5h-3.6c-0.3,0-0.6,0-0.9,0h-2.6h-3.4h-3.6h-3.5
		c-1.7,0-1.7,0.1-3.5,0.1c-1.7,0-1.7-0.1-3.6-0.1c-1.7,0-1.7,0-3.3,0c-1.8,0-1.8-0.1-3.4-0.1h-3.5h-3.6c-0.4,0-0.8,0-1.2,0.1
		c-0.6,0-1,0-2,0H179h-3.5h-3.6h-3.5c-1.7,0-1.7,0.1-3.5,0.1c-1.7,0-1.7-0.1-3.6-0.1c-1.7,0-1.7,0-3.3,0c-1.8,0-1.8-0.1-3.5-0.1H151
		h-3c-0.4,0-0.7,0-1,0.1c-0.3,0-0.7,0-1.3,0h-3.5h-3.5h-3.6h-3.5c-1.7,0-1.7,0.1-3.5,0.1c-1.7,0-1.7-0.1-3.6-0.1c-1.7,0-1.7,0-3.3,0
		c-1.8,0-1.8-0.1-3.5-0.1h-3.5H111c-0.4,0-0.8,0-1.2,0.1c-0.6,0-1,0-2,0h-3.5H101h-3.6H94c-1.7,0-1.7,0.1-3.5,0.1
		c-1.7,0-1.7-0.1-3.6-0.1c-1.7,0-1.7,0-3.3,0c-1.8,0-1.8-0.1-3.4-0.1h-3.5h-3.6c-0.3,0-0.6,0-0.9,0h-2.3h-3.6h-3.5
		c-1.7,0-1.7,0.1-3.5,0.1c-1.7,0-1.7-0.1-3.6-0.1c-1.7,0-1.7,0-3.3,0c-1.8,0-1.8-0.1-3.5-0.1h-3.5h-3.6c-0.4,0-0.8,0-1.2,0.1
		c-0.6,0-1,0-2,0h-3.5h-3.5H28h-3.5c-1.7,0-1.7,0.1-3.4,0.1c-1.7,0-1.7-0.1-3.6-0.1c-1.7,0-1.7,0-3.3,0c-1.8,0-1.8-0.1-3.5-0.1H7.8
		H4.2c-1.1,0-2,0.2-2.8,0.4c-0.9,0.3-1,0.7-1,1c0,0.7,0.1,0.7,0.1,1.3c0,0.7-0.4,0.7-0.4,1.3c0,0.7,0.2,0.7,0.2,1.3
		c0,0.4,0.4,0.8,1.1,1s1.7,0.4,2.8,0.4c1.8,0,1.8,0,3.6,0h3.5c1.7,0,1.7,0.1,3.5,0.1c1.7,0,1.7-0.1,3.6-0.1c1.7,0,1.7,0,3.3,0
		c1.8,0,1.8,0,3.4,0c1.8,0,1.8,0.1,3.5,0.1c1.9,0,1.9,0,3.6,0h3.5H39c1.7,0,1.7,0,3.6,0c1.7,0,1.7,0,3.5,0c0.5,0,1.1-0.1,1.5-0.2
		h1.6c1.7,0,1.7,0.1,3.5,0.1c1.7,0,1.7-0.1,3.6-0.1c1.7,0,1.7,0,3.3,0c1.8,0,1.8,0,3.5,0c1.8,0,1.8,0.1,3.5,0.1c1.9,0,1.9,0,3.6,0
		h3.5h3.5c1.7,0,1.7,0,3.6,0c1.7,0,1.7,0,3.5,0c0.2,0,0.5,0,0.7,0c0.8,0,1.2-0.1,2.6-0.1c1.7,0,1.7,0,3.3,0c1.8,0,1.8,0,3.5,0
		c1.8,0,1.8,0.1,3.5,0.1c1.9,0,1.9,0,3.6,0h3.4h3.5c1.7,0,1.7,0,3.6,0c1.7,0,1.7,0,3.5,0c0.5,0,1.1-0.1,1.5-0.2h1.6
		c1.7,0,1.7,0.1,3.5,0.1c1.7,0,1.7-0.1,3.6-0.1c1.7,0,1.7,0,3.3,0c1.8,0,1.8,0,3.5,0c1.8,0,1.8,0.1,3.5,0.1c1.9,0,1.9,0,3.6,0h3.5
		h3.5c1.7,0,1.7,0,3.6,0c1.7,0,1.7,0,3.5,0c0.5,0,1.1-0.1,1.5-0.2h0.7c1.7,0,1.7,0.1,3.5,0.1c1.7,0,1.7-0.1,3.6-0.1
		c1.7,0,1.7,0,3.3,0c1.8,0,1.8,0,3.5,0c1.8,0,1.8,0.1,3.5,0.1c1.9,0,1.9,0,3.6,0h3.5h3.5c1.7,0,1.7,0,3.6,0c1.7,0,1.7,0,3.5,0
		c0.5,0,1.1-0.1,1.5-0.2h1.6c1.7,0,1.7,0.1,3.4,0.1s1.7-0.1,3.6-0.1c1.7,0,1.7,0,3.3,0c1.8,0,1.8,0,3.5,0c1.8,0,1.8,0.1,3.5,0.1
		c1.9,0,1.9,0,3.6,0h3.4h3.5c1.7,0,1.7,0,3.6,0c1.7,0,1.7,0,3.5,0c0.5,0,1-0.1,1.4-0.1c0.6,0,1,0.1,2.1,0.1c1.7,0,1.7-0.1,3.6-0.1
		c1.7,0,1.7,0,3.3,0c1.8,0,1.8,0,3.5,0c1.8,0,1.8,0.1,3.5,0.1c1.9,0,1.9,0,3.6,0h3.5h3.5c1.7,0,1.7,0,3.6,0c1.7,0,1.7,0,3.5,0
		c0.5,0,1.1-0.1,1.5-0.2h1.6c1.7,0,1.7,0.1,3.5,0.1c1.7,0,1.7-0.1,3.6-0.1c1.7,0,1.7,0,3.3,0c1.8,0,1.8,0,3.5,0
		c1.8,0,1.8,0.1,3.5,0.1c1.9,0,1.9,0,3.6,0h3.4c0.3,0,0.6,0,1.1,0c1,0,1.4,0,2,0h0.4c1.7,0,1.7,0,3.6,0c1.7,0,1.7,0,3.5,0
		c0.5,0,0.9,0,1.3-0.1c1.4,0,1.6,0.1,3.1,0.1c1.9,0,1.9,0,3.6,0h3.5h3.5c1.7,0,1.7,0,3.6,0c1.7,0,1.7,0,3.5,0c0.5,0,1.1-0.1,1.5-0.2
		h1.6c1.7,0,1.7,0.1,3.4,0.1c1.7,0,1.7-0.1,3.6-0.1c1.7,0,1.7,0,3.3,0c1.8,0,1.8,0,3.5,0c1.8,0,1.8,0.1,3.5,0.1c1.9,0,1.9,0,3.6,0
		h3.4h3.5c1.7,0,1.7,0,3.6,0c1.7,0,1.7,0,3.5,0c0.2,0,0.5,0,0.7,0c0.8,0,1.2-0.1,2.6-0.1c1.7,0,1.7,0,3.3,0c1.8,0,1.8,0,3.5,0
		c1.8,0,1.8,0.1,3.4,0.1c1.9,0,1.9,0,3.6,0h3.5h3.5c1.7,0,1.7,0,3.6,0c1.7,0,1.7,0,3.5,0c0.5,0,1.1-0.1,1.5-0.2h1.6
		c1.7,0,1.7,0.1,3.5,0.1c1.7,0,1.7-0.1,3.6-0.1c1.7,0,1.7,0,3.3,0c1.8,0,1.8,0,3.5,0c1.8,0,1.8,0.1,3.5,0.1c1.9,0,1.9,0,3.6,0h3.5
		h3.5c1.7,0,1.7,0,3.6,0c1.7,0,1.7,0,3.5,0c0.5,0,1.1-0.1,1.5-0.2h0.7c1.7,0,1.7,0.1,3.4,0.1c1.7,0,1.7-0.1,3.6-0.1
		c1.7,0,1.7,0,3.3,0c1.8,0,1.8,0,3.5,0c1.8,0,1.8,0.1,3.5,0.1c1.9,0,1.9,0,3.6,0h3.5h3.4c1.7,0,1.7,0,3.6,0c1.7,0,1.7,0,3.5,0
		c0.5,0,1.1-0.1,1.5-0.2h1.6c1.7,0,1.7,0.1,3.4,0.1c1.7,0,1.7-0.1,3.6-0.1c1.7,0,1.7,0,3.3,0c1.8,0,1.8,0,3.4,0
		c1.8,0,1.8,0.1,3.5,0.1c1.9,0,1.9,0,3.6,0h3.5h3.5c1.7,0,1.7,0,3.6,0c1.7,0,1.7,0,3.5,0c0.5,0,1-0.1,1.4-0.1c0.6,0,1,0.1,2.1,0.1
		c1.7,0,1.7-0.1,3.6-0.1c1.7,0,1.7,0,3.3,0c1.8,0,1.8,0,3.5,0c1.8,0,1.8,0.1,3.4,0.1c1.9,0,1.9,0,3.6,0h3.5h3.5c1.7,0,1.7,0,3.6,0
		c1.7,0,1.7,0,3.5,0c0.5,0,1.1-0.1,1.5-0.2h1.6c1.7,0,1.7,0.1,3.5,0.1c1.7,0,1.7-0.1,3.6-0.1c1.7,0,1.7,0,3.3,0c1.8,0,1.8,0,3.5,0
		c1.8,0,1.8,0.1,3.5,0.1c1.9,0,1.9,0,3.6,0h3.4h3.5c1.7,0,1.7,0,3.6,0c1.7,0,1.7,0,3.5,0c0.5,0,1-0.1,1.5-0.2h2.9
		c1.7,0,1.7,0.1,3.5,0.1c1.7,0,1.7-0.1,3.6-0.1c1.7,0,1.7,0,3.3,0c1.8,0,1.8,0,3.5,0c1.8,0,1.8,0.1,3.5,0.1c1.9,0,1.9,0,3.6,0h3.4
		h3.5c1.7,0,1.7,0,3.6,0c1.7,0,1.7,0,3.5,0c0.5,0,1.1-0.1,1.5-0.2h1.6c1.7,0,1.7,0.1,3.4,0.1s1.7-0.1,3.6-0.1c1.7,0,1.7,0,3.3,0
		c1.8,0,1.8,0,3.5,0c1.8,0,1.8,0.1,3.5,0.1c1.9,0,1.9,0,3.6,0h3.5h3.4c1.7,0,1.7,0,3.6,0c1.7,0,1.7,0,3.5,0c0.2,0,0.5,0,0.7,0
		c0.8,0,1.2-0.1,2.6-0.1c1.7,0,1.7,0,3.3,0c1.8,0,1.8,0,3.4,0c1.8,0,1.8,0.1,3.5,0.1c1.9,0,1.9,0,3.6,0h3.5h3.5c1.7,0,1.7,0,3.6,0
		c1.7,0,1.7,0,3.5,0c0.5,0,1.1-0.1,1.5-0.2h1.6c1.7,0,1.7,0.1,3.4,0.1s1.7-0.1,3.6-0.1c1.7,0,1.7,0,3.3,0c1.8,0,1.8,0,3.5,0
		c1.8,0,1.8,0.1,3.4,0.1c1.9,0,1.9,0,3.6,0h3.5h3.5c1.7,0,1.7,0,3.6,0c1.7,0,1.7,0,3.5,0c0.5,0,1.1-0.1,1.5-0.2h0.7
		c1.7,0,1.7,0.1,3.4,0.1s1.7-0.1,3.6-0.1c1.7,0,1.7,0,3.3,0c1.8,0,1.8,0,3.5,0c1.8,0,1.8,0.1,3.4,0.1c1.9,0,1.9,0,3.6,0h3.4h3.5
		c1.7,0,1.7,0,3.6,0c1.7,0,1.7,0,3.4,0c0.5,0,1.1-0.1,1.5-0.2h1.6c1.7,0,1.7,0.1,3.4,0.1s1.7-0.1,3.6-0.1c1.7,0,1.7,0,3.3,0
		c1.8,0,1.8,0,3.5,0c1.8,0,1.8,0.1,3.4,0.1c1.9,0,1.9,0,3.6,0h3.5h3.4c1.7,0,1.7,0,3.6,0c1.7,0,1.7,0,3.4,0c0.5,0,1-0.1,1.4-0.1
		c0.6,0,1,0.1,2.1,0.1c1.7,0,1.7-0.1,3.6-0.1c1.7,0,1.7,0,3.3,0c1.8,0,1.8,0,3.4,0c1.8,0,1.8,0.1,3.4,0.1c1.9,0,1.9,0,3.6,0h3.5h3.4
		c1.7,0,1.7,0,3.6,0c1.7,0,1.7,0,3.4,0c0.5,0,1.1-0.1,1.5-0.2h1.6c1.7,0,1.7,0.1,3.4,0.1s1.7-0.1,3.6-0.1c1.7,0,1.7,0,3.3,0
		c1.8,0,1.8,0,3.5,0c1.8,0,1.8,0.1,3.4,0.1c1.9,0,1.9,0,3.6,0h3.5h3.5c1.7,0,1.7,0,3.6,0c1.7,0,1.7,0,3.5,0c1,0,1.9-0.2,2.7-0.5
		c0.7-0.2,1.1-0.6,1.1-1v-1.3c0-0.6,0.2-0.6,0.2-1.3C874,246.2,873.9,246.2,873.9,245.5"/>
	<path class="st0" d="M353.3,299c0.1,0.7-0.3,1.3-0.8,1.9s-0.9,1-1.6,1.1s-1.4,0-2-0.4c-0.6-0.5-1.2-1-1.8-1.3
		c-0.6-0.4-1.2-0.8-1.9-1.2c-0.7-0.4-1.4-0.7-2.1-0.9c-0.7-0.3-1.5-0.2-2.2-0.5c-0.7-0.2-1.4-0.5-2-0.7c-0.7-0.2-1.4-0.5-2.2-0.5
		c-0.7-0.1-1.4,0.2-2.2,0.2c-0.8,0-1.6-0.3-2.3-0.3c-0.9,0-1.6,0.4-2.3,0.6c-0.7,0.2-1.5,0.4-2.1,1c-0.5,0.5-1,1-1.4,1.6
		s-0.4,1.4-0.7,2c-0.3,0.6-0.5,1.3-0.7,2s-0.5,1.3-0.7,2s-0.3,1.4-0.4,2.1s-0.3,1.4-0.4,2.1s-0.4,1.3-0.5,2s0,1.4-0.1,2.1
		s-0.4,1.4-0.5,2.1s-0.4,1.4-0.5,2.1s-0.1,1.4-0.2,2.1c-0.1,0.8-0.1,1.8-0.2,2.6c-0.1,0.9-0.2,1.8-0.4,2.6c-0.1,0.9-0.5,1.7-0.6,2.6
		c-0.1,0.8-0.4,1.6-0.9,1.9c-0.6,0.4-1.4,0.2-2.1,0.1s-1.2-0.5-1.6-1.1c-0.4-0.5-0.7-1-0.5-1.8c0,0,0.1-1,0.2-2.1
		c0.1-0.7,0.1-1.4,0.2-2.1c0.2-1.2,0.3-1,0.5-2c0.1-0.6,0-1.2-0.3-1.7s-0.9-0.7-1.5-0.8c-1.2-0.2-1.2-0.1-2.3-0.3
		c-1.2-0.2-1.2-0.3-2.3-0.5c-1.2-0.2-1.2,0-2.4-0.2c-1.2-0.2-1.1-0.3-2.3-0.5c-1.2-0.2-1.2-0.1-2.4-0.3c-1.2-0.2-1.2-0.2-2.3-0.4
		c-1.1-0.2-2.1,0.4-2.3,1.5c-0.2,1.1-0.3,1-0.5,2.1s-0.1,1.1-0.3,2.1L297,324c-0.1,0.8-0.4,1.5-1,1.8c-0.6,0.4-1.4,0.6-2.1,0.5
		s-1.5-0.5-1.9-1.1c-0.4-0.5-0.5-1.3-0.4-2.1c0,0,0.3-0.9,0.6-2.3c0.1-0.7,0-1.5,0.1-2.4c0.1-0.7,0.5-1.5,0.7-2.3
		c0.1-0.7,0-1.6,0.1-2.3c0.1-0.8,0.4-1.5,0.5-2.3s0.5-1.5,0.6-2.3c0.2-0.8,0-1.6,0.2-2.4c0.1-0.8,0.2-1.6,0.3-2.4l0.4-2.3
		c0.2-1.4,0.4-1.1,0.6-2.3c0.1-0.8,0.5-1.4,1-1.7c0.6-0.4,1.2-0.4,1.9-0.3c0.7,0.1,1.4,0.3,1.8,0.8s0.6,1.2,0.4,2
		c-0.2,0.9-0.2,1.9-0.4,2.8c-0.2,0.9-0.2,1.9-0.3,2.8c-0.1,0.7-0.6,1.7-0.6,2.5c0,0.9,0.4,1.5,1.5,1.7c0,0,0.9,0.2,2.3,0.5
		c0.7,0.1,1.4,0.5,2.3,0.6c0.7,0.1,1.6-0.2,2.4,0c0.8,0.1,1.6,0.4,2.3,0.5c0.8,0.1,1.6,0.4,2.3,0.5c1.4,0.2,1.1,0.3,2.3,0.5
		c0.7,0.1,1.5-0.1,2-0.5s0.6-1.1,0.7-1.8c0.1-0.7,0.3-1.5,0.4-2.2l0.5-2.2c0.2-0.7,0.3-1.5,0.5-2.2s0.4-1.4,0.6-2.1
		c0.2-0.8,0.7-1.5,1-2.3s0.7-1.5,1.1-2.2s0.6-1.6,1.1-2.2c0.5-0.7,1.2-1.1,1.9-1.6c0.5-0.4,1.1-0.8,1.6-1c0.6-0.3,1.2-0.4,1.9-0.6
		c0.6-0.2,1.2-0.5,1.8-0.6c0.8-0.1,1.6-0.3,2.3-0.4c0.9,0,1.7,0,2.3,0c0.7,0,1.4,0.3,2.1,0.3c0.7,0.1,1.4,0.1,2.1,0.3
		c0.7,0.1,1.4,0.2,2.1,0.4c0.7,0.2,1.5,0.1,2.1,0.4c0.7,0.2,1.3,0.6,2,0.8c0.8,0.3,1.5,0.9,2.3,1.3s1.5,0.8,2.3,1.3
		c0.8,0.4,1.5,0.9,2.2,1.5C352.6,297.8,353.2,298.4,353.3,299"/>
	<path class="st0" d="M358.6,333.3c-0.3,0.6-0.9,1.2-1.6,1.4c-0.4,0.1-0.8,0.1-1.2,0c-1-0.1-1.8-0.8-2.2-1.8l-0.8-2.2
		c-0.3-0.8-0.8-1.1-2.1-1.4c-1-0.2-1-0.1-2.1-0.2s-1.1-0.2-2.1-0.3l-2.1-0.2c-1-0.1-1-0.1-2.1-0.2c-1-0.1-1-0.1-2.1-0.3
		c-1.1-0.1-1.1-0.5-2.1-0.3c-1.2,0.2-1.2,0.4-2,1.2c-0.8,0.7-0.6,0.9-1.2,1.8s-1.6,1.3-2.6,1.2c-0.4,0-0.8-0.3-1.1-0.5
		c-0.6-0.4-1.2-0.9-1.3-1.6c-0.1-0.7,0-1.5,0.4-2.1l1.2-1.8c0.6-1,0.6-1,1.2-1.9s0.7-0.9,1.3-1.8c0.6-0.9,0.6-0.9,1.2-1.9
		c0.6-0.9,0.6-0.9,1.2-1.8s0.7-0.9,1.3-1.8c0.6-0.9,0.6-1,1.2-1.9s0.6-1,1.2-1.9s0.6-0.9,1.2-1.9c0.6-0.9,0.6-0.9,1.2-1.8
		s0.6-1,1.2-1.9s0.6-0.9,1.2-1.8c0.5-0.7,1.2-1.1,2-1.2c0.6-0.1,1.3,0,1.9,0.3c0.5,0.3,1,0.8,1.2,1.5s0.4,1.4,0.6,2s0.6,1.3,0.8,2
		c0.2,0.7,0.4,1.4,0.6,2.1s0.6,1.3,0.9,1.9c0.3,0.7,0.5,1.4,0.7,2.1c0.3,0.7,0.5,1.4,0.7,2.1c0.3,0.7,0.6,1.4,0.8,2.1l0.7,2.1
		c0.3,0.7,0.3,1.5,0.5,2.2c0.3,0.7,0.7,1.3,1,2c0.2,0.7,0.3,1.5,0.6,2.2c0.2,0.7,0.5,1.4,0.8,2.1
		C358.8,331.9,358.9,332.7,358.6,333.3 M343.8,323.1l2.4,0.3c1.2,0.1,1.2,0.1,2.4,0.3c0.8,0.1,1.4-0.6,1.2-1.4
		c-0.1-0.3-0.2-0.3-0.3-0.6c-0.4-1.1-0.3-1.2-0.7-2.3c-0.4-1.2-0.6-1.1-1-2.2c-0.4-1.2-0.1-1.3-0.8-2.3c-0.4-0.7-1-0.8-1.4-0.2
		c-0.1,0.1-0.1,0.2-0.2,0.4c-0.7,1-0.7,1-1.3,2c-0.7,1-0.9,0.9-1.5,2c-0.7,1-0.5,1.2-1.2,2.2c-0.2,0.3-0.3,0.2-0.5,0.5
		c-0.3,0.5,0,1.2,0.6,1.3C342.6,323.1,342.7,323,343.8,323.1"/>
	<path class="st0" d="M396.9,309.5c0.4,0.5,0.7,1.2,0.7,1.9c-0.1,1.2,0,1.2-0.1,2.4c-0.1,1.2-0.2,1.2-0.3,2.4c-0.1,1.2,0,1.2,0,2.4
		c-0.1,1.2-0.1,1.2-0.2,2.4c-0.1,1.2,0,1.2-0.1,2.4c-0.1,1.2-0.2,1.2-0.2,2.4c-0.1,1.2,0,1.2-0.1,2.4c-0.1,1.2-0.2,1.2-0.2,2.4
		c-0.1,1.2,0.1,1.2,0,2.4c-0.1,1.2,0,1.2-0.1,2.4c0,0.7-0.6,1.3-1.1,1.8c-0.5,0.4-1.1,0.8-1.9,0.7c-0.7,0-1.3-0.2-1.7-0.7
		c-0.1-0.1-0.1-0.3-0.2-0.4c-0.7-0.9-0.8-0.9-1.5-1.8c-0.8-0.9-0.9-0.8-1.7-1.6c-0.8-0.9-0.7-1-1.4-1.9c-0.7-0.9-0.8-0.8-1.6-1.7
		c-0.7-0.9-0.8-0.8-1.5-1.7c-0.8-0.9-0.7-1-1.5-1.8c-0.7-0.9-0.7-0.9-1.4-1.8c-0.8-0.9-0.8-0.9-1.6-1.7c-0.8-0.9-0.8-0.9-1.5-1.7
		c-0.8-0.9-0.8-0.9-1.6-1.7c-0.4-0.5-1.1-0.7-1.7-0.5s-1,0.7-1,1.4c-0.1,1.1,0,1.1-0.1,2.3c-0.1,1.1-0.1,1.1-0.2,2.3
		c-0.1,1.1-0.2,1.1-0.3,2.3c-0.1,1.2,0,1.2-0.1,2.3c-0.1,1.1,0,1.1-0.1,2.3c-0.1,1.2,0,1.2-0.1,2.3c0,0.7-0.4,1.4-0.9,1.8
		c-0.5,0.5-1.2,0.7-2,0.6c-0.7,0-1.4-0.3-1.9-0.8c-0.4-0.5-0.6-1.3-0.6-2c0.1-1.2,0-1.2,0.1-2.4c0.1-1.2,0.1-1.2,0.2-2.4
		s0-1.2,0.1-2.4l0.2-2.4l0.2-2.3c0.1-1.2,0.1-1.2,0.2-2.4c0.1-1.2,0-1.2,0.1-2.4c0.1-1.2,0.1-1.2,0.2-2.4c0.1-1.2,0.1-1.2,0.2-2.4
		c0.1-1.2,0-1.2,0-2.3c0-0.8,0.4-1.5,0.9-1.9s1.2-0.7,2-0.7c0.4,0,0.7,0.2,1.1,0.4c0.5,0.1,1.1,0.4,1.4,0.8c0.7,0.8,0.8,0.8,1.5,1.6
		c0.7,0.8,0.5,1,1.3,1.8c0.7,0.8,0.8,0.8,1.5,1.6c0.7,0.8,0.8,0.8,1.5,1.6l1.4,1.7c0.7,0.8,0.7,0.8,1.4,1.6c0.7,0.8,0.7,0.8,1.4,1.7
		l1.4,1.7c0.7,0.8,0.6,0.9,1.3,1.7c0.7,0.8,0.8,0.8,1.5,1.6c0.6,0.6,1.3,0.8,2,0.6c0.7-0.2,1.1-0.9,1.2-1.7c0.1-1,0.1-1,0.2-2.1
		s0-1.1,0-2.1l0.1-2.1c0.1-1,0.2-1,0.2-2.1c0.1-1.1,0.1-1.1,0.2-2.1s-0.1-1,0-2.1c0-0.8,0.5-1.3,1-1.8s1.2-0.9,1.9-0.8
		C395.8,308.6,396.4,309,396.9,309.5"/>
	<path class="st0" d="M434.3,324.4c0,0.6,0,1.2,0,1.8c-0.1,0.7-0.3,1.4-0.5,2.1s-0.5,1.3-0.8,1.9c-0.3,0.7-0.7,1.3-1.2,1.9
		s-1,1.2-1.6,1.7s-1.2,1.1-1.9,1.5c-0.6,0.4-1.3,0.8-2.1,1.2c-0.1,0.1-0.2,0.1-0.3,0.2c-0.7,0.3-1.5,0.5-2.2,0.7s-1.5,0.4-2.2,0.5
		c-0.8,0.1-1.5,0.4-2.3,0.4c-0.8,0.1-1.6,0.1-2.5,0.1c-0.8,0-1.6,0-2.4-0.1c-0.8,0-1.6-0.1-2.4-0.1c-1,0-2-0.1-2.9-0.1
		s-1.8,0-2.6-0.5c-0.7-0.5-1-1.3-1-2.2c0,0,0.1-0.9,0.1-2.4c0-0.7,0-1.5,0-2.4c0-0.7-0.1-1.5-0.1-2.3s0.1-1.6,0.1-2.4v-2.4
		c0-0.8,0-1.6,0-2.4s0-1.6,0-2.4s0.2-1.6,0.3-2.4c0-0.9,0-1.7,0-2.4c0-1.5,0-2.3,0-2.3c0-0.9,0.5-1.6,1.2-2.1
		c0.9-0.6,1.9-0.7,2.9-0.7c0.8,0,1.6,0,2.5,0c0.8,0,1.6,0.2,2.5,0.2c0.8,0,1.7,0.1,2.5,0.1s1.6,0.1,2.4,0.2s1.6,0.2,2.4,0.4
		c0.8,0.2,1.5,0.5,2.3,0.8s1.5,0.7,2.2,1c0.7,0.4,1.4,0.8,2,1.3c0.7,0.5,1.3,1,1.8,1.6c0.6,0.6,1.2,1.2,1.6,1.8
		c0.5,0.7,0.8,1.4,1.1,2.2c0.2,0.4,0.5,1.1,0.7,2c0.2,0.6,0.3,1.3,0.4,2.1C434.3,323.3,434.3,323.9,434.3,324.4 M428.9,325.7
		c0.1-0.8,0.1-1.5-0.1-2.4c-0.2-1.3-0.5-2.3-0.7-2.6c-0.3-0.6-0.6-1.3-1.1-1.9c-0.5-0.5-1.1-1-1.7-1.4s-1.3-0.7-1.9-1.1
		s-1.3-0.7-2-0.9c-0.7-0.2-1.4-0.4-2.1-0.5s-1.5-0.2-2.2-0.2c-1.5-0.1-1.5,0-3,0c-0.9,0-1.7,0.1-2.3,0.7c-0.6,0.5-0.9,1.4-0.9,2.2
		c0,1.1,0,1.1,0,2.3c0,1.2-0.1,1.2-0.1,2.3c0,1.2,0.2,1.2,0.2,2.3c0,1.1,0,1.1-0.1,2.3c0,1.2-0.2,1.2-0.2,2.3c0,0.7,0.2,1.4,0.5,1.9
		c0.3,0.6,0.8,1.1,1.4,1.4c0.5,0.3,1.2,0.4,1.9,0.4c1.2,0,1.2,0,2.4,0h0.2l0,0c0.8,0,1.6,0,2.3-0.1c0.8-0.1,1.6-0.3,2.3-0.5
		c0.8-0.2,1.6-0.4,2.3-0.7c1-0.5,1.8-1,2.4-1.5c1-0.8,1.5-1.5,1.8-2.2C428.4,327.2,428.8,326.5,428.9,325.7"/>
	<path class="st0" d="M469.8,309.3c0.5,0.4,0.8,1,0.8,1.8l0.1,2.4c0,0.7,0.2,1.5,0.3,2.4c0,0.7-0.1,1.5,0,2.4c0,0.8,0,1.5,0,2.4
		c0,0.8,0.2,1.6,0.2,2.4s-0.1,1.6,0,2.4c0,0.8,0,1.6,0,2.4s0.2,1.6,0.2,2.4c0,0.9,0.1,1.7,0.1,2.4l0.1,2.4c0,0.7-0.2,1.4-0.7,2
		c-0.4,0.5-1.1,0.9-1.8,0.9c-0.8,0.1-1.4-0.4-2-0.9c-0.5-0.5-1-1.1-1.1-1.9c0-1.1,0.2-1.1,0.1-2.3c0-1.2-0.2-1.2-0.3-2.3
		c0-1.2,0.1-1.2,0.1-2.3c0-1.1-0.2-1.1-0.2-2.3c0-1.2-0.1-1.2-0.1-2.3l-0.1-2.3c0-1.2-1.4-1.8-2.3-0.9c0,0.1-0.1,0.1-0.2,0.2
		c-0.4,0.5-0.7,0.9-1.2,1.4c-0.7,0.7-1.5,1.3-2.2,2.1c-0.4,0.5-0.8,1-1.3,1.5c-0.5,0.4-1.1,0.8-1.8,0.8c-0.6,0-1.1-0.3-1.6-0.6
		c-0.2-0.2-0.5-0.3-0.7-0.5c-0.6-0.5-1.1-1.1-1.7-1.6c-0.7-0.6-1.3-1.1-2-1.7c-0.3-0.3-0.6-0.5-0.9-0.9c-0.5-0.4-1.1-0.6-1.6-0.3
		c-0.5,0.2-0.9,0.8-0.9,1.4c0,1.1,0.1,1.1,0.1,2.3l0.1,2.3c0,1.1,0,1.1,0,2.3c0,1.2,0,1.2,0,2.3c0,1.1,0.1,1.1,0.2,2.3
		c0,1.1,0,1.1,0,2.3c0,0.7-0.2,1.3-0.7,1.8s-1,0.9-1.7,0.9c-0.8,0.1-1.5-0.3-2-0.8s-1-1.1-1-1.9c0-1.2,0.1-1.2,0-2.3
		c0-1.2,0-1.2,0-2.4c0-1.2-0.2-1.2-0.2-2.4l-0.1-2.4c0-1.2,0.1-1.2,0.1-2.3c0-1.2-0.2-1.2-0.2-2.4c0-1.2,0-1.2,0-2.4
		c0-1.2-0.1-1.2-0.2-2.4c0-1.2,0.1-1.2,0-2.3c0-1.2,0-1.2,0-2.4c0-0.8,0.3-1.4,0.8-1.9s1.1-1,1.9-1s1.6,0.5,2.1,1.1
		c0,0,0.7,0.6,1.8,1.5c0.5,0.5,1.1,1.1,1.7,1.6l1.7,1.6c0.6,0.5,1.3,1.1,1.8,1.5c1,0.9,1.7,1.6,1.7,1.6c0.8,0.8,1.7,0.7,2.4,0.2
		c0.7-0.5,1.3-1.3,1.9-1.9l1.5-1.6c0.5-0.5,0.9-1.1,1.4-1.7c0.5-0.5,1-1,1.6-1.5c0.7-0.8,1.3-1.7,2.1-2.4c0.6-0.5,1.3-0.7,2-0.7
		C468.6,308.6,469.3,308.8,469.8,309.3"/>
	<path class="st0" d="M508.7,332.8c-0.2,0.7-0.6,1.3-1.3,1.7c-0.4,0.2-0.8,0.3-1.2,0.3c-1,0.1-1.9-0.4-2.5-1.3l-1.2-2
		c-0.4-0.7-1-0.9-2.3-1c-1,0-1,0.1-2.1,0.2s-1.1,0-2.1,0.1l-2.1,0.2c-1,0.1-1,0.1-2.1,0.2c-1,0.1-1,0.1-2.1,0.1
		c-1.1,0.1-1.1-0.3-2.1,0.1c-1.1,0.5-1.1,0.6-1.8,1.6c-0.7,0.9-0.4,1-0.9,2c-0.4,1-1.4,1.6-2.3,1.7c-0.4,0-0.8-0.2-1.2-0.3
		c-0.7-0.3-1.3-0.7-1.6-1.3c-0.3-0.6-0.3-1.4,0-2.1l0.8-2c0.4-1,0.4-1,0.8-2.1c0.4-1,0.5-1,0.9-2s0.4-1,0.8-2.1c0.4-1,0.4-1,0.8-2
		s0.6-1,0.9-2c0.4-1,0.4-1,0.8-2.1c0.4-1,0.4-1,0.8-2.1c0.4-1,0.4-1,0.8-2.1c0.4-1,0.5-1,0.9-2s0.4-1,0.8-2.1c0.4-1,0.4-1,0.8-2
		c0.3-0.8,1-1.3,1.7-1.6c0.6-0.2,1.3-0.2,1.9-0.1c0.6,0.2,1.1,0.6,1.5,1.2s0.6,1.3,1,1.9s0.8,1.2,1.2,1.8c0.4,0.6,0.6,1.3,1,1.9
		s0.9,1.1,1.2,1.7c0.4,0.6,0.7,1.3,1.1,1.9s0.8,1.3,1.1,1.9c0.4,0.6,0.8,1.2,1.2,1.9l1.1,1.9c0.4,0.6,0.6,1.4,1,2s1,1.2,1.4,1.8
		c0.4,0.6,0.6,1.4,1,2s0.8,1.3,1.2,1.9C508.7,331.4,508.9,332.2,508.7,332.8 M492.3,325.7l2.4-0.2c1.2-0.1,1.2-0.1,2.4-0.2
		c0.8-0.1,1.3-0.9,0.9-1.6c-0.2-0.3-0.3-0.2-0.4-0.5c-0.6-1-0.5-1.1-1.1-2.2c-0.7-1.1-0.8-1-1.4-2c-0.6-1.1-0.4-1.2-1.2-2.1
		c-0.6-0.6-1.1-0.5-1.4,0.1c-0.1,0.2,0,0.2-0.1,0.4c-0.4,1.1-0.4,1.1-0.9,2.3c-0.4,1.1-0.7,1.1-1.1,2.2c-0.5,1.1-0.2,1.2-0.7,2.4
		c-0.1,0.3-0.3,0.2-0.4,0.6c-0.2,0.6,0.3,1.2,0.9,1.2C491.1,325.9,491.1,325.8,492.3,325.7"/>
	<path class="st0" d="M544.1,316.1c0.1,0.6,0.2,1.2,0.2,1.8c0,0.7-0.1,1.4-0.2,2.1c-0.1,0.7-0.3,1.3-0.6,2c-0.2,0.7-0.6,1.4-0.9,2.1
		c-0.4,0.7-0.8,1.3-1.3,1.9s-1,1.2-1.6,1.7s-1.2,1-1.9,1.5c-0.1,0.1-0.2,0.1-0.3,0.2c-0.7,0.4-1.4,0.7-2.1,1
		c-0.7,0.3-1.4,0.6-2.1,0.8c-0.7,0.3-1.4,0.6-2.2,0.7c-0.8,0.2-1.6,0.4-2.4,0.5c-0.8,0.1-1.6,0.2-2.4,0.3c-0.8,0.1-1.6,0.1-2.4,0.2
		c-1,0.1-2,0.2-2.9,0.3c-0.9,0.1-1.7,0.3-2.6-0.2c-0.8-0.4-1.2-1.2-1.3-2c0,0,0-0.9-0.2-2.4c-0.1-0.7-0.3-1.5-0.4-2.3
		c-0.1-0.7-0.3-1.5-0.4-2.3c-0.1-0.8-0.1-1.6-0.2-2.4l-0.3-2.4c-0.1-0.8-0.2-1.6-0.3-2.3c-0.1-0.8-0.3-1.6-0.4-2.3
		c-0.1-0.8,0-1.6-0.1-2.4c-0.1-0.9-0.3-1.7-0.4-2.3c-0.2-1.4-0.3-2.3-0.3-2.3c-0.1-0.9,0.3-1.7,0.9-2.2c0.8-0.7,1.8-0.9,2.8-1.1
		c0.8-0.1,1.6-0.2,2.5-0.3c0.8-0.1,1.7,0,2.5-0.1s1.7-0.2,2.5-0.3c0.8-0.1,1.6-0.1,2.4-0.1c0.8,0,1.7-0.1,2.5,0.1
		c0.8,0.1,1.6,0.2,2.4,0.4c0.8,0.2,1.6,0.4,2.3,0.7c0.8,0.3,1.5,0.6,2.2,1s1.4,0.8,2,1.3c0.7,0.5,1.3,1,1.8,1.6c0.6,0.6,1,1.3,1.4,2
		c0.2,0.4,0.6,1,1,1.9c0.3,0.6,0.5,1.2,0.7,2C543.9,315,544,315.6,544.1,316.1 M538.9,318.2c0-0.8-0.2-1.5-0.4-2.3
		c-0.3-1.2-0.8-2.2-1-2.5c-0.4-0.6-0.8-1.2-1.4-1.7c-0.5-0.5-1.2-0.8-1.9-1.2c-0.6-0.4-1.3-0.6-2.1-0.8c-0.7-0.3-1.4-0.5-2.1-0.6
		c-0.7-0.1-1.4-0.2-2.2-0.2c-0.7,0-1.5,0-2.2,0.1c-1.5,0.2-1.5,0.2-3,0.4c-0.8,0.1-1.7,0.4-2.1,1c-0.5,0.6-0.7,1.5-0.6,2.3
		c0.1,1.1,0.2,1.1,0.3,2.3c0.1,1.2,0.1,1.2,0.2,2.3c0.1,1.2,0.3,1.1,0.5,2.3c0.1,1.1,0.1,1.1,0.3,2.3c0.1,1.2,0,1.2,0.1,2.3
		c0.1,0.7,0.4,1.3,0.7,1.8c0.4,0.5,1,1,1.6,1.2s1.2,0.2,1.9,0.2c1.2-0.2,1.2-0.2,2.4-0.3h0.2l0,0c0.8-0.1,1.6-0.3,2.3-0.5
		c0.8-0.2,1.5-0.5,2.2-0.9c0.8-0.3,1.5-0.6,2.1-1c0.9-0.6,1.6-1.2,2.2-1.8c0.8-0.9,1.2-1.7,1.4-2.4
		C538.7,319.7,538.9,319,538.9,318.2"/>
	<path class="st0" d="M580.8,319.6c0.5,0.6,0.9,1.2,1,1.7c0.1,0.7-0.1,1.5-0.5,2s-1,0.8-1.8,0.9c0,0,0,0-0.1,0
		c-0.7,0.1-1.3,0.4-1.9,0.5s-1.3,0.1-2,0.2s-1.3,0.4-2,0.5s-1.3,0.1-2,0.2s-1.4,0.2-2.2,0.3c-0.7,0.1-1.4,0.4-2.1,0.6
		c-0.7,0.1-1.5,0.1-2.2,0.3c-0.7,0.1-1.4,0.3-2.1,0.5c-0.7,0.1-1.5,0.1-2.2,0.2s-1.4,0.3-2.1,0.4c-0.8,0.1-1.7,0.4-2.5,0.3
		c-0.6,0-1.1-0.2-1.6-0.7c-0.5-0.4-0.8-0.9-0.9-1.5c0,0-0.2-0.9-0.5-2.3c-0.1-0.7-0.1-1.5-0.2-2.4c-0.1-0.7-0.2-1.5-0.4-2.3
		c-0.1-0.7-0.4-1.5-0.5-2.3s-0.3-1.6-0.4-2.3c-0.1-0.8-0.4-1.5-0.5-2.3s-0.1-1.6-0.2-2.4c-0.1-0.8-0.4-1.6-0.6-2.3
		c-0.2-0.9-0.2-1.7-0.3-2.3c-0.3-1.4-0.3-1.2-0.5-2.3c-0.1-0.7,0.2-1.4,0.6-1.9c0.5-0.7,1.1-1,1.9-1.2c0.6-0.1,1.3-0.3,2-0.4
		s1.3-0.4,1.9-0.4c0.7-0.1,1.3-0.2,2-0.3c0.7-0.1,1.4-0.2,2.2-0.3s1.5-0.3,2.2-0.4s1.5-0.1,2.2-0.3c0.7-0.1,1.4-0.4,2.1-0.6
		c0.7-0.1,1.5-0.2,2.2-0.3c0.7-0.1,1.3-0.2,2-0.3c0.7-0.1,1.3-0.3,1.9-0.4c0.7-0.1,1.3-0.2,2-0.3c0.7-0.1,1.4,0.1,2,0.5
		c0.5,0.4,0.9,0.9,1.1,1.6c0.1,0.6,0.1,1.3-0.3,2c-0.2,0.6-0.8,1-1.4,1.1c-1.1,0.2-1,0.2-2.1,0.4c-1.1,0.2-1.1,0.1-2.2,0.3
		c-1.1,0.2-1.1,0.3-2.1,0.5c-1.1,0.2-1.1,0.2-2.2,0.3c-1.1,0.2-1.1,0.2-2.2,0.3c-1.1,0.2-1.1,0.1-2.2,0.3c-1.1,0.2-1.1,0.3-2.2,0.5
		c-1.1,0.2-1.1,0.1-2.2,0.3c-0.9,0.2-1.7,0.8-2.2,1.5s-0.8,1.6-0.6,2.6c0.1,0.4,0,0.4,0.1,0.9c0.1,0.8,0.6,1.5,1.2,1.9
		c0.6,0.4,1.4,0.6,2.2,0.5l2.1-0.4c1.1-0.2,1-0.2,2.1-0.4c1.1-0.2,1.1-0.2,2.1-0.3c0.7-0.1,1.5-0.1,2,0.3s1,1,1.1,1.7
		c0.1,0.6-0.1,1.3-0.4,2c-0.3,0.6-0.7,1.1-1.4,1.2c-1.2,0.2-1.1,0-2.4,0.2l-2.3,0.4c-1.3,0.2-2.3,0.6-2.3,0.6
		c-0.7,0.1-1.4,0.4-1.7,1s-0.3,1.3-0.3,2c0.1,0.7,0.3,1.4,0.8,1.9c0.6,0.5,1.5,0.8,2.2,0.7c0,0,0.9-0.3,2.2-0.5
		c0.7-0.1,1.4-0.1,2.3-0.2c0.7-0.1,1.4-0.5,2.2-0.6c0.7-0.1,1.5-0.2,2.2-0.4c0.7-0.1,1.5-0.1,2.2-0.2c0.8-0.1,1.5-0.4,2.2-0.5
		l2.2-0.4c1.3-0.2,1.1-0.2,2.2-0.4C579.7,319,580.3,319.2,580.8,319.6"/>
</g>
</svg>
