<svg width="1455" height="1080" viewBox="0 0 1455 1080" fill="none" xmlns="http://www.w3.org/2000/svg">
    <path d="M392.616 405.942C392.639 406.101 392.684 406.237 392.707 406.396C402.94 394.506 413.287 382.73 423.815 371.09C424.563 370.251 425.335 369.434 426.106 368.594C423.316 352.326 420.752 336.034 418.505 319.698C414.852 293.264 411.971 266.739 409.702 240.192C405.323 187.098 404.097 133.777 407.546 80.9774C409.361 54.5891 412.356 28.337 417.212 2.56126C422.022 -23.1917 428.534 -48.559 437.905 -72.5422C442.579 -84.5225 448.025 -96.0943 454.265 -107.076C460.55 -118.013 467.629 -128.405 475.865 -137.503C492.179 -155.814 513.19 -169.11 536.833 -173.489C560.385 -178.118 585.752 -174.17 609.486 -164.913C621.398 -160.307 633.015 -154.589 644.27 -148.054C655.456 -141.361 666.392 -134.077 676.897 -126.113C697.999 -110.275 717.58 -92.1236 736.232 -73.0187C754.905 -53.8911 772.263 -33.4249 788.986 -12.3687C802.577 4.87563 815.601 22.6191 828.148 40.7256C830.19 39.5684 832.255 38.4113 834.297 37.2541C822.816 18.1265 810.745 -0.683395 797.925 -19.0168C782.36 -41.3209 765.774 -63.0125 747.758 -83.6149C743.175 -88.6974 738.75 -93.9387 733.985 -98.8624L726.929 -106.35L719.645 -113.656C714.858 -118.58 709.73 -123.209 704.715 -127.928C702.219 -130.311 699.542 -132.512 696.978 -134.803C694.369 -137.049 691.827 -139.409 689.105 -141.542L681.027 -148.099C678.327 -150.278 675.468 -152.274 672.7 -154.385L668.502 -157.493C667.096 -158.514 665.621 -159.467 664.191 -160.465C661.287 -162.417 658.428 -164.436 655.501 -166.342C643.702 -173.898 631.291 -180.705 618.222 -186.423C605.175 -192.186 591.266 -196.52 576.767 -198.947C562.314 -201.375 547.202 -201.784 532.318 -199.447C530.457 -199.129 528.574 -198.993 526.736 -198.516L521.222 -197.2C519.384 -196.724 517.524 -196.361 515.731 -195.816L510.331 -194.069C503.207 -191.573 496.218 -188.555 489.683 -184.812C476.433 -177.551 464.77 -167.93 454.537 -157.334C444.281 -146.693 435.682 -134.871 428.103 -122.619C420.547 -110.344 414.194 -97.5238 408.681 -84.4544C397.676 -58.3157 390.007 -31.2693 384.176 -4.04149C381.271 9.57243 378.911 23.2771 376.983 36.9818C375.054 50.7092 373.443 64.4365 372.263 78.1866C367.408 133.21 368.088 188.323 371.741 243.028C375.553 297.734 382.837 352.076 392.548 405.896L392.616 405.942Z" fill="#F8F9FA"/>
    <path d="M1449.74 642.797C1446.06 628.48 1440.5 614.957 1434.06 602.091C1427.57 589.226 1419.99 577.087 1411.78 565.538C1395.31 542.462 1376.31 521.724 1356.19 502.483C1346.11 492.862 1335.7 483.673 1325.03 474.824C1314.37 465.997 1303.53 457.398 1292.43 449.184C1248.14 416.171 1200.88 387.831 1152.39 362.237C1103.81 336.779 1053.75 314.452 1002.84 294.462C951.877 274.586 899.986 257.296 847.481 242.162C801.602 229.115 755.27 217.657 708.506 208.082C694.892 218.633 681.437 229.388 668.141 240.347C672.27 241.141 676.422 241.958 680.552 242.775C733.011 253.167 785.039 265.805 836.454 280.621C887.892 295.324 938.717 312.092 988.567 331.31C1013.53 340.84 1038.26 350.96 1062.67 361.715C1087.09 372.493 1111.18 383.951 1134.96 395.931C1182.45 420.051 1228.47 447.006 1271.62 477.66C1293.13 493.044 1313.89 509.381 1333.29 527.033C1352.69 544.641 1370.87 563.519 1386.37 584.076C1394.1 594.354 1401.11 605.041 1407.17 616.114C1413.19 627.186 1418.31 638.667 1421.72 650.466C1428.75 673.973 1429.05 698.818 1420.36 721.236C1411.94 743.721 1395.26 763.235 1374.93 778.573C1364.76 786.288 1353.81 793.185 1342.32 799.334C1330.75 805.325 1318.82 810.815 1306.52 815.58C1281.97 825.223 1256.22 832.371 1230.17 838.202C1204.1 844.056 1177.55 848.095 1150.87 851.271C1124.16 854.357 1097.3 856.377 1070.34 857.489C1043.39 858.714 1016.36 858.873 989.316 858.555C1043.16 863.637 1097.5 865.475 1151.84 862.389C1179 860.847 1206.16 858.124 1233.16 853.609C1239.9 852.383 1246.66 851.362 1253.36 849.887L1263.43 847.8L1273.46 845.44C1280.18 843.943 1286.78 842.014 1293.45 840.221C1296.79 839.359 1300.05 838.225 1303.37 837.249C1306.66 836.205 1309.99 835.275 1313.24 834.095L1323.06 830.646C1326.33 829.489 1329.53 828.128 1332.77 826.857L1337.63 824.928C1339.24 824.27 1340.83 823.522 1342.42 822.818C1345.59 821.389 1348.81 820.005 1351.97 818.507C1364.61 812.426 1376.9 805.438 1388.63 797.315C1400.39 789.237 1411.37 779.662 1421.06 768.612C1430.72 757.585 1438.98 744.924 1444.81 731.038C1445.52 729.291 1446.38 727.612 1446.95 725.819L1448.72 720.442C1449.28 718.649 1449.94 716.857 1450.42 715.042L1451.76 709.528C1453.37 702.154 1454.46 694.621 1454.71 687.088C1455.48 671.999 1453.41 657.023 1449.76 642.752L1449.74 642.797Z" fill="#F8F9FA"/>
    <path d="M434.139 1046.54C421.229 1050.15 408.273 1053.51 395.226 1056.21C382.18 1058.93 369.065 1061.25 355.882 1062.65C342.722 1064.11 329.562 1064.97 316.47 1064.85C303.378 1064.74 290.399 1063.56 277.806 1061.16C265.236 1058.71 253.029 1055.03 241.775 1049.67C230.543 1044.32 220.355 1037.24 211.756 1028.66L208.534 1025.44L205.562 1021.99L204.087 1020.27L202.725 1018.45C201.818 1017.23 200.865 1016.05 199.98 1014.82C198.346 1012.26 196.531 1009.83 195.102 1007.15C194.353 1005.84 193.536 1004.54 192.855 1003.18L190.813 999.099C185.504 988.117 182.1 976.137 179.945 963.862C175.929 939.152 177.154 913.218 181.351 887.692C185.572 862.098 192.787 836.821 201.432 811.998C205.766 799.587 210.644 787.312 215.772 775.127C220.9 762.943 226.414 750.917 232.222 739.005C235.081 733.038 238.122 727.138 241.071 721.193C244.157 715.317 247.152 709.395 250.329 703.563C256.591 691.855 263.171 680.306 269.91 668.825C276.626 657.344 283.66 646.045 290.762 634.768C297.977 623.559 305.215 612.373 312.726 601.368C327.656 579.291 343.312 557.645 359.512 536.43C391.891 493.977 426.334 453.022 462.592 413.7C498.76 374.311 536.629 336.441 576.019 300.251C615.318 263.97 656.092 229.3 698.454 196.717C719.578 180.38 741.065 164.497 762.961 149.25C784.857 134.002 807.183 119.39 829.805 105.322C875.117 77.323 922.085 52.0238 970.687 31.1264C995.01 20.7571 1019.76 11.5224 1044.93 4.14815C1070.07 -3.27144 1095.64 -8.9666 1121.23 -11.5079C1134.03 -12.7785 1146.83 -13.1869 1159.42 -12.6197C1172.01 -11.9843 1184.47 -10.3961 1196.34 -7.17409C1220.07 -0.957066 1241.44 11.7266 1256.06 30.8087C1270.87 49.6867 1278.86 74.0783 1281.38 99.4456C1282.67 112.152 1282.88 125.085 1282.15 138.109C1281.24 151.11 1279.72 164.157 1277.41 177.136C1272.87 203.138 1265.59 228.823 1257.03 254.1C1248.46 279.422 1238.11 304.199 1226.92 328.636C1219.41 344.882 1211.47 360.969 1203.14 376.852C1205.44 378.123 1207.71 379.416 1209.97 380.709C1219.37 365.28 1228.38 349.579 1236.91 333.605C1249.73 309.599 1261.53 284.981 1271.71 259.591C1274.16 253.215 1276.82 246.884 1279.04 240.395L1282.51 230.707L1285.71 220.904C1287.91 214.392 1289.73 207.744 1291.66 201.119C1292.66 197.829 1293.38 194.448 1294.27 191.09C1295.08 187.732 1296.04 184.419 1296.69 181.016L1298.87 170.851C1299.6 167.447 1300.08 163.998 1300.69 160.595L1301.57 155.444C1301.85 153.72 1302.03 151.995 1302.28 150.248C1302.71 146.777 1303.18 143.328 1303.57 139.834C1304.95 125.879 1305.38 111.744 1304.55 97.4943C1303.75 83.245 1301.3 68.8823 1296.9 54.8827C1292.5 40.883 1286.01 27.2691 1277.16 15.062C1276.05 13.5417 1275.05 11.9308 1273.8 10.524L1270.12 6.21294C1268.88 4.80616 1267.72 3.30862 1266.38 1.94723L1262.39 -2.06887C1256.92 -7.28754 1251.07 -12.1432 1244.76 -16.25C1232.26 -24.7587 1218.41 -30.7716 1204.3 -35.0826C1190.17 -39.3937 1175.73 -41.6854 1161.37 -42.8653C1147.01 -44.0224 1132.69 -43.8636 1118.56 -42.8653C1090.26 -40.8005 1062.69 -35.3549 1035.81 -28.1849C1022.35 -24.5999 1009.08 -20.4704 995.986 -15.9778C982.894 -11.4625 969.915 -6.67491 957.118 -1.47893C905.884 19.1689 857.101 44.7857 810.02 72.8758C763.006 101.102 717.899 132.255 674.357 165.337C630.883 198.532 589.111 233.86 548.882 270.822C508.789 307.92 470.171 346.606 433.436 387.085C396.814 427.632 361.736 469.654 329.221 513.672C312.93 535.658 297.206 558.076 282.185 580.993C267.096 603.864 252.87 627.325 239.392 651.263C212.505 699.139 188.862 749.147 171.708 801.947C163.2 828.358 156.461 855.517 152.74 883.426C149.086 911.289 148.406 940.151 154.237 968.694C157.278 982.898 161.838 997.034 168.804 1010.17L171.481 1015.05C172.389 1016.66 173.433 1018.23 174.408 1019.81C176.314 1023.01 178.606 1025.96 180.762 1029C181.896 1030.48 183.121 1031.91 184.301 1033.34L186.094 1035.49L188 1037.54L191.834 1041.6L195.941 1045.39C206.946 1055.42 219.652 1063.4 233.084 1069.1C246.539 1074.77 260.585 1078.4 274.652 1080.4C302.856 1084.41 330.946 1082.53 358.128 1078.04C371.765 1075.81 385.152 1072.7 398.403 1069.21C411.676 1065.76 424.678 1061.52 437.565 1057.07C489.094 1039.01 537.764 1014.53 584.301 986.983C559.977 998.827 535.404 1010.08 510.355 1020.06C485.373 1030.21 459.938 1039.06 434.185 1046.48L434.139 1046.54Z" fill="#F8F9FA"/>
    <path d="M1083.11 886.352C1082.46 904.299 1081.41 922.224 1079.78 940.081C1077.46 966.923 1073.81 993.629 1068.75 1019.95C1066.12 1033.09 1063.24 1046.16 1059.68 1059.02C1056.16 1071.89 1052.28 1084.62 1047.56 1097C1042.88 1109.39 1037.67 1121.51 1031.63 1133.13C1025.59 1144.72 1018.65 1155.77 1010.78 1165.89C1002.88 1175.99 994.079 1185.2 984.209 1192.78C974.338 1200.36 963.402 1206.21 951.875 1210L947.542 1211.41L943.117 1212.5L940.916 1213.04L938.67 1213.43C937.172 1213.68 935.698 1213.99 934.2 1214.22C931.182 1214.52 928.187 1215.01 925.147 1215.08C923.627 1215.15 922.129 1215.29 920.586 1215.29L916.025 1215.24C903.841 1214.99 891.611 1212.56 879.676 1208.93C855.829 1201.31 833.298 1188.42 812.446 1173.11C791.549 1157.75 772.308 1139.82 754.111 1120.85C745.012 1111.37 736.276 1101.45 727.768 1091.35C719.236 1081.26 711.023 1070.89 703.036 1060.31C698.997 1055.05 695.14 1049.67 691.192 1044.34C687.357 1038.92 683.432 1033.56 679.688 1028.07C672.087 1017.18 664.781 1006.06 657.611 994.855C650.441 983.646 643.543 972.255 636.736 960.82C630.02 949.316 623.349 937.79 616.95 926.082C604.062 902.756 591.878 879 580.329 854.926C557.185 806.801 536.333 757.519 517.773 707.374C499.076 657.275 482.536 606.336 468.173 554.807C458.734 521.226 450.18 487.396 442.647 453.338C431.71 465.613 420.933 478.002 410.359 490.572C416.258 515.713 422.702 540.74 429.623 565.608C444.485 618.18 461.411 670.14 480.811 721.237C500.302 772.29 521.857 822.593 546.317 871.558C558.524 896.063 571.366 920.25 584.958 944.029C598.481 967.854 612.934 991.179 628.136 1014.05C658.586 1059.72 692.417 1103.49 731.693 1142.77C751.365 1162.33 772.512 1180.68 795.678 1196.66C818.845 1212.56 844.257 1226.27 872.325 1234.05C886.37 1237.79 901.027 1240.13 915.889 1239.91L921.448 1239.75C923.309 1239.68 925.169 1239.45 927.007 1239.29C930.728 1239.04 934.404 1238.34 938.08 1237.79C939.918 1237.45 941.733 1237.02 943.548 1236.62L946.271 1236L948.971 1235.23L954.326 1233.67L959.567 1231.74C973.499 1226.5 986.387 1218.78 997.55 1209.41C1008.71 1199.99 1018.31 1189.13 1026.48 1177.51C1042.86 1154.21 1053.93 1128.32 1062.26 1102.06C1066.48 1088.93 1069.77 1075.56 1072.68 1062.18C1075.63 1048.79 1077.76 1035.29 1079.64 1021.76C1085.72 976.725 1086.93 931.414 1085.18 886.352C1084.48 886.352 1083.77 886.352 1083.07 886.352H1083.11Z" fill="#F8F9FA"/>
    <path d="M443.849 175.75C434.296 175.41 424.721 175.228 415.146 175.138C415.532 187.231 416.099 199.348 416.848 211.441C425.334 211.691 433.842 211.986 442.328 212.417C468.966 213.688 495.582 215.798 522.129 218.589C539.055 220.359 555.937 222.423 572.818 224.715C585.774 213.37 598.889 202.184 612.139 191.202C583.482 186.982 554.689 183.488 525.804 180.901C498.554 178.428 471.213 176.658 443.826 175.773L443.849 175.75Z" fill="#F8F9FA"/>
    <path d="M350.732 176.204C299.476 178.518 248.129 184.372 197.666 196.352C170.688 202.819 143.982 211.192 118.206 222.537C92.5215 233.927 67.5172 248.358 46.1661 268.166C35.6153 278.149 25.9267 289.404 18.3256 302.178L15.5348 307.011C14.6272 308.622 13.833 310.324 12.9935 311.98C11.2464 315.27 9.93035 318.764 8.45551 322.19C7.79751 323.938 7.20757 325.707 6.57225 327.454L5.66466 330.087L4.91589 332.787L3.44105 338.187L2.35194 343.655C-0.506987 358.267 -0.688505 373.288 1.42165 387.719C3.57719 402.15 7.79751 416.036 13.4019 429.082C24.6334 455.267 40.8566 478.274 58.8497 499.149C67.8349 509.631 77.4554 519.456 87.3482 528.94C97.1956 538.47 107.588 547.387 118.07 556.078C153.512 585.121 191.79 610.102 231.406 632.406C231.747 631.816 232.087 631.226 232.427 630.637C217.18 620.471 202.159 609.966 187.547 598.984C165.901 582.92 145.094 565.812 125.354 547.682C115.552 538.538 105.954 529.235 96.8552 519.456C87.7566 509.722 78.9529 499.716 70.8753 489.211C62.7978 478.728 55.1966 467.927 48.4804 456.696C41.7642 445.464 36.0237 433.757 31.5311 421.754C27.0839 409.751 23.8619 397.407 22.5913 385.019C21.3207 372.63 22.0694 360.264 24.9057 348.443L25.9721 344.018L27.3789 339.684L28.0822 337.529L28.9218 335.419C29.489 334.012 30.0109 332.582 30.6008 331.198C31.9395 328.476 33.074 325.662 34.6169 323.03C35.3657 321.714 36.0237 320.353 36.8405 319.059L39.2684 315.202C45.8938 304.969 54.3571 295.825 63.7053 287.588C82.7195 271.297 105.5 258.863 129.483 249.152C153.535 239.44 178.879 232.452 204.587 226.916C217.452 224.148 230.453 221.924 243.523 219.973C256.592 218.021 269.729 216.456 282.935 215.208C289.515 214.527 296.14 214.073 302.743 213.506C309.369 213.075 315.971 212.553 322.619 212.258C332.217 211.713 341.815 211.373 351.436 211.124C351.027 199.484 350.8 187.821 350.732 176.158V176.204Z" fill="#F8F9FA"/>
</svg>