<svg width="78" height="77" viewBox="0 0 78 77" fill="none" xmlns="http://www.w3.org/2000/svg">
    <path d="M20.8127 32.174C20.8139 32.1824 20.8163 32.1896 20.8175 32.198C21.3599 31.5678 21.9084 30.9435 22.4665 30.3265C22.5062 30.282 22.5471 30.2387 22.588 30.1942C22.44 29.3318 22.3041 28.4682 22.1851 27.6022C21.9914 26.2009 21.8387 24.7949 21.7184 23.3876C21.4862 20.5731 21.4213 17.7465 21.6041 14.9476C21.7003 13.5488 21.8591 12.1572 22.1165 10.7908C22.3715 9.42562 22.7167 8.0809 23.2134 6.80955C23.4612 6.17448 23.7499 5.56105 24.0807 4.9789C24.4138 4.39916 24.7891 3.84828 25.2257 3.36596C26.0905 2.39531 27.2043 1.69047 28.4576 1.45834C29.7061 1.21297 31.0508 1.42225 32.3089 1.91299C32.9404 2.15716 33.5562 2.46026 34.1528 2.80666C34.7458 3.16149 35.3255 3.54758 35.8824 3.96976C37.001 4.80931 38.039 5.77154 39.0277 6.78429C40.0176 7.79824 40.9378 8.88316 41.8242 9.99935C42.5447 10.9135 43.2351 11.8541 43.9002 12.8139C44.0085 12.7525 44.1179 12.6912 44.2262 12.6299C43.6176 11.6159 42.9777 10.6188 42.2981 9.64693C41.473 8.46459 40.5938 7.31472 39.6387 6.22259C39.3958 5.95316 39.1612 5.67532 38.9086 5.41431L38.5346 5.01739L38.1485 4.63009C37.8947 4.36909 37.6229 4.12372 37.357 3.87354C37.2247 3.74725 37.0828 3.63057 36.9469 3.50909C36.8086 3.39002 36.6739 3.26493 36.5295 3.15186L36.1013 2.80426C35.9582 2.68879 35.8067 2.58294 35.6599 2.47109L35.4374 2.3063C35.3628 2.25218 35.2846 2.20166 35.2089 2.14874C35.0549 2.0453 34.9034 1.93825 34.7482 1.83721C34.1227 1.43669 33.4648 1.07585 32.772 0.772746C32.0804 0.467237 31.3431 0.237504 30.5745 0.108805C29.8083 -0.0198931 29.0073 -0.0415433 28.2183 0.0823441C28.1196 0.0991831 28.0198 0.1064 27.9224 0.131658L27.6301 0.20142C27.5327 0.226679 27.434 0.245924 27.339 0.27479L27.0527 0.367405C26.6751 0.499712 26.3046 0.659683 25.9582 0.858144C25.2558 1.24304 24.6375 1.75302 24.0951 2.31472C23.5514 2.87883 23.0956 3.50548 22.6938 4.15499C22.2933 4.8057 21.9565 5.48528 21.6642 6.17808C21.0809 7.5637 20.6744 8.99742 20.3652 10.4408C20.2113 11.1624 20.0862 11.8889 19.9839 12.6154C19.8817 13.3431 19.7963 14.0708 19.7338 14.7997C19.4764 17.7165 19.5125 20.638 19.7061 23.538C19.9082 26.4379 20.2943 29.3186 20.8091 32.1716L20.8127 32.174Z" fill="#CED4DA"/>
    <path d="M76.8505 44.7298C76.6556 43.9708 76.361 43.254 76.0194 42.572C75.6754 41.89 75.2736 41.2465 74.8382 40.6343C73.965 39.4111 72.9583 38.3117 71.8914 37.2917C71.3573 36.7818 70.8053 36.2946 70.2399 35.8255C69.6746 35.3577 69.0997 34.9018 68.5115 34.4664C66.1637 32.7163 63.6583 31.2141 61.0879 29.8573C58.5127 28.5078 55.8594 27.3242 53.1603 26.2646C50.4589 25.2109 47.7081 24.2944 44.9248 23.4921C42.4928 22.8005 40.0367 22.1931 37.5577 21.6855C36.8361 22.2448 36.1228 22.815 35.418 23.3959C35.6369 23.438 35.857 23.4813 36.0759 23.5246C38.8567 24.0755 41.6147 24.7454 44.3403 25.5309C47.067 26.3103 49.7612 27.1991 52.4038 28.2179C53.7268 28.7231 55.0379 29.2595 56.3321 29.8296C57.6263 30.401 58.9036 31.0084 60.1642 31.6434C62.6816 32.922 65.1209 34.3509 67.4086 35.9759C68.5488 36.7914 69.6494 37.6574 70.6778 38.5932C71.7061 39.5265 72.6696 40.5273 73.4911 41.617C73.9012 42.1618 74.2729 42.7284 74.594 43.3153C74.9128 43.9023 75.1846 44.5109 75.365 45.1363C75.7379 46.3824 75.7535 47.6995 75.2929 48.8878C74.8466 50.0798 73.9626 51.1142 72.8849 51.9273C72.346 52.3362 71.7651 52.7019 71.1565 53.0279C70.543 53.3454 69.9104 53.6365 69.2585 53.889C67.9571 54.4002 66.5919 54.7791 65.2111 55.0882C63.8291 55.3986 62.4218 55.6126 61.0073 55.781C59.5916 55.9446 58.1675 56.0517 56.7386 56.1106C55.3097 56.1756 53.8772 56.184 52.4435 56.1671C55.2977 56.4366 58.1784 56.534 61.059 56.3704C62.4988 56.2886 63.9385 56.1443 65.3698 55.9049C65.7271 55.84 66.0855 55.7858 66.4403 55.7077L66.9744 55.597L67.506 55.4719C67.862 55.3925 68.212 55.2903 68.5657 55.1953C68.7425 55.1496 68.9157 55.0894 69.0913 55.0377C69.2657 54.9824 69.4425 54.9331 69.6145 54.8705L70.1353 54.6877C70.3085 54.6264 70.4781 54.5542 70.6501 54.4868L70.9075 54.3846C70.9929 54.3497 71.0771 54.31 71.1613 54.2727C71.3297 54.197 71.5005 54.1236 71.6677 54.0442C72.3376 53.7219 72.9895 53.3514 73.6114 52.9208C74.2344 52.4926 74.8166 51.985 75.3302 51.3993C75.8425 50.8147 76.2804 50.1436 76.5895 49.4075C76.6268 49.3148 76.6725 49.2258 76.7025 49.1308L76.7964 48.8457C76.8264 48.7507 76.8613 48.6557 76.8866 48.5595L76.9575 48.2672C77.0429 47.8763 77.1007 47.477 77.1139 47.0776C77.1548 46.2778 77.0453 45.484 76.8517 44.7274L76.8505 44.7298Z" fill="#CED4DA"/>
    <path d="M23.0135 66.1323C22.3291 66.3236 21.6423 66.5016 20.9507 66.6447C20.2591 66.789 19.5639 66.9117 18.865 66.9863C18.1674 67.0633 17.4698 67.109 16.7758 67.103C16.0818 67.097 15.3938 67.0344 14.7262 66.9069C14.0599 66.777 13.4128 66.5822 12.8162 66.2983C12.2208 66.0144 11.6808 65.6392 11.2249 65.1845L11.0541 65.0137L10.8966 64.8309L10.8184 64.7395L10.7462 64.6433C10.6981 64.5783 10.6476 64.5158 10.6007 64.4508C10.5141 64.3149 10.4178 64.1862 10.3421 64.0443C10.3024 63.9745 10.2591 63.906 10.223 63.8338L10.1147 63.6173C9.83329 63.0351 9.65287 62.4001 9.53861 61.7493C9.32571 60.4395 9.39066 59.0647 9.61318 57.7116C9.8369 56.3548 10.2194 55.0149 10.6776 53.6991C10.9074 53.0411 11.166 52.3904 11.4378 51.7445C11.7096 51.0986 12.0019 50.4612 12.3098 49.8297C12.4614 49.5134 12.6226 49.2006 12.7789 48.8855C12.9425 48.574 13.1013 48.2601 13.2697 47.9509C13.6016 47.3303 13.9504 46.7181 14.3077 46.1095C14.6637 45.5009 15.0366 44.9019 15.413 44.3041C15.7955 43.7099 16.1792 43.1169 16.5773 42.5336C17.3688 41.3633 18.1987 40.2158 19.0575 39.0912C20.7739 36.8408 22.5997 34.6697 24.5218 32.5853C26.439 30.4973 28.4465 28.4898 30.5345 26.5713C32.6177 24.6481 34.7792 22.8102 37.0248 21.083C38.1446 20.217 39.2836 19.3751 40.4443 18.5668C41.605 17.7585 42.7885 16.9839 43.9877 16.2382C46.3897 14.7539 48.8795 13.4128 51.4558 12.305C52.7452 11.7554 54.0575 11.2658 55.3914 10.8749C56.7241 10.4816 58.0796 10.1797 59.4364 10.045C60.1147 9.97765 60.7931 9.956 61.4607 9.98607C62.1282 10.0197 62.7885 10.1039 63.4176 10.2747C64.6757 10.6043 65.8087 11.2767 66.5833 12.2882C67.3688 13.2889 67.7921 14.5819 67.9257 15.9267C67.9942 16.6002 68.005 17.2858 67.9665 17.9762C67.9184 18.6654 67.8378 19.357 67.7152 20.045C67.4746 21.4234 67.0885 22.785 66.6351 24.1249C66.1804 25.4672 65.6319 26.7806 65.039 28.076C64.6408 28.9372 64.2199 29.79 63.7784 30.632C63.8999 30.6993 64.0202 30.7679 64.1405 30.8364C64.6384 30.0185 65.1159 29.1862 65.5682 28.3394C66.2478 27.0669 66.8732 25.7619 67.4133 24.4159C67.5432 24.078 67.6839 23.7424 67.8018 23.3984L67.9858 22.8848L68.1554 22.3652C68.2721 22.02 68.3683 21.6676 68.4705 21.3164C68.5234 21.1419 68.5619 20.9627 68.6088 20.7847C68.6521 20.6067 68.7027 20.4311 68.7375 20.2507L68.853 19.7118C68.8915 19.5314 68.9168 19.3486 68.9492 19.1682L68.9961 18.8951C69.0106 18.8037 69.0202 18.7123 69.0334 18.6197C69.0563 18.4357 69.0815 18.2528 69.102 18.0676C69.1754 17.3279 69.1982 16.5786 69.1537 15.8232C69.1116 15.0679 68.9817 14.3065 68.7484 13.5644C68.515 12.8222 68.171 12.1006 67.7019 11.4535C67.643 11.3729 67.5901 11.2875 67.5239 11.2129L67.3291 10.9844C67.2629 10.9098 67.2016 10.8304 67.1306 10.7583L66.9189 10.5454C66.629 10.2687 66.3187 10.0113 65.9843 9.79362C65.3216 9.34258 64.5879 9.02384 63.8398 8.79531C63.0904 8.56678 62.3255 8.4453 61.5641 8.38275C60.8027 8.32141 60.0438 8.32983 59.2944 8.38275C57.7946 8.49221 56.3332 8.78087 54.9079 9.16096C54.1946 9.351 53.491 9.5699 52.797 9.80806C52.1029 10.0474 51.4149 10.3012 50.7366 10.5766C48.0207 11.6712 45.4347 13.0291 42.9389 14.5182C40.4467 16.0145 38.0556 17.6659 35.7474 19.4196C33.4429 21.1792 31.2285 23.052 29.096 25.0113C26.9706 26.9779 24.9235 29.0286 22.9762 31.1744C21.0349 33.3238 19.1754 35.5514 17.4518 37.8848C16.5882 39.0503 15.7546 40.2386 14.9584 41.4535C14.1585 42.6659 13.4044 43.9096 12.6899 45.1785C11.2646 47.7164 10.0113 50.3673 9.10199 53.1662C8.65095 54.5663 8.29372 56.006 8.09646 57.4855C7.90281 58.9625 7.86673 60.4924 8.17585 62.0055C8.33702 62.7585 8.57878 63.5078 8.94804 64.2042L9.08997 64.4628C9.13808 64.5482 9.19341 64.6312 9.24513 64.7154C9.34616 64.885 9.46764 65.0414 9.58191 65.2026C9.64205 65.2807 9.707 65.3565 9.76954 65.4323L9.86456 65.5466L9.9656 65.6548L10.1689 65.8701L10.3866 66.071C10.9699 66.6026 11.6435 67.026 12.3555 67.3279C13.0688 67.6286 13.8133 67.821 14.5591 67.9269C16.0541 68.1398 17.5432 68.0399 18.9841 67.8018C19.707 67.6839 20.4166 67.5191 21.1191 67.3339C21.8227 67.1511 22.5119 66.9262 23.1951 66.6904C25.9266 65.733 28.5066 64.4352 30.9735 62.975C29.6841 63.6028 28.3815 64.1994 27.0536 64.7287C25.7294 65.2663 24.381 65.7354 23.0159 66.1287L23.0135 66.1323Z" fill="#CED4DA"/>
    <path d="M57.4166 57.6406C57.3818 58.592 57.3264 59.5422 57.2398 60.4888C57.1171 61.9117 56.9235 63.3274 56.6553 64.7226C56.5157 65.419 56.363 66.1118 56.1742 66.7938C55.9877 67.4758 55.782 68.1505 55.5319 68.8073C55.2841 69.464 55.0074 70.1063 54.6875 70.7221C54.3676 71.3367 53.9995 71.9225 53.5821 72.4589C53.1636 72.9942 52.6969 73.4825 52.1737 73.8842C51.6505 74.286 51.0707 74.5963 50.4597 74.7972L50.23 74.8717L49.9954 74.9295L49.8788 74.9583L49.7597 74.9788C49.6803 74.992 49.6021 75.0089 49.5227 75.0209C49.3628 75.0365 49.204 75.063 49.0428 75.0666C48.9622 75.0702 48.8828 75.0774 48.8011 75.0774L48.5593 75.075C47.9134 75.0618 47.2651 74.9331 46.6324 74.7406C45.3683 74.3365 44.1739 73.6533 43.0686 72.8414C41.9608 72.0271 40.9408 71.0769 39.9762 70.0714C39.4939 69.5686 39.0308 69.043 38.5797 68.5078C38.1275 67.9725 37.6921 67.4229 37.2687 66.8624C37.0546 66.5833 36.8501 66.2982 36.6408 66.0156C36.4376 65.7281 36.2295 65.4443 36.031 65.1532C35.6281 64.5758 35.2408 63.9865 34.8607 63.3923C34.4806 62.7981 34.115 62.1943 33.7541 61.5881C33.3981 60.9783 33.0445 60.3673 32.7053 59.7467C32.0221 58.5102 31.3762 57.2509 30.764 55.9747C29.5372 53.4236 28.4318 50.8111 27.4479 48.153C26.4568 45.4972 25.58 42.7969 24.8186 40.0654C24.3183 38.2853 23.8648 36.4919 23.4655 34.6865C22.8857 35.3372 22.3144 35.994 21.7539 36.6603C22.0666 37.993 22.4082 39.3197 22.7751 40.6379C23.5629 43.4248 24.4602 46.1792 25.4886 48.8879C26.5218 51.5941 27.6644 54.2607 28.961 56.8563C29.6081 58.1554 30.2889 59.4375 31.0094 60.6981C31.7262 61.961 32.4924 63.1975 33.2983 64.4099C34.9124 66.8311 36.7058 69.1513 38.7878 71.2333C39.8306 72.2701 40.9516 73.2432 42.1797 74.0899C43.4077 74.9331 44.7549 75.6596 46.2427 76.0721C46.9872 76.2706 47.7642 76.3945 48.5521 76.3824L48.8468 76.374C48.9454 76.3704 49.044 76.3584 49.1414 76.35C49.3387 76.3367 49.5335 76.2994 49.7284 76.2706C49.8258 76.2525 49.9221 76.2297 50.0183 76.208L50.1626 76.1756L50.3057 76.1347L50.5896 76.0517L50.8674 75.9494C51.606 75.6716 52.2891 75.2626 52.8809 74.7659C53.4727 74.2667 53.9815 73.6906 54.4145 73.0748C55.2829 71.8395 55.8698 70.4671 56.3113 69.0755C56.535 68.3791 56.7094 67.6706 56.8634 66.961C57.0197 66.2513 57.1328 65.5357 57.2326 64.8188C57.555 62.4313 57.6187 60.0293 57.5261 57.6406C57.4888 57.6406 57.4515 57.6406 57.4142 57.6406H57.4166Z" fill="#CED4DA"/>
    <path d="M23.5293 19.9714C23.023 19.9534 22.5154 19.9438 22.0078 19.939C22.0283 20.5801 22.0583 21.2223 22.098 21.8634C22.5479 21.8767 22.9989 21.8923 23.4488 21.9151C24.8608 21.9825 26.2717 22.0944 27.679 22.2423C28.5762 22.3361 29.4711 22.4456 30.366 22.5671C31.0528 21.9657 31.748 21.3727 32.4504 20.7905C30.9313 20.5668 29.405 20.3816 27.8738 20.2445C26.4293 20.1134 24.9799 20.0196 23.5281 19.9726L23.5293 19.9714Z" fill="#CED4DA"/>
    <path d="M18.5923 19.9956C15.8752 20.1183 13.1533 20.4286 10.4783 21.0636C9.04818 21.4064 7.63249 21.8503 6.26612 22.4517C4.90456 23.0555 3.57909 23.8204 2.44726 24.8705C1.88797 25.3997 1.37438 25.9963 0.971441 26.6735L0.823497 26.9297C0.775386 27.0151 0.733288 27.1053 0.688785 27.1931C0.59617 27.3675 0.526408 27.5527 0.448227 27.7343C0.413346 27.8269 0.382073 27.9208 0.348395 28.0134L0.300284 28.1529L0.260592 28.296L0.18241 28.5823L0.124676 28.8722C-0.0268754 29.6468 -0.0364977 30.443 0.0753618 31.208C0.189627 31.973 0.413346 32.7091 0.710435 33.4007C1.30582 34.7887 2.16581 36.0083 3.11962 37.1149C3.59593 37.6706 4.10591 38.1914 4.63033 38.6941C5.15234 39.1993 5.70322 39.672 6.25891 40.1327C8.13766 41.6723 10.1668 42.9965 12.2668 44.1789C12.2849 44.1476 12.3029 44.1163 12.321 44.085C11.5127 43.5462 10.7164 42.9893 9.94185 42.4072C8.79439 41.5556 7.69143 40.6487 6.645 39.6876C6.1254 39.2029 5.61662 38.7098 5.1343 38.1914C4.65198 37.6754 4.1853 37.145 3.7571 36.5881C3.32891 36.0324 2.92597 35.4598 2.56995 34.8645C2.21392 34.2691 1.90962 33.6484 1.67146 33.0122C1.43572 32.3759 1.26492 31.7216 1.19757 31.0648C1.13021 30.4081 1.1699 29.7526 1.32025 29.1259L1.37678 28.8914L1.45135 28.6617L1.48864 28.5474L1.53314 28.4355C1.56321 28.361 1.59088 28.2852 1.62215 28.2118C1.69311 28.0675 1.75325 27.9183 1.83504 27.7788C1.87474 27.7091 1.90962 27.6369 1.95292 27.5683L2.08162 27.3639C2.43283 26.8214 2.88147 26.3367 3.37702 25.9001C4.38496 25.0365 5.59256 24.3773 6.86391 23.8625C8.13887 23.3477 9.48238 22.9773 10.8451 22.6838C11.5271 22.5371 12.2163 22.4192 12.9091 22.3158C13.6019 22.2123 14.2984 22.1293 14.9984 22.0632C15.3472 22.0271 15.6984 22.003 16.0484 21.973C16.3996 21.9501 16.7496 21.9224 17.1021 21.9068C17.6108 21.8779 18.1196 21.8599 18.6296 21.8467C18.608 21.2296 18.5959 20.6114 18.5923 19.9932V19.9956Z" fill="#CED4DA"/>
    <circle cx="39" cy="38" r="2" fill="#D9D9D9"/>
</svg>
