<?xml version="1.0" encoding="UTF-8"?>
<svg id="Layer_2" data-name="Layer 2" xmlns="http://www.w3.org/2000/svg" viewBox="0 0 1600 350.7">
  <defs>
    <style>
      .cls-1 {
        fill: #000;
        stroke-width: 0px;
      }
    </style>
  </defs>
  <g id="Layer_1-2" data-name="Layer 1">
    <g>
      <path class="cls-1" d="M444.08,328.48c0,13.85-8.66,20.77-25.97,20.77s-25.53-6.92-25.53-20.77V45.87h-75.74c-10.39,0-15.87-7.36-16.45-22.07,0-14.42,5.48-21.64,16.45-21.64h202.97c10.96,0,16.16,7.21,15.58,21.64,0,14.71-5.19,22.07-15.58,22.07h-75.74v282.6Z"/>
      <path class="cls-1" d="M737.49,2.16c7.5,0,15.29,1.59,23.37,4.76,8.07,3.18,15.86,7.22,23.37,12.12h-.43c7.5,5.48,13.27,12.62,17.31,21.42,4.04,8.81,6.06,18.97,6.06,30.51v205.57c0,23.37-7.79,40.83-23.37,52.37-7.51,5.49-15.22,9.74-23.15,12.77-7.94,3.03-15.65,4.54-23.15,4.54h-94.35c-7.51,0-15.22-1.51-23.15-4.54-7.94-3.03-15.65-7.28-23.15-12.77-7.51-5.77-13.27-12.91-17.31-21.42-4.04-8.51-6.06-18.83-6.06-30.94V70.97c0-11.54,2.02-21.71,6.06-30.51,4.04-8.8,9.81-15.94,17.31-21.42h-.43c7.5-4.9,15.29-8.94,23.37-12.12,8.07-3.17,15.86-4.76,23.37-4.76h94.35ZM726.67,302.51c10.67,0,18.18-3.03,22.5-9.09,4.33-6.06,6.49-12.83,6.49-20.34V74.87c0-7.21-2.16-13.85-6.49-19.91-4.33-6.06-11.83-9.09-22.5-9.09h-72.71c-10.68,0-18.18,3.03-22.5,9.09s-6.49,12.7-6.49,19.91v198.21c0,7.51,2.16,14.28,6.49,20.34,4.33,6.06,11.83,9.09,22.5,9.09h72.71Z"/>
      <path class="cls-1" d="M1137.8,0c9.23,0,19.33,2.16,30.3,6.49,10.1,4.04,15.15,11.69,15.15,22.94v298.18c0,13.85-8.51,20.77-25.53,20.77s-25.53-6.92-25.53-20.77V105.16l-12.55-1.3-17.31,56.26-51.93,173.11c-3.18,10.1-10.97,15-23.37,14.72-5.49-.29-10.24-1.73-14.28-4.33-4.04-2.6-6.78-6.34-8.22-11.25l-31.16-100.84c-6.35-19.91-12.7-40.17-19.04-60.81-6.35-20.63-13.27-43.49-20.77-68.59l-12.55,1.73v223.75c0,13.85-8.51,20.77-25.53,20.77s-25.53-6.92-25.53-20.77V29.43c0-10.96,5.04-18.61,15.15-22.94,10.67-4.33,20.92-6.34,30.73-6.06,4.33,0,8.8.58,13.42,1.73,4.61,1.16,8.94,2.81,12.98,4.98,4.04,2.16,7.64,4.91,10.82,8.22,3.17,3.32,5.63,7.14,7.36,11.47l67.95,231.54c4.9-17.02,10.1-35.49,15.58-55.4,5.48-19.91,11.1-40.1,16.88-60.59,5.77-20.48,11.47-40.75,17.09-60.81,5.62-20.05,10.89-38.73,15.79-56.04,1.73-4.04,4.18-7.64,7.36-10.82,3.17-3.17,6.78-5.84,10.82-8.01,4.04-2.16,8.29-3.82,12.77-4.98,4.47-1.15,8.87-1.73,13.2-1.73Z"/>
      <path class="cls-1" d="M1297.5,327.61c0,13.85-8.66,20.77-25.97,20.77s-25.53-6.92-25.53-20.77V20.77c0-13.85,8.51-20.77,25.53-20.77s25.97,6.92,25.97,20.77v306.84Z"/>
      <path class="cls-1" d="M1600,276.54c0,23.37-7.79,40.83-23.37,52.37-7.51,5.49-15.22,9.74-23.15,12.77-7.94,3.03-15.66,4.54-23.15,4.54h-94.34c-7.51,0-15.22-1.51-23.15-4.54-7.94-3.03-15.66-7.28-23.16-12.77-7.51-5.77-13.27-12.91-17.31-21.42-4.04-8.51-6.06-18.83-6.06-30.94V70.97c0-11.54,2.01-21.71,6.06-30.51,4.04-8.8,9.81-15.94,17.31-21.42h-.43c7.5-4.9,15.29-8.94,23.37-12.12,8.08-3.17,15.86-4.76,23.37-4.76h94.34c7.5,0,15.29,1.59,23.37,4.76,8.07,3.18,15.86,7.22,23.37,12.12h-.43c7.5,5.48,13.27,12.62,17.31,21.42,4.04,8.81,6.06,18.97,6.06,30.51v29.86c0,13.85-8.65,20.77-25.96,20.77s-25.53-6.92-25.53-20.77v-25.97c0-7.21-2.16-13.85-6.49-19.91-4.33-6.06-11.83-9.09-22.51-9.09h-72.7c-10.68,0-18.18,3.03-22.51,9.09-4.33,6.06-6.49,12.7-6.49,19.91v198.21c0,7.51,2.16,14.28,6.49,20.34s11.83,9.09,22.51,9.09h72.7c10.67,0,18.18-3.03,22.51-9.09,4.33-6.06,6.49-12.83,6.49-20.34v-25.1c0-13.56,8.51-20.34,25.53-20.34s25.96,6.78,25.96,20.34v28.56Z"/>
      <g>
        <path class="cls-1" d="M144.6,275.25c9.23,0,17.09-3.25,23.59-9.74,6.49-6.49,9.74-14.35,9.74-23.59s-3.25-17.09-9.74-23.58c-6.49-6.49-14.36-9.74-23.59-9.74s-17.03,3.25-23.37,9.74c-6.35,6.49-9.52,14.36-9.52,23.58s3.17,17.09,9.52,23.59c6.34,6.49,14.13,9.74,23.37,9.74Z"/>
        <path class="cls-1" d="M267.77,253.04c27.26-23.21,43.43-46.14,35.7-61.66-6.4-12.87-27.35-16.69-59.59-11.11-1.14-3.48-2.27-6.92-3.42-10.4-16.59-50.34-32.97-100.33-49.12-149.96-2.02-3.75-4.98-7.5-8.87-11.25-3.89-3.75-7.86-5.91-11.9-6.49-4.91-.57-9.67-1.08-14.28-1.51-4.62-.43-8.22-.65-10.82-.65s-6.21.22-10.82.65c-4.62.43-9.38,1.08-14.28,1.95-4.91.58-9.16,2.45-12.77,5.63-3.61,3.18-6.13,7.07-7.57,11.68L1.35,319.82c-4.33,13.27,1.73,22.51,18.18,27.7h-.43c2.31.57,4.54,1.08,6.71,1.51,1.55.31,3.15.47,4.77.56,4.06.75,8.58,1.11,13.5,1.11,33.1,0,83.93-16.13,129.48-38.11,1.92-.92,3.85-1.86,5.77-2.82l3.88-1.95c1.86-.95,3.72-1.9,5.47-2.81l.24-.12c11.98-6.25,23.85-13.06,35.17-20.2l16.6,50.7v-.43c1.44,4.33,3.82,7.86,7.14,10.6,3.31,2.74,6.99,4.11,11.04,4.11,2.31,0,4.4-.22,6.27-.65,1.87-.43,3.96-.94,6.28-1.51,16.15-5.19,22.21-14.42,18.18-27.7-7.22-22.18-14.5-44.46-21.81-66.78ZM258.93,226.1c-3.55-10.81-7.11-21.65-10.68-32.5,10.79.23,17.95,2.78,20.29,7.48,2.68,5.39-.69,14.23-9.61,25.02ZM145.47,44.58l71.27,217.71c-10.36,7.03-22.16,14.19-35.36,21.27-1.87,1-3.76,2-5.68,2.99-2.19,1.13-4.41,2.26-6.79,3.44l-2.08,1.03c-1.92.94-3.84,1.87-5.76,2.78-45.95,21.74-84.98,30.76-106.32,29.12L145.47,44.58Z"/>
      </g>
    </g>
  </g>
</svg>