<?xml version="1.0" encoding="utf-8"?>
<!-- Generator: Adobe Illustrator 18.0.0, SVG Export Plug-In . SVG Version: 6.00 Build 0)  -->
<!DOCTYPE svg PUBLIC "-//W3C//DTD SVG 1.1//EN" "http://www.w3.org/Graphics/SVG/1.1/DTD/svg11.dtd">
<svg version="1.1" id="Layer_1" xmlns="http://www.w3.org/2000/svg" xmlns:xlink="http://www.w3.org/1999/xlink" x="0px" y="0px"
	 viewBox="0 0 419.5 595.3" enable-background="new 0 0 419.5 595.3" xml:space="preserve">
<polygon fill="none" stroke="#FFFFFF" stroke-width="4" stroke-miterlimit="10" points="19.4,179.6 76.2,212.5 144,173.8 
	211.7,212.5 268.6,179.4 144,107.1 "/>
<polygon fill="none" stroke="#FFFFFF" stroke-width="4" stroke-miterlimit="10" points="14.1,188 70.9,220.8 70.9,298.7 
	138.4,337.7 138.4,404.5 14.1,332.6 "/>
<polygon fill="none" stroke="#FFFFFF" stroke-width="4" stroke-miterlimit="10" points="81.7,227.1 81.7,293.5 205.9,365.6 
	205.9,299.2 "/>
<polygon fill="none" stroke="#FFFFFF" stroke-width="4" stroke-miterlimit="10" points="14.1,344.2 14.1,410.8 206.3,521.6 
	205.9,376.9 148.9,344.2 148.9,422.2 "/>
<polygon fill="none" stroke="#FFFFFF" stroke-width="4" stroke-miterlimit="10" points="216.5,376.7 216.5,521.6 273.5,488.7 
	273.5,410.6 340.9,371.9 340.9,305.2 "/>
<polygon fill="none" stroke="#FFFFFF" stroke-width="4" stroke-miterlimit="10" points="216.5,299.4 216.5,365.6 408.3,254.9 
	408.3,188.4 "/>
<polygon fill="none" stroke="#FFFFFF" stroke-width="4" stroke-miterlimit="10" points="86.3,218.6 211.7,290.9 403.9,179.4 
	211.7,68.5 154.1,101.7 287.7,179.7 211.7,224.1 144,184.9 "/>
<polygon fill="none" stroke="#FFFFFF" stroke-width="4" stroke-miterlimit="10" points="351.5,305.2 351.5,365.6 403.9,335.4 "/>
<polygon fill="none" stroke="#FFFFFF" stroke-width="4" stroke-miterlimit="10" points="408.3,344 408.3,411.3 284.4,483 
	284.4,415.7 "/>
</svg>
