<svg xmlns="http://www.w3.org/2000/svg" viewBox="0 0 419.5 595.3"><path fill="none" stroke="#FFF" stroke-width="4" stroke-miterlimit="10" d="M19.4 179.6l56.8 32.9 67.8-38.7 67.7 38.7 56.9-33.1L144 107.1zM14.1 188l56.8 32.8v77.9l67.5 39v66.8L14.1 332.6z"/><path fill="none" stroke="#FFF" stroke-width="4" stroke-miterlimit="10" d="M81.7 227.1v66.4l124.2 72.1v-66.4zM14.1 344.2v66.6l192.2 110.8-.4-144.7-57-32.7v78zM216.5 376.7v144.9l57-32.9v-78.1l67.4-38.7v-66.7zM216.5 299.4v66.2l191.8-110.7v-66.5zM86.3 218.6l125.4 72.3 192.2-111.5L211.7 68.5l-57.6 33.2 133.6 78-76 44.4-67.7-39.2zM351.5 305.2v60.4l52.4-30.2z"/><path fill="none" stroke="#FFF" stroke-width="4" stroke-miterlimit="10" d="M408.3 344v67.3L284.4 483v-67.3z"/></svg>