<svg id="Camada_1" data-name="Camada 1" xmlns="http://www.w3.org/2000/svg" viewBox="0 0 89.22 32.19"><defs><style>.cls-1{fill:#ed7950;}</style></defs><path class="cls-1" d="M24.49,9.64,8.69.3c0,2.8,0,5.6,0,8.41q4.22,2.47,8.41,5v10l7.4,4.09Q24.49,18.69,24.49,9.64Z" transform="translate(-0.46 -0.3)"/><path class="cls-1" d="M7.69.46.46,4.4V32.14l15.65-8.55V15.36L7.69,20Z" transform="translate(-0.46 -0.3)"/><polygon class="cls-1" points="16.61 32.19 16.69 24.55 23.77 28.45 16.61 32.19"/><path class="cls-1" d="M17.15,24.85" transform="translate(-0.46 -0.3)"/><path class="cls-1" d="M50.94,13.81V12.59H48.35V9H47.1v3.63H45.39v1.22H47.1v5.12a2.67,2.67,0,0,0,2.67,2.78h1V20.49h-1a1.5,1.5,0,0,1-1.42-1.6V13.81Z" transform="translate(-0.46 -0.3)"/><path d="M72.91,12.59h-1a2.71,2.71,0,0,0-2.27,1.07,2.55,2.55,0,0,0-2-1.07H66.6a2.41,2.41,0,0,0-1.76.88v-.74H63.59v9h1.25v-6.4a1.53,1.53,0,0,1,1.54-1.51h1.16a1.54,1.54,0,0,1,1.51,1.53v6.38H70.3V15.33a1.55,1.55,0,0,1,1.56-1.53H73a1.52,1.52,0,0,1,1.48,1.55v6.36h1.27V15.35A2.79,2.79,0,0,0,72.91,12.59Z" transform="translate(-0.46 -0.3)"/><rect x="78.15" y="12.28" width="1.3" height="9.13"/><path d="M57.94,12.59H56.55a2.71,2.71,0,0,0-2.74,2.74V19a2.65,2.65,0,0,0,2.72,2.7H58A2.72,2.72,0,0,0,60.72,19V15.35A2.78,2.78,0,0,0,57.94,12.59ZM55,15.31a1.55,1.55,0,0,1,1.51-1.54h1.37a1.6,1.6,0,0,1,1.57,1.54V19a1.54,1.54,0,0,1-1.55,1.51H56.57A1.49,1.49,0,0,1,55,19.06Z" transform="translate(-0.46 -0.3)"/><path d="M40.29,12.57H38.15a2.27,2.27,0,0,0-2.23,2v.13h1.27l0-.09a1.05,1.05,0,0,1,.95-.88h2.14a1,1,0,0,1,1,1v1.74H37.65a2.2,2.2,0,0,0-2.16,2.27v.73a2.13,2.13,0,0,0,2.16,2.23h2.13a1.89,1.89,0,0,0,1.5-.8v.68h1.24V14.84A2.25,2.25,0,0,0,40.29,12.57Zm-3.56,6.1a.94.94,0,0,1,.92-1h3.63V19a1.43,1.43,0,0,1-.42,1,1.52,1.52,0,0,1-1.08.46H37.69a1,1,0,0,1-1-1Z" transform="translate(-0.46 -0.3)"/><path d="M88.4,19.12a1.43,1.43,0,0,1-1.49,1.41H85.54A1.58,1.58,0,0,1,84,18.94V15.33a1.56,1.56,0,0,1,1.53-1.55h1.37A1.46,1.46,0,0,1,88.4,15l0,.11h1.26V15a2.69,2.69,0,0,0-2.76-2.39H85.54a2.78,2.78,0,0,0-2.76,2.8v3.53a2.73,2.73,0,0,0,2.72,2.8H87a2.76,2.76,0,0,0,2.72-2.59V19H88.41Z" transform="translate(-0.46 -0.3)"/><rect x="78.01" y="8.66" width="1.57" height="1.57"/></svg>