<svg xmlns="http://www.w3.org/2000/svg" viewBox="0 0 479.29 549.18">
  <defs>
    <style>
      .color {
        fill: #fff;
      }
    </style>
  </defs>
  <title>CeSIUM</title>
  <polygon
    class="color"
    points="171.29 39.06 335.29 133.65 240.24 190.35 157.65 142.82 89.65 181.88 239.53 268.47 472.94 134.12 239.76 0 171.29 39.06"
  />
  <polygon
    class="color"
    points="157.41 47.06 7.76 134.24 75.77 173.65 157.41 126.59 240.24 173.65 307.76 134.24 157.41 47.06"
  />
  <polygon
    class="color"
    points="479.29 146.35 246.82 280.47 246.82 359.53 479.29 225.41 479.29 146.35"
  />
  <polygon
    class="color"
    points="410.35 288.24 410.35 359.53 472.94 323.88 410.35 288.24"
  />
  <polygon
    class="color"
    points="479.29 336.94 329.18 423.06 329.18 501.88 479.29 414.82 479.29 336.94"
  />
  <polygon
    class="color"
    points="246.82 376 246.82 549.18 315.29 509.41 315.29 414.82 397.65 367.06 397.65 288.24 246.82 376"
  />
  <path
    class="color"
    d="M232.59,457.41s1.65,96,0,94.59S68.35,457.41,68.35,457.41v78.35L301.29,670.35V496.94Z"
    transform="translate(-68.35 -121.18)"
  />
  <polygon
    class="color"
    points="68.23 280.94 68.23 185.65 0 146.35 0 320 150.59 406.35 151.53 328.94 68.23 280.94"
  />
  <polygon
    class="color"
    points="82.12 193.65 82.12 272.94 232.94 359.53 232.94 280.94 82.12 193.65"
  />
</svg>
